<?xml version="1.0" encoding="UTF-8"?>
<svg width="33px" height="32px" viewBox="0 0 33 32" version="1.1" xmlns="http://www.w3.org/2000/svg" xmlns:xlink="http://www.w3.org/1999/xlink">
    <title>支付宝</title>
    <g id="第二版-投保流程-10.18" stroke="none" stroke-width="1" fill="none" fill-rule="evenodd">
        <g id="第二版投保流程" transform="translate(-2162.000000, -5372.000000)" fill="#1677FF" fill-rule="nonzero">
            <g id="编组-19" transform="translate(2162.600468, 5371.999999)">
                <g id="支付宝" transform="translate(0.000000, -0.000000)">
                    <path d="M31.9999916,21.7779245 L21.7067216,18.3165377 C21.7067216,18.3165377 22.4977891,17.1324179 23.3421769,14.8108541 C24.1866877,12.4891261 24.3076426,11.2142389 24.3076426,11.2142389 L17.6444976,11.159319 L17.6444976,8.88348751 L25.7138618,8.8265989 L25.7138618,7.21768075 L17.642898,7.21768075 L17.642898,3.55539961 L13.6907187,3.55539961 L13.6907187,7.21784481 L6.16173478,7.21784481 L6.16173478,8.82676297 L13.6907187,8.77327865 L13.6907187,11.2142389 L7.65158471,11.2142389 L7.65158471,12.4889621 L20.0819304,12.4889621 C20.0819304,12.4889621 19.9450615,13.523498 19.4685424,14.81069 C18.9921465,16.0977589 18.5013951,17.2249491 18.5013951,17.2249491 C18.5013951,17.2249491 12.664878,15.1822091 9.58932477,15.1822091 C6.5137715,15.1822091 2.77327365,16.4177214 2.41061389,20.0035906 C2.04967679,23.587655 4.15299675,25.5290454 7.11624936,26.2436599 C10.0798711,26.9619657 12.8158564,26.2365642 15.1979592,25.0703272 C17.5804312,23.9058538 19.9180732,21.2586263 19.9180732,21.2586263 L31.9145561,27.0845203 C31.4251582,29.9269 28.9586863,32.0028625 26.0744708,32.0000025 L5.92536199,32.0000025 C2.65584605,32.0031907 0.0030403611,29.3551838 2.60185577e-06,26.0857909 L2.60185577e-06,5.92552591 C-0.00302994474,2.65576387 2.64522301,0.00291717499 5.91465692,2.53225937e-06 L26.0745938,2.53225937e-06 C29.3441097,-0.00298906853 31.9970795,2.64509982 31.9999916,5.91457475 L31.9999916,21.7779245 L31.9999916,21.7779245 Z M16.998133,19.7724678 C16.998133,19.7724678 13.2533286,24.5000027 8.84099551,24.5000027 C4.42677574,24.5000027 3.50002871,22.2537053 3.50002871,20.6381836 C3.50002871,19.0246307 4.41767028,17.2689998 8.17346695,17.0151544 C11.9271718,16.7616781 17.0000287,19.7724678 17.0000287,19.7724678 L16.998092,19.7724678 L16.998133,19.7724678 Z" id="形状"></path>
                </g>
            </g>
        </g>
    </g>
</svg>