<?xml version="1.0" encoding="UTF-8"?>
<svg width="750px" height="128px" viewBox="0 0 750 128" version="1.1" xmlns="http://www.w3.org/2000/svg" xmlns:xlink="http://www.w3.org/1999/xlink">
    <title>切片</title>
    <g id="页面-1" stroke="none" stroke-width="1" fill="none" fill-rule="evenodd">
        <g id="投保单列表" transform="translate(0.000000, -1444.000000)" fill="#CBCBCB">
            <g id="底部logo区备份" transform="translate(0.000000, 1444.000000)">
                <path d="M191.137836,20.7831152 C192.370834,22.3771053 195.704006,25.7487306 197.221265,26.8842085 C198.91004,28.1517187 200.899868,28.8562912 202.906488,28.9883235 L202.906488,19.3763709 L198.668958,15.1333323 L189.007676,15.1333323 C189.137213,17.1426241 189.846067,19.1183077 191.137836,20.7831152 M203.505716,9.0849319 L208.346551,13.9317182 L217.908282,13.9317182 C217.775147,11.9272276 217.079486,9.94674284 215.818902,8.2531283 C214.687854,6.73355637 211.3187,3.39553935 209.730675,2.15803645 C206.648181,-0.242551125 202.485014,-0.645849837 199.058288,0.97574707 C195.959001,2.58774163 190.932256,7.78381343 189.711253,10.6597173 C189.292657,11.712375 189.055173,12.8166453 189,13.9317182 L198.669677,13.9317182 L203.505716,9.0849319 Z M204.104223,19.3764909 L204.104223,29.0004465 C205.819386,28.9176262 207.508161,28.4207046 209.009827,27.4700719 C211.425448,25.9420979 214.22488,23.1370113 216.020404,20.6283973 C217.201827,18.9803939 217.825522,17.0695262 217.921475,15.1334524 L208.346551,15.1334524 L204.104223,19.3764909 Z M236.970932,4.78079841 L226.527632,4.78079841 C226.251767,4.78079841 226.026277,5.00765393 226.026277,5.28732238 L226.026277,5.76023814 C226.026277,6.037506 226.251767,6.26076065 226.527632,6.26076065 L232.588272,6.26076065 L232.588272,9.58197356 L226.527632,9.58197356 C226.251767,9.58197356 226.026277,9.83403525 226.026277,10.1449113 L226.026277,10.6526356 C226.026277,10.9623114 226.251767,11.2155734 226.527632,11.2155734 L232.588272,11.2155734 L232.588272,24.6792688 C232.588272,25.2338045 232.987677,25.6923168 233.47344,25.6923168 L234.94632,25.6923168 C235.432083,25.6923168 235.82669,25.2338045 235.82669,24.6792688 L235.82669,11.2155734 L240.90501,11.2155734 C241.180876,11.2155734 241.412362,10.9623114 241.412362,10.6526356 L241.412362,10.1449113 C241.412362,9.83403525 241.180876,9.58197356 240.90501,9.58197356 L235.82669,9.58197356 L235.82669,6.26076065 L238.833622,6.26076065 C241.280427,6.26076065 242.126014,4.65596785 242.126014,3.09558593 L238.394636,3.09558593 C238.394636,4.25627002 237.906475,4.78079841 236.970932,4.78079841 M250.801377,3.0619777 L249.293713,3.0619777 C248.801953,3.0619777 248.391754,3.51448846 248.391754,4.07262507 L248.391754,22.8176132 C248.391754,23.9602928 248.213041,24.4212057 246.694583,24.4212057 L243.848373,24.4212057 C243.600094,24.4212057 243.398592,24.6972732 243.398592,25.0357561 L243.398592,25.2842169 C243.398592,25.6239 243.600094,25.9011679 243.848373,25.9011679 L248.288604,25.9011679 C250.286828,25.9011679 251.705735,24.8521111 251.705735,21.8657802 L251.705735,4.07262507 C251.705735,3.51448846 251.296735,3.0619777 250.801377,3.0619777 M240.821051,19.675244 L240.821051,13.2824793 C240.821051,12.725543 240.443236,12.2778334 239.974265,12.2778334 L238.355056,12.2778334 C237.892082,12.2778334 237.511867,12.725543 237.511867,13.2824793 C237.511867,13.2824793 237.439903,14.9172794 237.625812,18.8842504 C237.863296,24.2195563 240.27172,25.7799382 242.056448,25.7799382 L242.056448,23.7310367 C241.447145,23.7310367 240.821051,21.8633796 240.821051,19.675244 M230.311784,12.2778334 L228.692575,12.2778334 C228.240395,12.2778334 227.872175,12.725543 227.872175,13.2824793 L227.872175,19.675244 C227.872175,21.8633796 227.056574,23.7310367 226.464063,23.7310367 L226.464063,25.7799382 C228.202014,25.7799382 230.79035,24.2195563 231.029034,18.8842504 C231.202949,14.9172794 231.133383,13.2824793 231.133383,13.2824793 C231.133383,12.725543 230.767561,12.2778334 230.311784,12.2778334 M244.528441,22.6051612 L246.37194,22.6051612 C246.800131,22.6051612 247.146762,22.1490495 247.146762,21.5969144 L247.146762,5.13848596 C247.146762,4.58154964 246.800131,4.12663829 246.37194,4.12663829 L244.528441,4.12663829 C244.096652,4.12663829 243.744024,4.58154964 243.744024,5.13848596 L243.744024,21.5969144 C243.744024,22.1490495 244.096652,22.6051612 244.528441,22.6051612 M331.199911,14.9550887 L331.199911,17.6533491 L318.125097,17.6533491 C318.388968,16.7507282 318.666033,15.8577096 318.931103,14.9550887 L331.199911,14.9550887 Z M321.339527,6.91432061 L334.945682,6.91432061 C335.223946,6.91432061 335.451835,6.66105862 335.451835,6.34658165 L335.451835,5.8352565 C335.451835,5.526781 335.223946,5.27231871 334.945682,5.27231871 L321.82409,5.27231871 C322.044783,4.53413803 322.264275,3.79955824 322.489765,3.06257785 L319.169787,3.06257785 L318.535297,5.27231871 L311.784993,5.27231871 C311.506729,5.27231871 311.278841,5.526781 311.278841,5.8352565 L311.278841,6.34658165 C311.278841,6.66105862 311.506729,6.91432061 311.784993,6.91432061 L318.05793,6.91432061 L317.40185,9.20688175 L311.784993,9.20688175 C311.506729,9.20688175 311.278841,9.46254433 311.278841,9.7770213 L311.278841,10.282345 C311.278841,10.5944214 311.506729,10.8524845 311.784993,10.8524845 L316.929281,10.8524845 L316.219228,13.3166877 L311.784993,13.3166877 C311.506729,13.3166877 311.278841,13.5687494 311.278841,13.8808258 L311.278841,14.3897503 C311.278841,14.7018267 311.506729,14.9550887 311.784993,14.9550887 L315.740661,14.9550887 L314.728356,18.4743501 C313.548132,22.6513725 311.139709,23.6944278 311.139709,23.6944278 L311.145706,25.8417534 C311.145706,25.8417534 313.176314,25.488867 314.578429,24.3701932 C315.553553,23.5900022 316.258808,22.4425213 316.80814,21.3382511 C317.13678,20.6840909 317.394654,19.9903211 317.624941,19.2941507 L331.199911,19.2941507 L331.199911,22.8998333 C331.199911,23.94889 331.040389,24.3881976 329.52433,24.3881976 L326.684117,24.3881976 C326.440636,24.3881976 326.237935,24.6462607 326.237935,24.9559365 L326.215146,25.2740144 C326.215146,25.5860908 326.429841,25.8861642 326.67812,25.8861642 L331.115952,25.8861642 C333.104581,25.8861642 334.512693,24.7638895 334.512693,22.0212182 L334.512693,19.2941507 L334.945682,19.2941507 C335.223946,19.2941507 335.451835,19.0348873 335.451835,18.7276121 L335.451835,18.2138863 C335.451835,17.9030102 335.223946,17.6533491 334.945682,17.6533491 L334.512693,17.6533491 L334.512693,14.9550887 L334.945682,14.9550887 C335.223946,14.9550887 335.451835,14.7018267 335.451835,14.3897503 L335.451835,13.8808258 C335.451835,13.5687494 335.223946,13.3166877 334.945682,13.3166877 L319.42886,13.3166877 C319.672341,12.4908856 319.913424,11.6710849 320.161702,10.8524845 L334.945682,10.8524845 C335.223946,10.8524845 335.451835,10.5944214 335.451835,10.282345 L335.451835,9.7770213 C335.451835,9.46254433 335.223946,9.20688175 334.945682,9.20688175 L320.654662,9.20688175 C320.71943,8.9836271 320.784198,8.76157275 320.852565,8.53591752 C321.016885,7.9993862 321.174008,7.45325252 321.339527,6.91432061 L321.339527,6.91432061 Z M325.506292,21.4342746 L319.858251,21.4342746 C319.579986,21.4342746 319.353297,21.6863363 319.353297,21.9972124 L319.353297,22.5085375 C319.353297,22.8218142 319.579986,23.0774768 319.858251,23.0774768 L325.506292,23.0774768 C325.782157,23.0774768 326.013644,22.8218142 326.013644,22.5085375 L326.013644,21.9972124 C326.013644,21.6863363 325.782157,21.4342746 325.506292,21.4342746 L325.506292,21.4342746 Z M472.392915,12.9015061 L472.392915,14.8843914 L456.650603,14.8843914 C456.650603,13.8293332 456.655401,13.0959537 456.655401,12.9531187 C456.655401,11.5655791 457.758862,11.6712049 457.758862,11.6712049 L471.432184,11.6712049 C472.683173,11.6712049 472.392915,12.9015061 472.392915,12.9015061 M456.645805,16.5780059 L472.392915,16.5780059 L472.392915,20.0912658 L456.638609,20.0912658 C456.638609,18.8945729 456.638609,17.6750745 456.645805,16.5780059 M475.681708,5.07559056 L462.00119,5.07559056 C462.620087,3.89450147 462.935533,3.06269788 462.935533,3.06269788 L459.15498,3.06269788 C458.768768,3.80688003 458.386155,4.46344073 457.999944,5.07559056 L451.911717,5.07559056 C451.632254,5.07559056 451.400767,5.33965519 451.400767,5.66253422 L451.400767,6.1894632 C451.400767,6.50754105 451.632254,6.77400627 451.911717,6.77400627 L456.832914,6.77400627 C453.811589,10.7013675 451.211259,10.9438269 451.211259,10.9438269 L451.211259,13.4224336 C452.017266,13.3756221 452.759703,13.2135824 453.476953,13.0011304 L453.476953,17.092932 L453.476953,25.8298704 L456.625415,25.8370722 C456.625415,25.8370722 456.629013,24.0390321 456.633811,21.7860807 L472.388117,21.7860807 L472.383319,23.2288338 C472.383319,24.0474342 471.033978,24.3283029 469.511922,24.3283029 L468.094214,24.3283029 C467.843536,24.3283029 467.644434,24.5203499 467.644434,24.7640096 L467.644434,25.3617559 C467.644434,25.6054155 467.843536,25.8022637 468.094214,25.8022637 L472.009102,25.8022637 C474.383942,25.8022637 475.674512,25.0544807 475.674512,22.0837535 C475.674512,22.0837535 475.667315,11.973679 475.667315,11.8584508 C475.667315,9.89356982 473.189326,10.0952192 473.189326,10.0952192 L458.304595,10.0952192 C459.405657,9.03535977 460.298022,7.86147244 461.003277,6.77400627 L475.681708,6.77400627 C475.958773,6.77400627 476.183063,6.50754105 476.183063,6.1894632 L476.183063,5.66253422 C476.183063,5.33965519 475.958773,5.07559056 475.681708,5.07559056 M493.382663,12.5451388 C492.251616,12.5451388 492.38715,11.6473191 492.38715,11.3616492 L492.38715,9.86368251 L501.001343,9.86368251 L501.001343,11.4288656 C501.001343,11.7157358 501.099695,12.5451388 499.927867,12.5451388 L493.382663,12.5451388 Z M493.382663,5.29296377 L499.927867,5.29296377 C501.082903,5.29296377 501.001343,6.25799997 501.001343,6.54487019 L501.001343,8.17847003 L492.38715,8.17847003 L492.38715,6.47045197 C492.38715,6.18718264 492.274405,5.29296377 493.382663,5.29296377 L493.382663,5.29296377 Z M502.882024,23.9407281 C501.663419,23.1737403 500.797442,21.3708991 500.173747,20.1177923 C500.131767,20.0253697 500.068198,19.8933374 499.996233,19.7396998 L503.835558,19.7396998 C504.109025,19.7396998 504.336914,19.4816366 504.336914,19.1635588 L504.336914,18.6378301 C504.336914,18.3149511 504.109025,18.0556876 503.835558,18.0556876 L499.213016,18.0556876 C498.646892,16.8097827 497.988414,15.3622284 497.66937,14.666058 L502.211552,14.666058 C502.877226,14.666058 504.634368,14.9817352 504.634368,12.1634454 L504.634368,5.56663075 C504.634368,3.22725816 502.798065,3.06281791 502.211552,3.06281791 L491.175741,3.06281791 C490.452494,3.06281791 488.760121,3.33648489 488.760121,5.56663075 L488.760121,12.1634454 C488.760121,12.2498666 488.779312,12.308681 488.779312,12.3903009 L488.779312,21.8666204 C488.779312,24.6861105 490.187424,25.8371922 492.178452,25.8371922 L496.612686,25.8371922 C496.860965,25.8371922 497.076859,25.5251159 497.076859,25.2058377 L497.05527,24.8805581 C497.05527,24.5648808 496.852569,24.2948147 496.607888,24.2948147 L493.764077,24.2948147 C492.251616,24.2948147 492.092094,23.8399034 492.092094,22.7632398 L492.092094,14.666058 L493.911605,14.666058 C494.525705,15.9143635 495.154198,17.1614687 495.845061,18.367764 C496.451964,19.4444275 497.09605,20.4970852 497.725742,21.5533437 C498.318253,22.547187 499.099072,23.3753897 499.773142,24.3092182 C500.853815,25.8287902 502.516203,25.8083852 504.186987,25.8083852 C504.413676,25.8083852 504.601984,25.6571482 504.669151,25.4242912 C504.673949,25.3738788 504.695538,25.3306683 504.695538,25.2838568 L504.695538,24.8133416 C504.695538,24.1195718 503.354593,24.2360003 502.882024,23.9407281 L502.882024,23.9407281 Z M486.286929,3.10002702 L481.491671,3.10002702 C478.876948,3.10002702 479.144417,5.3241714 479.144417,5.3241714 L479.144417,12.2018548 L479.144417,12.2330624 L479.144417,24.8133416 C479.144417,25.3822809 479.498244,25.8371922 479.933632,25.8371922 L481.791524,25.8371922 C482.224513,25.8371922 482.57834,25.3822809 482.57834,24.8133416 C482.57834,24.8133416 482.585537,6.40803669 482.585537,5.61824338 C482.585537,4.83445154 483.170851,4.94487857 483.170851,4.94487857 L484.180758,4.94487857 C484.927993,4.94487857 484.76847,5.61824338 484.76847,5.61824338 L484.76847,12.0182099 C484.76847,12.7815967 483.462308,12.8332093 483.462308,13.1692916 C483.462308,13.4633636 483.470704,13.391346 483.470704,13.6230027 C483.470704,13.9686873 484.794858,14.1703366 484.794858,14.645653 L484.794858,20.7971586 C484.794858,22.5855964 483.487496,22.3539397 483.487496,22.3539397 L483.487496,23.6694617 L485.809562,23.6694617 C487.886947,23.6694617 487.94332,21.7393892 487.94332,21.7393892 L487.94332,14.433201 C487.94332,13.5533856 487.358006,13.2785183 486.970595,13.1968984 C486.781088,13.1548881 486.63356,13.1608895 486.63356,13.1608895 C486.63356,13.1608895 487.994895,13.1356834 487.994895,11.8861775 L487.994895,5.59183692 C487.994895,2.80475474 486.286929,3.10002702 486.286929,3.10002702 L486.286929,3.10002702 Z M559.633867,3.13627589 C559.560703,3.0954659 558.893829,3.06185767 558.832659,3.06185767 L558.820664,3.06665885 L536.407211,3.06665885 C536.132545,3.06665885 535.903457,3.32112113 535.903457,3.64400016 L535.903457,4.16132678 C535.903457,4.47820434 536.132545,4.73866809 536.407211,4.73866809 L555.958862,4.73866809 L555.94207,4.74466956 C555.94207,4.74466956 555.969657,4.74106868 555.98405,4.73866809 L556.365463,4.73866809 C557.544488,4.73866809 557.633244,5.15877092 557.633244,6.25343885 C557.633244,8.04907836 557.689617,22.6422502 557.689617,22.6422502 C557.689617,23.8089358 557.510904,24.2782507 555.996044,24.2782507 L553.149834,24.2782507 C552.896758,24.2782507 552.695256,24.5651209 552.695256,24.9120058 L552.695256,25.1652678 C552.695256,25.5073515 552.896758,25.7906208 553.149834,25.7906208 L557.586467,25.7906208 C559.577495,25.7906208 561,25.1160557 561,22.6518526 L561,4.89830717 C561,3.6944125 560.289947,3.25990615 559.633867,3.13627589 L559.633867,3.13627589 Z M551.516232,21.1670892 L540.644741,21.1670892 C539.499301,21.1670892 539.64443,20.2764712 539.64443,19.9908013 L539.64443,14.8163347 C539.64443,14.5306648 539.529286,13.6460483 540.644741,13.6460483 L551.516232,13.6460483 C552.668869,13.6460483 552.594505,14.5990816 552.594505,14.8871521 L552.594505,20.0664198 C552.594505,20.3484888 552.683262,21.1670892 551.516232,21.1670892 L551.516232,21.1670892 Z M556.234727,20.6377596 L556.234727,14.028942 C556.234727,11.7135753 554.396025,11.5467345 553.805913,11.5467345 L538.425825,11.5467345 C537.697781,11.5467345 535.99941,11.8216017 535.99941,14.028942 L535.99941,20.6377596 C535.99941,23.3528242 537.722968,23.1163663 538.425825,23.1163663 L553.805913,23.1163663 C554.470389,23.1163663 556.234727,23.4320435 556.234727,20.6377596 L556.234727,20.6377596 Z M555.674601,9.26857685 C555.958862,9.26857685 556.178355,9.00931339 556.178355,8.69603671 L556.178355,8.17871009 C556.178355,7.86183253 555.958862,7.59896819 555.674601,7.59896819 L536.570331,7.59896819 C536.294466,7.59896819 536.065378,7.86183253 536.065378,8.17871009 L536.065378,8.69603671 C536.065378,9.00931339 536.294466,9.26857685 536.570331,9.26857685 L555.674601,9.26857685 Z M445.356919,12.599032 C445.33293,12.5918303 445.305344,12.5810276 445.282555,12.5810276 L430.396625,12.5810276 C430.118361,12.5810276 429.896469,12.8150849 429.896469,13.1091569 L429.896469,13.5880741 C429.896469,13.873744 430.118361,14.1162034 430.396625,14.1162034 L433.962483,14.1162034 C433.930099,14.8243767 433.704609,17.9607444 432.59875,20.5929886 C431.352558,23.5733181 429.870082,23.7557628 429.870082,23.7557628 L429.884475,25.9006878 C436.892652,25.2333244 437.270468,15.4197224 437.290858,14.1162034 L442.908914,14.1162034 C444.450161,14.2338322 444.427373,15.7642067 444.427373,15.7642067 L444.427373,22.6562937 C444.427373,23.7557628 444.199484,24.2190762 442.690621,24.2190762 L439.851607,24.2190762 C439.598531,24.2190762 439.397029,24.4807402 439.397029,24.8132216 L439.379038,25.1433024 C439.379038,25.4661814 439.586537,25.7794581 439.842012,25.7794581 L444.270249,25.7794581 C446.263676,25.7794581 447.676586,25.1481036 447.676586,22.2794014 L447.676586,19.3098746 L447.676586,15.2852895 C447.676586,13.0923528 446.185714,12.6698494 445.356919,12.599032 L445.356919,12.599032 Z M444.501736,4.83433151 C443.557797,3.21753578 441.837837,3.06269788 441.837837,3.06269788 L433.824551,3.06269788 C432.728286,3.06269788 432.887808,3.93891234 432.887808,3.93891234 L432.887808,4.48504602 C432.887808,5.53410279 433.741791,5.41287312 433.741791,5.41287312 C433.741791,5.41287312 437.661477,5.3576596 438.882481,5.3576596 C440.109481,5.3576596 441.734688,5.44408075 442.95809,8.17835 C443.272337,8.87572069 443.683736,9.65831224 444.204282,10.2236506 C444.963511,11.0434513 448.269096,10.6905649 448.269096,10.7325752 L448.269096,9.01975595 C445.731136,9.01975595 445.703549,6.87243036 444.501736,4.83433151 L444.501736,4.83433151 Z M427.003482,3.06269788 C425.571382,9.65471136 423.194143,10.2584591 423.194143,10.2584591 L423.194143,12.1393195 C424.069715,12.0973092 424.825346,11.8788557 425.49342,11.5583773 L425.49342,24.9044439 C425.49342,25.4673817 425.854443,25.9378969 426.281435,25.9378969 L428.124934,25.9378969 C428.553125,25.9378969 428.910551,25.4673817 428.910551,24.9044439 L428.910551,7.82306304 C429.993622,5.47888927 430.179531,3.06269788 430.179531,3.06269788 L427.003482,3.06269788 Z M435.958309,6.11264439 L432.593952,6.11264439 C432.593952,8.93693568 429.8341,9.14218591 429.8341,9.14218591 L429.8341,10.7661834 L432.254518,10.7661834 C435.227865,10.7661834 435.958309,6.11264439 435.958309,6.11264439 L435.958309,6.11264439 Z M307.518557,24.3230216 C306.297553,23.9737361 305.986905,23.6076465 303.025551,18.2951462 C300.34606,13.5011728 298.122346,8.85483558 297.667768,7.88979938 L299.902277,3.06221776 L296.143313,3.06221776 C296.143313,3.06221776 286.470037,23.3519839 285.939896,23.7312768 C285.334192,24.148979 284.625338,24.341026 283.90329,24.341026 C283.631023,24.341026 283.397138,24.5690818 283.397138,24.84755 L283.397138,25.3000608 C283.397138,25.5797292 283.631023,25.807785 283.90329,25.807785 C285.203455,25.807785 286.56599,25.9686244 287.786994,25.4200901 C288.673361,25.0203923 289.347432,24.3650319 289.848787,23.5368292 C290.298567,22.8034497 290.712365,22.036462 291.105773,21.2694742 C292.855718,17.8078269 295.566394,12.3440896 296.156506,11.1449961 C296.895345,12.5181322 301.778161,21.5215359 302.65973,23.0963214 C303.952699,25.3984849 305.732629,25.8293903 307.254686,25.8293903 C307.254686,25.8293903 307.947947,25.8293903 308.130258,25.3564746 C308.130258,25.3564746 308.443305,24.5906871 307.518557,24.3230216 M276.323232,5.43483849 L269.493768,5.43483849 L269.493768,4.03409564 C269.493768,3.5011652 269.041589,3.06185767 268.498254,3.06185767 L266.852658,3.06185767 C266.309323,3.06185767 265.86434,3.5011652 265.86434,3.84324893 L265.86434,5.43483849 L258.785398,5.43483849 C255.816848,5.43483849 254.660612,6.40347558 254.660612,8.06708277 L254.660612,9.09933543 L257.967397,9.09933543 L257.967397,8.080286 C257.967397,7.61937319 258.491541,7.00122188 261.343748,7.00122188 L273.767281,7.00122188 C276.61469,7.00122188 277.132837,7.61937319 277.132837,8.080286 L277.132837,9.09933543 L280.448018,9.09933543 L280.448018,8.06708277 C280.448018,6.40347558 279.290583,5.43483849 276.323232,5.43483849 M260.871179,16.9576589 L260.871179,14.0949582 L274.296222,14.0949582 L274.296222,16.9576589 C274.296222,17.3645584 271.23052,19.2598223 267.579503,21.0242542 C263.932084,19.2598223 260.871179,17.3645584 260.871179,16.9576589 M279.885493,24.3610709 L277.666576,24.3610709 C276.059361,24.3610709 273.674926,23.6312923 271.202933,22.6374491 C274.847953,21.1238786 277.846489,19.1698003 277.846489,16.9300521 L277.846489,14.0949582 L279.682792,14.0949582 C279.949062,14.0949582 280.17695,13.8500982 280.17695,13.5452236 L280.17695,13.0326982 C280.17695,12.7302241 279.949062,12.4829636 279.676795,12.4829636 L277.846489,12.4829636 L277.846489,10.4532668 C277.846489,9.91793579 277.401506,9.47862826 276.86057,9.47862826 L275.354106,9.47862826 C274.815569,9.47862826 274.296222,9.8579211 274.296222,10.3920518 L274.296222,12.4829636 L260.871179,12.4829636 L260.871179,10.3920518 C260.871179,9.8579211 260.345836,9.47862826 259.806099,9.47862826 L258.303233,9.47862826 C257.761098,9.47862826 257.314916,9.91793579 257.314916,10.4532668 L257.314916,12.4829636 L255.616545,12.4829636 C255.344278,12.4829636 255.123586,12.7302241 255.123586,13.0326982 L255.127184,13.5452236 C255.127184,13.8500982 255.349076,14.0949582 255.616545,14.0949582 L257.314916,14.0949582 L257.314916,16.9300521 C257.314916,19.1698003 260.313451,21.1238786 263.962069,22.6374491 C261.488877,23.6312923 259.104442,24.3610709 257.496027,24.3610709 L255.275912,24.3610709 C255.008442,24.3610709 254.820134,24.6611444 254.820134,24.9840234 L254.826131,25.3057021 C254.826131,25.6285812 255.049222,25.8866443 255.322689,25.8866443 L258.667855,25.8866443 C259.860073,25.8866443 263.667014,25.1760704 267.579503,23.9457693 C271.494391,25.1760704 275.301332,25.8866443 276.493549,25.8866443 L279.838716,25.8866443 C280.114581,25.8866443 280.336472,25.6285812 280.336472,25.3057021 L280.336472,24.9840234 C280.336472,24.6611444 280.15656,24.3610709 279.885493,24.3610709 M360.72853,17.3322705 L357.353378,17.3322705 C357.403754,17.7655766 357.789965,20.6438811 358.568385,22.3627018 C359.987292,25.4690621 363.41042,25.4270667 363.41042,25.4270667 L363.41042,23.54019 C360.686551,22.3843071 360.721334,17.7943837 360.72853,17.3322705 L360.72853,17.3322705 Z M350.378785,9.86764348 C349.209356,9.86764348 349.355684,8.89900639 349.355684,8.59173118 L349.355684,6.84170284 C349.355684,6.53202704 349.234544,5.55978907 350.378785,5.55978907 L358.31291,5.55978907 C359.496732,5.55978907 359.413972,6.60284438 359.413972,6.91372047 L359.413972,8.66734969 C359.413972,8.97702549 359.512324,9.86764348 358.31291,9.86764348 L350.378785,9.86764348 Z M362.492868,15.364989 L362.492868,14.8476624 C362.492868,14.5235831 362.268578,14.2643196 361.993912,14.2643196 L356.099991,14.2643196 L356.099991,12.026972 L360.517433,12.026972 C361.181909,12.026972 362.947446,12.3462502 362.947446,9.52555975 L362.947446,5.93668132 C362.947446,3.60210991 361.106345,3.43526907 360.517433,3.43526907 L348.240229,3.43526907 C347.513384,3.43526907 345.816213,3.71013635 345.816213,5.93668132 L345.816213,9.52555975 C345.816213,12.2634299 347.544569,12.026972 348.240229,12.026972 L352.696053,12.026972 L352.696053,14.2643196 L346.034506,14.2643196 C345.755043,14.2643196 345.529553,14.5235831 345.529553,14.8476624 L345.529553,15.364989 C345.529553,15.6878681 345.755043,15.9519327 346.034506,15.9519327 L352.696053,15.9519327 L352.696053,24.8197032 C352.696053,25.3922433 353.04988,25.8579573 353.47927,25.8579573 L355.319172,25.8579573 C355.747363,25.8579573 356.099991,25.3922433 356.099991,24.8197032 L356.099991,15.9519327 L361.993912,15.9519327 C362.268578,15.9519327 362.492868,15.6878681 362.492868,15.364989 L362.492868,15.364989 Z M345.376028,23.54019 L345.376028,25.427081 C345.376028,25.427081 348.802754,25.4690621 350.219263,22.3627018 C351.00248,20.6438811 351.387492,17.7655766 351.442665,17.3322705 L348.056719,17.3322705 C348.067513,17.7943837 348.104695,22.3843071 345.376028,23.54019 L345.376028,23.54019 Z M342.211973,3.0619777 C340.643139,9.51835799 338.403833,10.3093516 338.403833,10.3093516 L338.403833,12.2070161 C339.278206,12.2022149 340.035036,11.9729588 340.711506,11.6272742 L340.711506,24.7188785 C340.711506,25.2986204 341.065333,25.7691356 341.492325,25.7691356 L343.332226,25.7691356 C343.761616,25.7691356 344.111845,25.2986204 344.111845,24.7188785 L344.111845,7.57508234 C345.108559,5.31132826 345.39162,3.0619777 345.39162,3.0619777 L342.211973,3.0619777 Z M380.452057,6.44056466 C380.982198,5.19345941 381.990906,5.12744325 381.990906,5.12744325 L385.184946,5.12744325 C385.184946,5.12744325 386.192454,5.19345941 386.720196,6.44056466 C386.720196,6.44056466 388.436558,10.4231394 391.683372,10.486755 L391.683372,8.71872227 C391.343938,8.55548231 389.590394,7.5520367 388.579288,4.35205347 C388.579288,4.35205347 388.183481,3.07133999 386.663824,3.07133999 C386.120489,3.07133999 384.267394,3.07374058 382.993616,3.07494088 C381.993305,3.07374058 381.043368,3.07133999 380.50723,3.07133999 C378.991171,3.07133999 378.585769,4.35205347 378.585769,4.35205347 C377.57946,7.5520367 375.824717,8.55548231 375.493679,8.71872227 L375.493679,10.486755 C378.730898,10.4231394 380.452057,6.44056466 380.452057,6.44056466 M391.246785,24.1593016 L375.895483,24.1593016 C375.620817,24.1593016 375.394128,24.4137638 375.394128,24.7306414 L375.394128,25.2443671 C375.394128,25.562445 375.620817,25.8193079 375.895483,25.8193079 L391.246785,25.8193079 C391.525049,25.8193079 391.750539,25.562445 391.750539,25.2443671 L391.750539,24.7306414 C391.750539,24.4137638 391.525049,24.1593016 391.246785,24.1593016 M373.509848,3.07133999 L368.712191,3.07133999 C366.104664,3.07133999 366.369735,5.29548438 366.369735,5.29548438 L366.369735,12.1767687 C366.369735,12.1935728 366.366137,12.2031751 366.366137,12.2151781 L366.366137,24.8134617 C366.366137,25.3727986 366.722363,25.8301105 367.156551,25.8301105 L369.012044,25.8301105 C369.443834,25.8301105 369.803658,25.3727986 369.803658,24.8134617 C369.803658,24.8134617 369.804857,6.38175026 369.804857,5.59195695 C369.804857,4.80576452 370.39377,4.91499125 370.39377,4.91499125 L371.413272,4.91499125 C372.15331,4.91499125 371.996187,5.59195695 371.996187,5.59195695 L371.996187,11.9967246 C371.996187,12.7649126 370.688826,12.8129244 370.688826,13.1478063 C370.688826,13.4430786 370.697221,13.3698607 370.697221,13.6051183 C370.697221,13.9496026 372.018976,14.1560531 372.018976,14.6289689 L372.018976,20.7900769 C372.018976,22.576114 370.522107,22.3444573 370.522107,22.3444573 L370.522107,23.6623799 L373.031281,23.6623799 C375.111066,23.6623799 375.16384,21.7323075 375.16384,21.7323075 L375.16384,14.4177172 C375.16384,13.5343009 374.584523,13.2630345 374.194713,13.1730125 C374.002807,13.1358034 373.860077,13.1418049 373.860077,13.1418049 C373.860077,13.1418049 375.213016,13.1165987 375.213016,11.8670929 L375.213016,5.56675078 C375.213016,2.77606772 373.509848,3.07133999 373.509848,3.07133999 M390.882163,18.8323977 C390.882163,17.1735917 390.861773,14.523343 390.861773,14.523343 C390.861773,14.1296467 390.507946,13.501893 390.062963,13.501893 L388.696831,13.501893 C388.24705,13.501893 387.87883,14.0312226 387.87883,14.4213181 L387.87883,18.7219707 C387.87883,20.8644951 387.486622,21.5810705 386.897709,21.5810705 L386.897709,23.0250239 C388.629663,23.0250239 390.882163,23.4283226 390.882163,18.8323977 M383.884781,13.501893 L382.486264,13.501893 C382.032885,13.501893 381.680257,14.1296467 381.680257,14.523343 C381.680257,14.523343 381.662266,17.1735917 381.662266,18.8323977 C381.662266,23.4271223 383.909968,23.0250239 385.645521,23.0250239 L385.645521,21.5810705 C385.056608,21.5810705 384.712377,20.8644951 384.712377,18.7219707 L384.712377,14.4213181 C384.712377,14.0312226 384.335761,13.501893 383.884781,13.501893 M390.84738,11.6378368 L390.84738,11.1169093 C390.84738,10.8060332 390.614694,10.54797 390.338829,10.54797 L376.774653,10.54797 C376.497589,10.54797 376.272099,10.8060332 376.272099,11.1169093 L376.272099,11.6378368 C376.272099,11.9511134 376.497589,12.2127775 376.774653,12.2127775 L390.338829,12.2127775 C390.614694,12.2127775 390.84738,11.9511134 390.84738,11.6378368 M378.693716,13.501893 L377.288003,13.501893 C376.840621,13.501893 376.480797,14.1296467 376.480797,14.523343 C376.480797,14.523343 376.464005,17.1735917 376.464005,18.8323977 C376.464005,23.4283226 378.716505,23.0250239 380.44726,23.0250239 L380.44726,21.5810705 C379.863145,21.5810705 379.511717,20.8644951 379.511717,18.7219707 L379.511717,14.4213181 C379.511717,14.0312226 379.139898,13.501893 378.693716,13.501893 M410.77121,9.04976329 L410.77121,5.71174627 C410.77121,5.71174627 410.701644,4.63988392 412.092964,4.63988392 L413.253997,4.63988392 L413.540657,4.63988392 L414.70289,4.63988392 C416.09421,4.63988392 416.028242,5.71174627 416.028242,5.71174627 L416.028242,9.04976329 C416.028242,11.4251447 420.180614,11.3219194 420.180614,11.3219194 L420.180614,10.1360292 C418.862458,10.1360292 418.941619,8.80370307 418.941619,8.80370307 C418.941619,8.80370307 418.900839,6.70198864 418.900839,4.72390448 C418.900839,3.13231492 417.101718,3.11190992 417.101718,3.11190992 L413.540657,3.11190992 L413.253997,3.11190992 L409.697734,3.11190992 C409.697734,3.11190992 407.897413,3.13231492 407.897413,4.72390448 C407.897413,6.70198864 407.853035,8.80370307 407.853035,8.80370307 C407.853035,8.80370307 407.936994,10.1360292 406.618838,10.1360292 L406.618838,11.3219194 C406.618838,11.3219194 410.77121,11.4251447 410.77121,9.04976329 L410.77121,9.04976329 Z M402.660771,5.96140738 L402.660771,10.1144239 C402.633184,10.1096227 402.607997,10.0952192 402.576812,10.0952192 L399.114103,10.0952192 C399.072123,10.0952192 399.030144,10.1144239 398.989364,10.1240262 C398.992962,8.08832797 398.995361,6.39711402 398.995361,6.02502295 C398.995361,4.78992064 400.10362,4.84033298 400.10362,4.84033298 L401.701239,4.84033298 C402.784311,4.84033298 402.660771,5.96140738 402.660771,5.96140738 L402.660771,5.96140738 Z M402.660771,16.819265 C402.633184,16.8180647 402.607997,16.8024609 402.576812,16.8024609 L399.114103,16.8024609 C399.067326,16.8024609 399.01815,16.8180647 398.97617,16.8372694 C398.97617,15.372911 398.978569,13.428435 398.984566,11.577582 C399.030144,11.5907852 399.072123,11.6075894 399.114103,11.6075894 L402.576812,11.6075894 C402.607997,11.6075894 402.633184,11.5931858 402.660771,11.5895849 L402.660771,16.819265 Z M403.457182,3.06989964 L397.902695,3.06989964 C395.747347,3.06989964 395.820512,5.75135596 395.820512,5.75135596 L395.820512,13.2207842 L395.820512,19.4551101 C395.820512,22.5854763 395.293969,23.7089513 394.701458,23.7089513 L394.701458,25.8190678 C397.100287,25.8190678 398.971373,25.0916898 398.971373,18.4912742 L398.971373,18.2812228 C399.013352,18.294426 399.067326,18.3112302 399.114103,18.3112302 L402.576812,18.3112302 C402.607997,18.3112302 402.633184,18.2992272 402.660771,18.294426 L402.660771,19.7395798 L402.653574,22.7283113 C402.653574,23.9106007 402.534832,24.3163 401.027169,24.3163 L399.603464,24.3163 C399.359983,24.3163 399.156082,24.6043705 399.156082,24.9512554 L399.156082,25.2093186 C399.156082,25.5622049 399.359983,25.8466746 399.603464,25.8466746 L402.611595,25.8466746 C404.60742,25.8466746 405.947166,24.851631 405.947166,21.7692766 C405.947166,21.7692766 405.93877,5.79576683 405.93877,5.628926 C405.93877,2.78182913 403.457182,3.06989964 403.457182,3.06989964 L403.457182,3.06989964 Z M419.733233,23.981418 L419.297846,23.981418 C418.731722,23.9106007 417.537105,23.9214033 416.071421,23.0847986 C415.891509,22.988775 415.728389,22.8771477 415.552075,22.7691213 C415.939486,22.4522437 416.304108,22.1221629 416.630348,21.7392692 C418.970405,18.9569882 419.952726,15.7173953 419.952726,15.7173953 C420.554832,13.2267857 419.177904,12.7370658 418.148807,12.6998567 L418.128417,12.6902544 L407.26892,12.6902544 C406.999052,12.6902544 406.77836,12.974724 406.77836,13.3240095 L406.77836,13.8965496 C406.77836,14.2410339 406.999052,14.5267038 407.26892,14.5267038 L416.416853,14.5267038 L416.392864,14.5795168 C416.192562,17.2129613 414.924781,19.4251028 413.300774,21.0334965 C410.641673,18.5536895 409.593385,15.8314232 409.593385,15.8314232 L406.958272,15.8314232 C406.958272,15.8314232 407.694712,18.6857218 410.632078,21.8040851 C410.891151,22.0705503 411.145427,22.3166105 411.412896,22.5530684 C410.432975,23.1748206 409.433863,23.6009249 408.521109,23.7953725 C407.172967,24.0774415 406.826336,24.0774415 406.826336,24.0774415 C406.549272,24.0774415 406.365761,24.4219258 406.365761,24.7880154 L406.371758,25.1553053 C406.371758,25.5225952 406.597248,25.8190678 406.85992,25.8190678 C406.85992,25.8190678 410.368207,25.7278455 413.573041,24.0738406 C416.686721,25.7998631 419.740429,25.8190678 419.740429,25.8190678 L419.819591,25.8190678 L419.819591,25.7998631 C420.058274,25.7482505 420.244183,25.4973891 420.244183,25.1853127 L420.244183,24.6175737 C420.244183,24.2670879 420.015095,23.981418 419.733233,23.981418 L419.733233,23.981418 Z M531.670244,17.0392788 L527.634215,17.0548827 L529.008744,21.8824643 C529.470519,23.4656518 528.447418,23.8065352 527.231212,23.8065352 L513.295218,23.8065352 C510.935971,23.8065352 511.825936,21.9400784 511.825936,21.9400784 L517.34564,10.3920518 L513.327603,10.3920518 C513.327603,10.3920518 511.486502,13.5884342 508.654685,19.6475172 C505.809674,25.7017991 511.767165,25.7834191 511.767165,25.7834191 C511.767165,25.7834191 531.152097,25.7906208 531.281634,25.7834191 C532.638172,25.7354073 533.356621,24.5303124 532.879254,22.5942385 C532.818084,22.3637821 531.691834,17.0392788 531.670244,17.0392788 M528.711289,4.77467691 C527.946063,3.10386796 526.052188,3.06185767 526.052188,3.06185767 L512.312898,3.06185767 C511.22383,3.06185767 511.383352,3.90446391 511.383352,3.90446391 L511.383352,4.43619406 C511.383352,5.44444084 512.231338,5.33401381 512.231338,5.33401381 C512.231338,5.33401381 523.288738,5.26319648 524.518137,5.27760001 C526.912168,5.30400647 526.296869,8.292738 527.558652,10.9129793 C528.907993,13.7456727 532.953617,13.3375728 532.953617,13.3375728 L532.953617,11.6283544 C529.472917,11.9104235 529.789563,7.11284921 528.711289,4.77467691 M514.13121,6.17541976 L510.795639,6.17541976 C510.046005,10.3212345 507.647177,11.7207771 507.647177,11.7207771 L507.647177,13.5764313 C513.030148,13.5764313 514.13121,6.17541976 514.13121,6.17541976" id="形状结合"></path>
                <path d="M267.044276,54.8447284 L263.448472,54.8447284 C263.957721,55.3808534 264.532363,55.7886681 265.170763,56.0689896 C265.883548,55.7625156 266.510504,55.3555183 267.044276,54.8447284 L267.044276,54.8447284 Z M262.759392,59.7017271 L267.389224,59.7017271 L267.389224,58.4014604 L262.759392,58.4014604 L262.759392,59.7017271 Z M262.07113,57.7901471 L268.078304,57.7901471 L268.078304,60.7347486 L267.389224,60.7347486 L267.389224,60.3138577 L262.759392,60.3138577 L262.759392,60.7347486 L262.07113,60.7347486 L262.07113,57.7901471 Z M264.55852,51.7464813 L265.246782,51.6312471 C265.373482,52.142037 265.463397,52.5245165 265.514894,52.7795028 L269.225953,52.7795028 L269.225953,54.5006603 L268.537691,54.5006603 L268.537691,53.3916334 L261.612561,53.3916334 L261.612561,54.5006603 L260.923481,54.5006603 L260.923481,52.7795028 L264.827449,52.7795028 C264.799657,52.7280152 264.775135,52.6389334 264.749795,52.5114403 C264.673775,52.1804484 264.6092,51.9254621 264.55852,51.7464813 L264.55852,51.7464813 Z M263.600511,53.4292275 L264.251172,53.7357014 C264.200493,53.7863718 264.123656,53.8631946 264.022297,53.9645353 C263.946277,54.0920284 263.882519,54.1811102 263.831022,54.2325978 L268.001467,54.2325978 L268.001467,54.8823225 C267.413747,55.4944531 266.73938,55.9913495 265.974281,56.3746462 C266.789242,56.655785 268.014546,56.8339485 269.646921,56.909954 C269.467908,57.2670983 269.352652,57.5098256 269.301973,57.6365015 C267.413747,57.4836732 266.02496,57.2033517 265.131527,56.7955371 C264.111395,57.2295042 262.657215,57.5735722 260.770624,57.8277413 C260.719945,57.650395 260.604689,57.4207439 260.426493,57.1396051 C262.134888,56.9352892 263.435393,56.6803029 264.327192,56.3746462 C263.817943,56.0689896 263.334034,55.6856928 262.87383,55.2263906 C262.466758,55.6096873 261.994293,55.9790905 261.458887,56.3362348 C261.30603,56.1834065 261.140095,56.0175019 260.962716,55.8385212 C262.084208,55.1503851 262.964563,54.347832 263.600511,53.4292275 L263.600511,53.4292275 Z M274.825892,52.2435412 L275.552573,52.2435412 L273.334112,60.1227814 L272.607431,60.1227814 L274.825892,52.2435412 Z M280.311556,53.7356197 L280.311556,55.7624339 L280.311556,56.0304964 L286.126638,56.0304964 L286.126638,53.7356197 L280.311556,53.7356197 Z M282.377161,51.9376393 L283.066241,51.5935713 C283.116103,51.694912 283.219097,51.8477403 283.371954,52.0520563 C283.573855,52.3838654 283.729164,52.6388517 283.83134,52.8170152 L283.334353,53.0850777 L286.853319,53.0850777 L286.853319,57.1779348 L286.126638,57.1779348 L286.126638,56.7186326 L280.273138,56.7186326 C280.221641,58.3768608 279.787594,59.7269806 278.970998,60.7738955 C278.920318,60.7224079 278.818141,60.6333261 278.665285,60.505833 C278.537768,60.3783398 278.436409,60.2892581 278.359572,60.2377705 C279.226848,59.294648 279.623294,57.8031416 279.546457,55.7624339 L279.546457,53.0850777 L283.066241,53.0850777 C283.013926,53.0082549 282.937907,52.8807618 282.83573,52.7025983 C282.657534,52.3716064 282.504678,52.1158028 282.377161,51.9376393 L282.377161,51.9376393 Z M292.796981,52.2435412 L293.524479,52.2435412 L291.3052,60.1227814 L290.578519,60.1227814 L292.796981,52.2435412 Z M304.326685,56.1831613 L302.18506,56.1831613 C302.389414,57.0502782 302.732728,57.8152371 303.218272,58.4788553 C303.753678,57.7907192 304.123149,57.024943 304.326685,56.1831613 L304.326685,56.1831613 Z M300.425986,52.2823612 L305.016582,52.2823612 L304.939745,53.6594507 C304.965085,54.5257503 304.481176,54.9343822 303.486383,54.8828946 L302.298681,54.8828946 C302.298681,54.8060718 302.274159,54.6793959 302.223479,54.5004152 C302.198956,54.3475868 302.172799,54.2323526 302.146642,54.1563471 C302.529192,54.1816823 302.937899,54.1939412 303.371945,54.1939412 C303.983371,54.2462461 304.276005,54.0550064 304.251483,53.620222 L304.289084,52.9320859 L301.151849,52.9320859 L301.151849,55.5710307 L305.054183,55.5710307 L305.054183,56.1071558 C304.77381,57.2799293 304.315241,58.236128 303.676841,58.9757517 C304.137045,59.4097188 304.798332,59.7783048 305.666426,60.0847787 C305.461255,60.339765 305.283876,60.5563399 305.13102,60.7353207 C304.365103,60.3528412 303.725886,59.9319503 303.218272,59.4726481 C302.759702,59.8804627 302.198956,60.2768357 301.535216,60.6584979 C301.4077,60.4541819 301.279366,60.2506832 301.151849,60.0463673 C301.892426,59.7145582 302.427832,59.3582312 302.759702,58.9757517 C302.172799,58.2107928 301.777171,57.2799293 301.572,56.1831613 L301.151849,56.1831613 L301.151849,60.7353207 L300.425986,60.7353207 L300.425986,52.2823612 Z M297.708902,56.9865316 L299.010225,56.9865316 L299.010225,55.1885513 L297.708902,55.1885513 L297.708902,56.9865316 Z M297.708902,54.577238 L299.010225,54.577238 L299.010225,52.817669 L297.708902,52.817669 L297.708902,54.577238 Z M297.059058,52.2047212 L299.660886,52.2047212 L299.660886,59.7022992 C299.685409,60.3144298 299.391957,60.6209037 298.780532,60.6209037 L297.939413,60.6209037 C297.911621,60.4157705 297.87402,60.2000129 297.824158,59.9703617 L298.589257,59.9703617 C298.89497,59.9948797 299.03393,59.8804627 299.011042,59.6254764 L299.011042,57.5602508 L297.708902,57.5602508 C297.734242,58.9634927 297.478391,60.0210321 296.943803,60.7353207 C296.790129,60.5824923 296.611933,60.4157705 296.408397,60.237607 C296.891488,59.676964 297.108103,58.7330244 297.059058,57.4074225 L297.059058,52.2047212 Z M310.768805,52.2435412 L311.496303,52.2435412 L309.277025,60.1227814 L308.550344,60.1227814 L310.768805,52.2435412 Z M321.304207,53.1999033 L317.210598,53.1999033 C317.720665,53.7866987 318.358247,54.2705188 319.121712,54.6529983 C319.965283,54.2460009 320.691964,53.7605462 321.304207,53.1999033 L321.304207,53.1999033 Z M315.106575,57.0246978 L317.822024,57.0246978 L317.822024,56.947875 C317.873521,56.6675536 317.899678,56.3618969 317.899678,56.0300878 L318.664778,56.0300878 C318.637803,56.3880493 318.600202,56.7190412 318.549522,57.0246978 L322.260581,57.0246978 C322.260581,57.2796841 322.233606,57.688316 322.184562,58.248959 C322.158404,58.5300878 322.145326,58.7335964 322.145326,58.8610896 C322.170666,60.0853508 321.572319,60.6582527 320.347015,60.5822472 L318.892836,60.5822472 C318.892836,60.5307595 318.880575,60.454754 318.855235,60.352596 C318.829895,60.0714573 318.80292,59.8932938 318.779215,59.8172882 C318.932889,59.8426234 319.186288,59.8556996 319.544315,59.8556996 C319.850845,59.8802176 320.105061,59.8932938 320.309414,59.8932938 C321.049174,59.9701166 321.430906,59.6129723 321.457063,58.8234955 C321.457063,58.7213375 321.469324,58.5300878 321.495482,58.248959 L321.495482,57.6752398 L318.433449,57.6752398 C318.127737,59.1038169 316.980905,60.1613563 314.992137,60.8503097 C314.836828,60.6459937 314.68479,60.4416778 314.532751,60.2381791 C316.343322,59.6767189 317.388795,58.8234955 317.669167,57.6752398 L315.106575,57.6752398 L315.106575,57.0246978 Z M317.210598,51.5939799 L317.899678,51.8996366 C317.822024,51.9756421 317.720665,52.1031353 317.591513,52.282116 C317.516311,52.4096092 317.452553,52.4986909 317.401873,52.5493613 L322.337418,52.5493613 L322.337418,53.1999033 C321.621363,53.939527 320.818663,54.5385814 319.926865,54.9978836 C320.998494,55.4056983 322.233606,55.6476083 323.637923,55.7244311 C323.45891,56.0055699 323.292157,56.2597389 323.140118,56.4893901 C321.533083,56.2597389 320.194976,55.9025947 319.121712,55.4179572 C317.94954,55.8772595 316.45776,56.2858914 314.646371,56.6422184 C314.545012,56.4133845 314.417495,56.1968096 314.264639,55.9916764 C315.794838,55.7628425 317.146023,55.4318507 318.319829,54.9978836 C317.656089,54.590069 317.09616,54.0800964 316.636774,53.4679658 C316.024531,54.1307667 315.489125,54.6529983 315.029738,55.036295 C314.850725,54.8573143 314.68479,54.692227 314.532751,54.5385814 C315.578223,53.7229521 316.470021,52.740601 317.210598,51.5939799 L317.210598,51.5939799 Z M328.740711,52.2435412 L329.469027,52.2435412 L327.248931,60.1227814 L326.52225,60.1227814 L328.740711,52.2435412 Z M339.65899,58.6694412 L340.270415,58.2869618 C340.397932,58.5166129 340.601468,58.8353458 340.882658,59.2439777 C341.137691,59.6256399 341.328149,59.9190376 341.4573,60.1225363 L340.805821,60.505833 C340.474769,59.8937024 340.091402,59.2815718 339.65899,58.6694412 L339.65899,58.6694412 Z M337.401293,58.8230868 L338.013536,58.5550243 C338.139417,58.7593403 338.318431,59.0903321 338.548942,59.5496343 C338.702615,59.8299558 338.817053,60.0465307 338.893073,60.2001763 L338.243229,60.505833 C338.115712,60.2001763 337.911359,59.7915444 337.630168,59.2815718 C337.529627,59.0772559 337.451972,58.9244275 337.401293,58.8230868 L337.401293,58.8230868 Z M336.09997,53.0850777 L337.325273,53.0850777 C337.35143,52.6012575 337.362874,52.1288791 337.362874,51.6703941 L338.051954,51.6703941 L338.051954,53.0850777 L340.117559,53.0850777 C340.041539,54.9214695 340.079958,56.1579896 340.232814,56.7954553 C340.281859,57.1019293 340.371774,57.2800928 340.500926,57.3307631 C340.653782,57.3822508 340.755959,57.2800928 340.805821,57.0242892 C340.882658,56.744785 340.934155,56.3230769 340.958678,55.7624339 C341.189188,55.8645919 341.418064,55.9414147 341.647758,55.992085 C341.595443,56.5020576 341.53332,56.9352075 341.4573,57.2923517 C341.328149,57.853812 341.047776,58.1472097 340.614546,58.1725448 C340.102845,58.1472097 339.748088,57.739395 339.543734,56.9482837 C339.4154,56.4897987 339.364721,55.4183659 339.390878,53.7356197 L338.013536,53.7356197 C338.013536,54.4237558 337.937516,55.0358864 337.782207,55.5711942 C337.961221,55.6733522 338.253855,55.8645919 338.664197,56.1457306 C338.817053,56.2470713 338.930674,56.3230769 339.007511,56.3745645 L338.548942,57.0242892 C338.215437,56.744785 337.87294,56.4897987 337.515731,56.2593303 C337.235358,56.9744361 336.622297,57.6887247 335.679819,58.4013787 C335.526963,58.2232152 335.346314,58.0197165 335.144413,57.7900654 C336.062369,57.20327 336.661533,56.5535453 336.940271,55.8392567 C336.891226,55.8139215 336.802128,55.750175 336.674612,55.6471997 C336.495598,55.5205238 336.216042,55.3415431 335.832675,55.1127092 L336.252009,54.5765841 C336.38116,54.6795594 336.583879,54.8062353 336.865886,54.9590636 C336.993403,55.0358864 337.093945,55.1004502 337.171599,55.1503033 C337.248436,54.743306 337.298298,54.2701102 337.325273,53.7356197 L336.09997,53.7356197 L336.09997,53.0850777 Z M335.02834,58.8990924 L335.641401,58.6318471 C335.972453,59.2186425 336.265905,59.7662093 336.521755,60.2761819 L335.871094,60.5818385 C335.794257,60.4543454 335.692898,60.2377705 335.562929,59.9321138 C335.308713,59.4474764 335.130517,59.1034083 335.02834,58.8990924 L335.02834,58.8990924 Z M333.53656,58.5166129 L334.187221,58.7846754 C333.930553,59.3714708 333.588874,60.0089366 333.154828,60.6970727 C332.975814,60.5949147 332.772278,60.4919395 332.542585,60.3905988 C332.950474,59.7269806 333.281527,59.1034083 333.53656,58.5166129 L333.53656,58.5166129 Z M332.465748,55.4943714 C332.899794,55.3930307 333.371442,55.2655375 333.882326,55.1127092 L333.882326,53.7356197 L332.581003,53.7356197 L332.581003,53.0850777 L333.882326,53.0850777 L333.882326,51.7079882 L334.608189,51.7079882 L334.608189,53.0850777 L335.679819,53.0850777 L335.679819,53.7356197 L334.608189,53.7356197 L334.608189,54.9214695 C334.735706,54.8699818 334.901641,54.8193115 335.105177,54.7686411 C335.33487,54.6918183 335.499988,54.641148 335.602982,54.6149955 L335.602982,55.3031317 C335.499988,55.3554365 335.322609,55.4061069 335.067576,55.4567773 C334.863223,55.5336 334.710366,55.5842704 334.608189,55.6096056 L334.608189,56.9106895 C334.633529,57.6756485 334.264058,58.0703869 333.498141,58.0957221 C333.294605,58.1218745 333.025676,58.1349507 332.695441,58.1349507 C332.670101,57.7778064 332.631683,57.5097439 332.581003,57.3307631 C332.785357,57.3822508 333.039572,57.4075859 333.345285,57.4075859 C333.728652,57.4337384 333.906848,57.2416814 333.882326,56.8338667 L333.882326,55.8392567 C333.753175,55.8899271 333.550456,55.9536736 333.269266,56.0304964 C332.987258,56.1326544 332.772278,56.2094772 332.617787,56.2593303 L332.465748,55.4943714 Z M346.712535,52.2435412 L347.439216,52.2435412 L345.220755,60.1227814 L344.494074,60.1227814 L346.712535,52.2435412 Z M356.788551,52.2435412 L357.171918,51.7466448 C357.476813,51.9501435 357.884703,52.2435412 358.393952,52.6260206 C358.472423,52.7028434 358.535364,52.7543311 358.586861,52.7796662 L358.128292,53.314974 C357.719585,52.9316773 357.273277,52.5753503 356.788551,52.2435412 L356.788551,52.2435412 Z M353.499277,56.2979869 L355.526464,56.0307416 C355.448809,55.5461042 355.398947,55.0737257 355.37279,54.6144235 L353.728153,54.8064804 L353.612898,54.1559385 L355.335189,53.9262873 L355.335189,53.7358649 C355.282874,52.6905845 355.258352,52.0269663 355.258352,51.7466448 L355.98585,51.7466448 C355.98585,52.4601161 356.010373,53.1613284 356.06187,53.8494645 L359.160686,53.5053965 L359.236705,54.1559385 L356.100288,54.5384179 C356.150968,55.0238726 356.186934,55.4823576 356.214726,55.9155074 L359.390379,55.4570224 L359.466399,56.1067471 L356.328347,56.5660494 C356.380661,57.0506868 356.468942,57.4715777 356.598093,57.8279047 C356.647138,57.980733 356.686374,58.1221197 356.711714,58.2487956 C357.347662,57.7649754 357.897781,57.2157741 358.356351,56.6036435 L358.930992,57.0629458 C358.393952,57.726564 357.744925,58.3509535 356.979008,58.9369317 C357.184179,59.3455636 357.489892,59.6389613 357.897781,59.8171248 C358.280331,60.0467759 358.535364,59.9446179 358.663698,59.5114681 C358.663698,59.4607978 358.675959,59.4101274 358.701299,59.3578225 C358.752796,59.0006783 358.803476,58.6067571 358.854156,58.1719728 C358.930992,58.2234604 359.160686,58.3125421 359.543235,58.4400353 C359.414084,59.1543238 359.326621,59.6128088 359.275124,59.8171248 C359.122267,60.3777677 358.828816,60.6711655 358.393952,60.6973179 C358.013037,60.7226531 357.642748,60.5943427 357.286356,60.3140212 C356.903806,60.0083645 356.609537,59.6773727 356.406001,59.3202284 C355.564882,59.8040486 354.608508,60.2633508 353.535244,60.6973179 C353.433884,60.5183371 353.280211,60.3017622 353.077492,60.0467759 C354.250481,59.6642965 355.258352,59.2049942 356.100288,58.6696864 C356.100288,58.6443512 356.08721,58.5928636 356.06187,58.5168581 C356.010373,58.4147001 355.970319,58.3248011 355.948249,58.2487956 C355.768418,57.6113298 355.65398,57.0890982 355.600848,56.6804663 L353.612898,56.9485289 L353.499277,56.2979869 Z M350.322807,59.3202284 C351.112429,59.2188877 352.211033,59.0399069 353.612898,58.7841033 C353.612898,58.8870786 353.599819,59.0137545 353.57448,59.1674001 L353.57448,59.4730567 C353.370943,59.4992092 353.025177,59.5629557 352.543721,59.6642965 C351.59879,59.7909723 350.93505,59.8939476 350.553318,59.9699531 L350.322807,59.3202284 Z M351.509692,57.2541855 C352.043463,57.2035152 352.694125,57.1397686 353.460042,57.0629458 C353.460042,57.1397686 353.446963,57.2419266 353.420806,57.3686025 C353.396283,57.522248 353.370943,57.636665 353.344786,57.7126705 C353.14125,57.7388229 352.860877,57.7649754 352.503667,57.7903106 C351.993601,57.8417982 351.381358,57.9178037 350.666121,58.0191444 L350.438063,57.3310083 C350.616259,57.2541855 350.795272,57.1021745 350.973469,56.8717061 C351.177822,56.617537 351.509692,56.1328996 351.967444,55.418611 C351.381358,55.418611 350.871292,55.4439462 350.438063,55.4946166 L350.286024,54.8448918 C350.334251,54.7934042 350.463402,54.6405759 350.666121,54.3855896 C351.253842,53.4931375 351.750829,52.5876092 352.157901,51.669822 L352.846981,51.9754787 C352.260078,53.0469115 351.686254,54.0031101 351.126325,54.8448918 C351.686254,54.8448918 352.095778,54.8326329 352.350811,54.8064804 C352.476693,54.6021645 352.655706,54.2842489 352.887034,53.8494645 C352.860877,53.9017694 352.899296,53.8372056 353.000655,53.6590421 L353.690552,53.9262873 C352.899296,55.2012189 352.171797,56.3118804 351.509692,57.2541855 L351.509692,57.2541855 Z M467.872395,46.0007082 C481.178258,46.0007082 492,56.8220981 492,70.1230664 L488.891375,70.1230664 C488.891375,58.5342658 479.461689,49.1054934 467.872395,49.1054934 L467.872395,46.0007082 Z M468.016505,62.5732652 C472.118288,62.5732652 475.455789,65.9101533 475.455789,70.0021931 L474.281983,70.0021931 C474.281983,66.5541572 471.466809,63.7460388 468.016505,63.7460388 L468.016505,62.5732652 Z M468.016832,55.1681197 C476.184432,55.1681197 482.825919,61.8132916 482.825919,69.9761224 L480.49629,69.9761224 C480.49629,63.0988476 474.899457,57.4997733 468.016832,57.4997733 L468.016832,55.1681197 Z M364.962526,60.5806944 L367.13276,60.5806944 L367.13276,58.2833658 L364.962526,58.2833658 L364.962526,60.5806944 Z M390.964542,54.7893179 C390.964542,54.0578668 390.546026,53.6900981 389.709812,53.6900981 L388.195144,53.6900981 L388.195144,55.8092631 L389.709812,55.8092631 C390.581175,55.8280602 390.999691,55.4888957 390.964542,54.7893179 L390.964542,54.7893179 Z M456.261195,54.7893179 C456.261195,54.0578668 455.843497,53.6900981 455.006465,53.6900981 L453.489345,53.6900981 L453.489345,55.8092631 L455.006465,55.8092631 C455.878645,55.8280602 456.297979,55.4888957 456.261195,54.7893179 L456.261195,54.7893179 Z M456.469636,58.736702 L454.692578,56.409952 L453.489345,56.409952 L453.489345,58.736702 L452.575476,58.736702 L452.575476,53.0910437 L455.21981,53.0910437 C456.539933,53.0910437 457.205308,53.6484176 457.205308,54.7664345 C457.217569,55.7757553 456.715677,56.3176012 455.686553,56.3870686 L457.544535,58.736702 L456.469636,58.736702 Z M450.745287,53.6900981 L447.347297,53.6900981 L447.347297,55.5477387 L450.563821,55.5477387 L450.563821,56.1492449 L447.347297,56.1492449 L447.347297,58.1915871 L450.745287,58.1915871 L450.745287,58.736702 L446.433428,58.736702 L446.433428,53.0910437 L450.745287,53.0910437 L450.745287,53.6900981 Z M444.660458,53.6900981 L442.724822,53.6900981 L442.724822,58.736702 L441.807683,58.736702 L441.807683,53.6900981 L439.898205,53.6900981 L439.898205,53.0910437 L444.660458,53.0910437 L444.660458,53.6900981 Z M438.094172,58.736702 L437.232618,58.736702 L434.224535,54.4493362 L434.224535,58.736702 L433.312301,58.736702 L433.312301,53.0910437 L434.224535,53.0910437 L437.207278,57.4830194 L437.207278,53.0910437 L438.094172,53.0910437 L438.094172,58.736702 Z M431.535244,53.6900981 L428.130715,53.6900981 L428.130715,55.5477387 L431.347238,55.5477387 L431.347238,56.1492449 L428.130715,56.1492449 L428.130715,58.1915871 L431.535244,58.1915871 L431.535244,58.736702 L427.221751,58.736702 L427.221751,53.0910437 L431.535244,53.0910437 L431.535244,53.6900981 Z M423.300617,58.2929278 C424.152362,58.2929278 424.865964,57.8172803 425.443876,56.852909 L425.443876,57.6914216 C424.934627,58.4784467 424.14337,58.8601089 423.060297,58.8421291 C421.392773,58.7554991 420.509148,57.7862243 420.424955,55.9432944 C420.509148,54.0930092 421.392773,53.1163789 423.060297,53.0142209 C424.33301,53.0477288 425.136528,53.6484176 425.466763,54.8171049 L424.552077,54.8171049 C424.345271,54.0308971 423.856458,53.6328896 423.092176,53.6149098 C421.995207,53.7015398 421.414025,54.482844 421.365798,55.9653605 C421.414025,57.4315318 422.0606,58.2054806 423.300617,58.2929278 L423.300617,58.2929278 Z M414.416963,53.6900981 L411.011617,53.6900981 L411.011617,55.5477387 L414.232227,55.5477387 L414.232227,56.1492449 L411.011617,56.1492449 L411.011617,58.1915871 L414.416963,58.1915871 L414.416963,58.736702 L410.098565,58.736702 L410.098565,53.0910437 L414.416963,53.0910437 L414.416963,53.6900981 Z M406.175796,58.2929278 C407.031629,58.2929278 407.749318,57.8172803 408.321508,56.852909 L408.321508,57.6914216 C407.817981,58.4784467 407.023455,58.8601089 405.945286,58.8421291 C404.27204,58.7554991 403.388415,57.7862243 403.2985,55.9432944 C403.388415,54.0930092 404.27204,53.1163789 405.945286,53.0142209 C407.217999,53.0477288 408.016612,53.6484176 408.350117,54.8171049 L407.432979,54.8171049 C407.222904,54.0308971 406.73409,53.6328896 405.965721,53.6149098 C404.875291,53.7015398 404.29411,54.482844 404.241795,55.9653605 C404.29411,57.4315318 404.939049,58.2054806 406.175796,58.2929278 L406.175796,58.2929278 Z M400.532371,58.736702 L401.421717,58.736702 L401.421717,53.0910437 L400.532371,53.0910437 L400.532371,58.736702 Z M396.714231,58.736702 L395.672846,58.736702 L393.420053,53.0910437 L394.392776,53.0910437 L396.219696,57.9790985 L397.970596,53.0910437 L398.940866,53.0910437 L396.714231,58.736702 Z M391.175435,58.736702 L389.39756,56.409952 L388.195144,56.409952 L388.195144,58.736702 L387.27964,58.736702 L387.27964,53.0910437 L389.921522,53.0910437 C391.24655,53.0910437 391.905385,53.6484176 391.905385,54.7664345 C391.926638,55.7757553 391.416572,56.3176012 390.3899,56.3870686 L392.239708,58.736702 L391.175435,58.736702 Z M385.448633,53.6900981 L382.052279,53.6900981 L382.052279,55.5477387 L385.265533,55.5477387 L385.265533,56.1492449 L382.052279,56.1492449 L382.052279,58.1915871 L385.448633,58.1915871 L385.448633,58.736702 L381.135141,58.736702 L381.135141,53.0910437 L385.448633,53.0910437 L385.448633,53.6900981 Z M377.134717,58.8421291 C376.053279,58.8421291 375.254665,58.4498425 374.733155,57.667721 L374.733155,56.9068484 C375.305345,57.8172803 376.063088,58.2782171 377.005566,58.2929278 C377.912078,58.2782171 378.372282,57.9374181 378.389447,57.2729826 C378.389447,56.7147914 377.940687,56.3690888 377.030088,56.2293367 C375.532586,56.0005029 374.818166,55.4423117 374.887646,54.5523114 C374.922795,53.5626049 375.611058,53.0526323 376.949982,53.0379216 C378.209616,53.0379216 378.953463,53.5961128 379.200322,54.7108606 L378.311793,54.7108606 C378.105805,53.9973893 377.65214,53.6394277 376.949982,53.6394277 C376.220848,53.6394277 375.844838,53.9442671 375.82522,54.5523114 C375.794976,55.059015 376.220848,55.3728443 377.109377,55.4962511 C378.609332,55.7397957 379.351543,56.3176012 379.331926,57.221495 C379.31803,58.3019177 378.582357,58.8421291 377.134717,58.8421291 L377.134717,58.8421291 Z M460.452076,51.5039174 L371.816623,51.5039174 C371.236259,51.5039174 370.771968,51.9738441 370.771968,52.5475633 L370.771968,59.3431118 C370.771968,59.9143792 371.236259,60.3843059 371.816623,60.3843059 L460.452076,60.3843059 C461.028353,60.3843059 461.498366,59.9143792 461.498366,59.3431118 L461.498366,52.5475633 C461.498366,51.9738441 461.028353,51.5039174 460.452076,51.5039174 L460.452076,51.5039174 Z M326.216374,124.578743 C327.906785,125.129578 329.563683,125.78911 331.192789,126.558973 C331.391421,126.674207 331.532016,126.824583 331.611305,127.012554 C331.688959,127.206246 331.696316,127.400754 331.630106,127.593629 C331.429839,127.999809 331.115135,128.102784 330.68354,127.903372 C329.061791,127.115529 327.41552,126.450277 325.743908,125.904344 C325.526476,125.843867 325.368715,125.731902 325.272261,125.568449 C325.181528,125.393555 325.168449,125.205584 325.233842,125.006172 C325.309044,124.811663 325.434926,124.672728 325.617209,124.587732 C325.798675,124.510092 325.998124,124.506823 326.216374,124.578743 Z M322.455453,124.978385 C322.540464,125.172076 322.548638,125.360047 322.483245,125.541479 C322.410495,125.710653 322.273987,125.843867 322.074538,125.941121 C320.32282,126.741223 318.604616,127.38114 316.915021,127.865778 C316.474435,127.962215 316.167905,127.81429 315.997066,127.421186 C315.882628,126.961067 316.031397,126.661948 316.444191,126.522196 C318.333234,125.977081 320.004028,125.354326 321.456573,124.651479 C321.885715,124.470046 322.220037,124.578743 322.455453,124.978385 Z M392.130746,111.456673 C392.174069,111.869392 391.986882,112.138271 391.568366,112.264947 C390.702724,112.470898 389.72101,112.616371 388.623224,112.700549 L388.623224,115.388529 L391.895331,115.388529 C392.342457,115.406509 392.589316,115.633709 392.631821,116.06931 C392.606481,116.51145 392.374336,116.745187 391.931297,116.769705 L388.623224,116.769705 L388.623224,117.749605 C390.066776,118.713159 391.327229,119.85079 392.403763,121.164133 C392.580324,121.3709 392.671057,121.576034 392.676779,121.781984 C392.676779,121.999376 392.59422,122.178357 392.431555,122.318109 C392.254993,122.462765 392.05064,122.517522 391.822581,122.481562 C391.610054,122.439064 391.428588,122.31484 391.276549,122.10889 C390.55232,121.133894 389.667061,120.238173 388.623224,119.420909 L388.623224,127.139966 C388.600336,127.582105 388.355929,127.814208 387.888369,127.838726 C387.436339,127.796228 387.195202,127.551049 387.171497,127.103189 L387.171497,119.094003 C386.347543,120.831506 385.307793,122.393297 384.048976,123.779377 C383.896937,123.955906 383.720375,124.052343 383.520926,124.070323 C383.308399,124.088303 383.117124,124.027825 382.948737,123.88889 C382.602971,123.549726 382.582535,123.186043 382.884978,122.79866 C384.707811,120.74079 385.97889,118.731138 386.699849,116.769705 L383.610842,116.769705 C383.169438,116.751725 382.920945,116.526978 382.866178,116.097914 C382.884978,115.649237 383.10895,115.413865 383.538909,115.388529 L387.171497,115.388529 L387.171497,112.881981 C386.614838,112.931017 385.633124,112.979236 384.229624,113.028272 C383.811926,113.009475 383.584685,112.782275 383.548718,112.346674 C383.566701,111.904534 383.781681,111.671614 384.193658,111.647096 C386.336917,111.660172 388.58317,111.429704 390.9316,110.957325 C391.118788,110.927086 391.258566,110.902568 391.348481,110.884589 C391.767815,110.842091 392.02857,111.032513 392.130746,111.456673 Z M438.304166,110.920712 C439.28588,110.902732 439.769789,111.37511 439.759163,112.33703 L439.759163,115.789152 C439.746901,116.672614 439.272801,117.120475 438.340132,117.131917 L434.562863,117.131917 L434.562863,119.09335 L440.44906,119.09335 C440.848775,119.112147 441.064573,119.320549 441.102174,119.720191 C441.085008,120.126371 440.879837,120.341312 440.484209,120.365012 L434.997727,120.365012 C436.070991,122.078814 438.105534,123.616905 441.102174,124.978466 C441.283639,125.063462 441.396443,125.202397 441.438131,125.396088 C441.480636,125.602039 441.44467,125.816979 441.330232,126.040909 C441.221516,126.252581 441.071112,126.398054 440.884742,126.476511 C440.708998,126.549247 440.527532,126.541075 440.338709,126.450358 C437.868484,125.148457 435.942657,123.640605 434.562863,121.927621 L434.562863,127.140129 C434.544062,127.551213 434.320908,127.781681 433.890949,127.8299 C433.441371,127.817641 433.205956,127.612508 433.182251,127.212866 L433.182251,121.927621 C432.176832,123.477153 430.445549,124.899192 427.986768,126.196189 C427.628741,126.371084 427.324663,126.262388 427.068813,125.868467 C426.846476,125.408347 426.896338,125.075721 427.223304,124.86977 C430.051556,123.289182 431.929155,121.787868 432.855285,120.365012 L427.73337,120.365012 C427.369621,120.359291 427.188155,120.20728 427.188155,119.911431 C427.265809,119.46357 427.461171,119.191421 427.767701,119.09335 L433.182251,119.09335 L433.182251,117.131917 L429.440948,117.131917 C428.616177,117.108216 428.193574,116.623578 428.168234,115.680456 L428.168234,112.33703 C428.145154,111.420156 428.562313,110.948507 429.419709,110.920721 L438.304166,110.920712 Z M448.882727,111.320027 C449.423855,111.308585 449.755725,111.423819 449.883242,111.665729 C450.028742,111.895381 450.048359,112.37348 449.936374,113.100027 C449.870981,113.536446 449.692784,114.365969 449.402603,115.588596 C449.207241,116.382159 449.108334,116.860258 449.102612,117.022894 C449.119777,117.181443 449.252198,117.535318 449.50151,118.086154 C450.064708,119.06687 450.391673,120.323005 450.481589,121.855374 C450.403934,122.532886 450.037733,123.062473 449.383802,123.444135 C449.087081,123.607588 448.756846,123.701573 448.393096,123.725274 C448.035069,123.749792 447.654972,123.707294 447.249534,123.597781 C446.77053,123.447404 446.547376,123.15891 446.578438,122.735568 C446.685519,122.317946 446.98224,122.157762 447.468601,122.254199 C448.333425,122.42419 448.843491,122.194539 448.993078,121.563611 C449.011879,120.407183 448.756846,119.409304 448.229614,118.567522 C447.890387,117.864675 447.722,117.375134 447.722,117.09563 C447.722,116.993472 447.797202,116.63878 447.946788,116.034004 C448.209996,114.987089 448.387375,114.15348 448.485464,113.536446 C448.556579,112.997869 448.412714,112.731441 448.048148,112.737162 L446.994501,112.737162 C446.632387,112.713462 446.463182,112.894894 446.487705,113.282277 L446.487705,127.139802 C446.463182,127.545165 446.22041,127.763374 445.761024,127.793613 C445.300002,127.763374 445.05723,127.545165 445.033525,127.139802 L445.033525,112.482993 C445.033525,112.041671 445.119354,111.737649 445.296733,111.575013 C445.459398,111.399301 445.772468,111.314306 446.232672,111.320027 L448.882727,111.320027 Z M426.960097,110.548857 C427.188972,110.584816 427.366351,110.70332 427.486511,110.902732 C427.602584,111.108682 427.633646,111.356313 427.58787,111.647259 C427.429292,112.670474 427.090065,113.808922 426.569373,115.062605 L426.569373,126.994656 C426.545668,127.484197 426.297991,127.742452 425.824709,127.76697 C425.353061,127.717935 425.105385,127.449055 425.08168,126.957879 L425.08168,117.604295 C425.037539,117.671311 424.972146,117.774286 424.880596,117.913221 C424.692591,118.228685 424.529108,118.464874 424.38933,118.621788 C424.225847,118.7975 424.048468,118.893937 423.853924,118.912734 C423.653658,118.918455 423.474644,118.846536 423.318518,118.694525 C422.998092,118.301421 422.978474,117.900962 423.262934,117.495599 C424.65499,115.903569 425.565589,113.881658 425.987374,111.429867 C426.114891,110.818554 426.439404,110.525156 426.960097,110.548857 Z M367.594353,110.26641 C368.071723,110.309725 368.332478,110.551635 368.375801,110.994592 C368.398688,111.635327 368.459177,112.495089 368.556449,113.57306 L372.043537,113.57306 C372.455513,113.591039 372.686024,113.827229 372.733434,114.28081 C372.721173,114.753189 372.516819,115.001637 372.117104,115.026155 L368.665983,115.026155 C368.847449,116.690921 369.112291,118.457845 369.464596,120.328562 C369.893738,119.123915 370.20926,117.817111 370.409526,116.405696 C370.49372,115.988891 370.75284,115.794383 371.190974,115.824621 C371.6569,115.922693 371.869428,116.176045 371.825287,116.587129 C371.43865,119.064255 370.832947,120.976652 370.008994,122.326772 C370.621237,124.512136 371.069179,125.601548 371.352822,125.595827 C371.58415,125.716782 371.715754,124.978793 371.754172,123.380225 C371.794225,122.938085 372.025554,122.717424 372.44407,122.717424 C372.843785,122.78444 373.036695,123.041061 373.025251,123.488921 C372.879751,126.261897 372.370502,127.599758 371.499957,127.503321 C370.723413,127.727251 369.888834,126.485828 368.991313,123.77905 C367.811785,125.171667 366.563594,126.279877 365.250828,127.102862 C364.783267,127.35131 364.400717,127.30064 364.096639,126.948399 C363.975662,126.774322 363.938061,126.585534 363.988741,126.386121 C364.04269,126.19243 364.172659,126.031429 364.37783,125.904753 C366.134452,124.785102 367.479098,123.495459 368.411767,122.036644 C367.84203,119.765467 367.453758,117.42891 367.24777,115.026155 L363.142717,115.026155 C362.785507,115.032693 362.604859,115.237826 362.59832,115.644006 L362.59832,116.587129 L365.068544,116.587129 C365.867975,116.592849 366.266873,117.017827 366.266873,117.859608 C366.273412,120.256643 366.215376,121.869922 366.095216,122.699444 C365.972604,123.637663 365.741276,124.215469 365.39551,124.432861 C364.929584,124.767122 364.215164,124.839858 363.252251,124.651888 C362.846814,124.566892 362.658808,124.291474 362.688235,123.824817 C362.785507,123.352438 363.034001,123.156295 363.433717,123.234752 C363.930704,123.356525 364.269931,123.332007 364.451397,123.162016 C364.741579,122.926644 364.887078,121.388553 364.887078,118.549379 C364.898522,118.125219 364.729318,117.919269 364.37783,117.932345 L362.59832,117.932345 L362.598646,119.487666 C362.594881,121.811876 362.542661,123.375619 362.443828,124.179509 C362.340834,125.214165 362.090706,126.20142 361.690173,127.140456 C361.585544,127.388087 361.440862,127.56625 361.253674,127.675764 C361.061582,127.778739 360.861315,127.79345 360.653692,127.720713 C360.441982,127.642256 360.2973,127.500052 360.218828,127.294102 C360.150983,127.088151 360.169783,126.86749 360.272777,126.631301 C360.678215,125.807499 360.925891,124.924037 361.018259,123.97928 C361.131879,123.090097 361.188281,121.339518 361.181741,118.730811 L361.181741,115.17081 C361.14414,114.069139 361.66565,113.536283 362.743819,113.57306 L367.103087,113.57306 C367.085922,113.251875 367.054043,112.840791 367.013172,112.337357 C366.962492,111.756282 366.933065,111.308422 366.921622,110.994592 C366.90936,110.545097 367.133332,110.303187 367.594353,110.26641 Z M277.533739,70.7079004 C288.429865,70.7079004 297.306162,78.1924023 297.306162,87.3702747 C297.306162,89.4000121 296.902417,91.3367031 296.161439,93.1277123 L296.243524,93.1735015 L295.839054,93.8534306 C295.415942,94.743637 294.90794,95.5942956 294.323799,96.3984804 L275.724802,127.641602 L265.936271,127.581942 L279.8417,104.245717 C279.084424,104.320399 278.314264,104.358737 277.533739,104.358737 C266.873845,104.358737 258,96.8873116 258,87.3702747 C258,78.1924023 266.873845,70.7079004 277.533739,70.7079004 Z M398.57115,111.238464 C399.036259,111.268703 399.281483,111.575177 399.306823,112.156251 L399.306823,125.632114 C399.331345,127.527349 397.635211,128.053667 394.220056,127.212702 C393.772113,127.07295 393.581656,126.767293 393.648684,126.295732 C393.696911,126.088964 393.805627,125.931232 393.974832,125.823354 C394.139132,125.73182 394.32959,125.710571 394.547839,125.759607 C395.522196,126.013776 396.333071,126.110213 396.972289,126.050553 C397.559192,125.989258 397.853461,125.777587 397.853461,125.414722 L397.853461,112.192211 C397.877166,111.611136 398.116668,111.293221 398.57115,111.238464 Z M411.530429,114.163206 C411.747861,114.241663 411.895813,114.371608 411.97592,114.553858 C412.04213,114.73529 412.022512,114.928165 411.921153,115.134115 C411.526342,115.915419 411.043251,116.714703 410.467791,117.531967 L420.131258,117.531967 C420.543234,117.555668 420.758214,117.789405 420.776197,118.230728 C420.739414,118.667147 420.512173,118.893529 420.096926,118.912326 L417.222899,118.912326 C416.376876,121.097689 415.287263,122.781253 413.955696,123.960564 C413.949157,123.960564 414.164954,124.037387 414.599818,124.187764 C417.780376,125.308232 419.622826,126.002089 420.131258,126.268517 C420.580835,126.522686 420.739414,126.840602 420.613532,127.221447 C420.413266,127.578591 420.070769,127.671759 419.588495,127.503403 C419.424195,127.442108 419.086603,127.315432 418.578989,127.121741 C415.865992,126.086267 413.912373,125.371979 412.721401,124.978875 C410.358258,126.316736 407.51284,127.121741 404.181061,127.393889 C403.619498,127.424128 403.294985,127.227168 403.209974,126.803825 C403.21733,126.343705 403.492799,126.080547 404.035562,126.013531 C406.49516,125.868058 408.79618,125.318039 410.941074,124.361023 C409.987969,124.022676 408.341698,123.416267 405.99899,122.544246 C405.587831,122.380793 405.348328,122.114365 405.280483,121.745779 C405.238795,121.376376 405.393286,121.037212 405.743139,120.729103 C405.967928,120.541133 406.392166,120.14476 407.015853,119.539167 C407.30113,119.266201 407.518562,119.057799 407.670601,118.912326 L403.890879,118.912326 C403.466642,118.888625 403.239401,118.658157 403.209974,118.222555 C403.239401,117.786136 403.466642,117.555668 403.890879,117.531967 L408.72343,117.531967 C409.329951,116.714703 409.909498,115.758505 410.467791,114.662554 C410.57569,114.444345 410.727729,114.289882 410.921456,114.199165 C411.120905,114.114987 411.322806,114.101911 411.530429,114.163206 Z M460.545588,125.759444 C460.915877,125.783961 461.115326,126.013613 461.14557,126.450031 C461.115326,126.884816 460.915877,127.116101 460.545588,127.139802 L450.809372,127.139802 C450.398213,127.116101 450.18405,126.881547 450.16525,126.441042 C450.201216,126.004623 450.427639,125.777423 450.846155,125.759444 L460.545588,125.759444 Z M357.584303,116.224263 C358.014263,116.218543 358.301992,116.299452 358.447492,116.469443 C358.605253,116.627174 358.681273,116.932014 358.673916,117.386413 L358.673916,124.687847 C358.673916,124.826782 358.692716,124.902788 358.7295,124.914229 C358.764649,124.927306 358.831677,124.875818 358.928949,124.760584 C359.068727,124.578334 359.249375,124.155809 359.472529,123.488921 C359.552636,123.270712 359.676065,123.11298 359.846905,123.01736 C360.027553,122.926644 360.214741,122.916837 360.408468,122.989573 C360.603012,123.06803 360.735434,123.204513 360.807366,123.398205 C360.876029,123.579638 360.864585,123.77905 360.780391,123.997259 C360.200027,125.456893 359.667891,126.322375 359.183165,126.595341 C358.650211,126.970465 358.195729,127.060364 357.818901,126.86749 C357.475587,126.655001 357.300661,126.207141 357.294121,125.523091 L357.294121,118.222473 C357.312104,117.817111 357.141265,117.622602 356.78569,117.641399 L355.87836,117.641399 C355.537499,117.616881 355.354398,117.380692 355.332328,116.932014 C355.354398,116.484971 355.537499,116.247964 355.87836,116.224263 L357.584303,116.224263 Z M351.181991,111.320027 C351.686335,111.344545 351.956899,111.587272 352.00104,112.046574 C351.956899,112.507511 351.686335,112.749421 351.181991,112.773939 L342.93592,112.773939 C341.850394,114.262994 340.51801,115.582875 338.939584,116.732765 C342.79696,116.745024 345.945638,116.636328 348.385618,116.405859 C347.798715,115.746328 347.181568,115.080258 346.532541,114.408467 C346.211297,114.051322 346.21375,113.708889 346.540715,113.381983 C346.711555,113.248769 346.901195,113.18584 347.113722,113.190744 C347.32625,113.197282 347.519159,113.276556 347.696538,113.426933 C348.899771,114.57764 350.232156,116.176208 351.692057,118.222637 C351.980604,118.681939 351.919298,119.06687 351.5016,119.374979 C351.307873,119.490213 351.103519,119.514731 350.891809,119.448533 C350.680916,119.388055 350.49945,119.245034 350.347411,119.021921 C350.026985,118.555263 349.711463,118.143362 349.400846,117.786218 C348.317773,117.894914 346.743434,117.991351 344.680281,118.076347 L344.680281,120.801921 L350.639228,120.801921 C351.177086,120.825622 351.468086,121.067532 351.510591,121.527652 C351.468086,121.987771 351.177086,122.229681 350.639228,122.254199 L344.680281,122.254199 L344.680281,125.523254 L351.800773,125.523254 C352.27896,125.553493 352.518463,125.80521 352.518463,126.276772 C352.439173,126.71319 352.151444,126.94039 351.655274,126.95837 L336.033677,126.95837 C335.506446,126.94039 335.212994,126.704201 335.15087,126.249802 C335.17621,125.788865 335.445139,125.547772 335.96011,125.523254 L343.153352,125.523254 L343.153352,122.254199 L337.19604,122.254199 C336.676165,122.236219 336.381896,122.002482 336.31405,121.554621 C336.319772,121.082243 336.578075,120.831343 337.086506,120.801921 L343.153352,120.801921 L343.153352,118.113123 C341.20382,118.18586 339.291889,118.18586 337.413472,118.113123 C336.862535,118.064905 336.525761,117.844244 336.405601,117.450323 C336.326312,117.039239 336.518404,116.666567 336.97779,116.333123 C338.781823,115.062278 340.126469,113.875611 341.01091,112.773939 L336.360643,112.773939 C335.778644,112.749421 335.472932,112.504242 335.442687,112.037584 C335.497454,111.584003 335.814611,111.344545 336.396609,111.320027 L351.181991,111.320027 Z M310.259474,111.320027 C310.761367,111.344545 311.033565,111.587272 311.076888,112.046574 C311.033565,112.507511 310.761367,112.749421 310.259474,112.773939 L302.012586,112.773939 C300.928695,114.262994 299.596311,115.582875 298.017067,116.732765 C301.872808,116.745024 305.022304,116.636328 307.461467,116.405859 C306.874564,115.746328 306.257416,115.080258 305.610024,114.408467 C305.289598,114.051322 305.290416,113.708889 305.618199,113.381983 C305.787403,113.248769 305.977861,113.18584 306.191206,113.190744 C306.402098,113.197282 306.596643,113.276556 306.77157,113.426933 C307.97562,114.57764 309.30964,116.176208 310.767906,118.222637 C311.059723,118.681939 310.995147,119.06687 310.577448,119.374979 C310.383721,119.490213 310.181003,119.514731 309.969292,119.448533 C309.757582,119.388055 309.574482,119.245034 309.424895,119.021921 C309.102834,118.555263 308.788129,118.143362 308.480782,117.786218 C307.394439,117.894914 305.821735,117.991351 303.756947,118.076347 L303.756947,120.801921 L309.715077,120.801921 C310.252935,120.825622 310.543117,121.067532 310.58644,121.527652 C310.543117,121.987771 310.252935,122.229681 309.715077,122.254199 L303.756947,122.254199 L303.756947,125.523254 L310.876622,125.523254 C311.353992,125.553493 311.595129,125.80521 311.595129,126.276772 C311.515022,126.71319 311.22811,126.94039 310.732757,126.95837 L295.109526,126.95837 C294.583929,126.94039 294.28966,126.704201 294.228354,126.249802 C294.253694,125.788865 294.520988,125.547772 295.037594,125.523254 L302.229201,125.523254 L302.229201,122.254199 L296.272706,122.254199 C295.752013,122.236219 295.457744,122.002482 295.391534,121.554621 C295.397256,121.082243 295.653106,120.831343 296.16399,120.801921 L302.229201,120.801921 L302.229201,118.113123 C300.281304,118.18586 298.366103,118.18586 296.490138,118.113123 C295.938384,118.064905 295.603244,117.844244 295.481449,117.450323 C295.403795,117.039239 295.592618,116.666567 296.053639,116.333123 C297.858489,115.062278 299.202317,113.875611 300.087576,112.773939 L295.436492,112.773939 C294.85531,112.749421 294.54878,112.504242 294.518536,112.037584 C294.573303,111.584003 294.892094,111.344545 295.472458,111.320027 L310.259474,111.320027 Z M459.20176,117.414363 C459.619458,117.517338 459.814003,117.835254 459.782941,118.367293 C459.500116,120.582895 458.966345,122.714319 458.185714,124.75993 C458.093347,124.990398 457.963378,125.15712 457.793356,125.259278 C457.619247,125.363071 457.439415,125.384319 457.258767,125.323842 C456.859052,125.136689 456.743796,124.803245 456.914636,124.324328 C457.526061,122.707781 458.020597,120.64991 458.402329,118.1499 C458.493062,117.635024 458.759539,117.389845 459.20176,117.414363 Z M452.225133,118.730975 C453.140636,120.613133 453.770862,122.368616 454.114993,123.997423 C454.1951,124.506578 454.038974,124.826946 453.652337,124.96016 C453.217473,125.021454 452.935465,124.808966 452.807949,124.324328 C452.462183,122.805035 451.857296,121.109213 450.991655,119.239313 C450.80365,118.791452 450.896835,118.466999 451.272845,118.267586 C451.665204,118.140093 451.98563,118.294556 452.225133,118.730975 Z M323.609641,110.112356 C324.064123,110.155671 324.30199,110.424551 324.32733,110.92063 L324.32733,111.756691 L330.430142,111.756691 C330.836397,111.774671 331.053829,111.992063 331.084073,112.410502 C331.053829,112.828124 330.836397,113.046333 330.430142,113.064313 L324.32733,113.064313 L324.32733,114.045029 L327.631317,114.045029 C328.098878,114.039309 328.424208,114.138198 328.604857,114.344148 C328.78714,114.538657 328.874603,114.898253 328.868064,115.425388 L328.868064,122.980992 L331.37589,122.980992 C331.781327,122.998972 331.999577,123.216364 332.028186,123.634803 C331.999577,124.052425 331.781327,124.269817 331.37589,124.288614 L316.006057,124.288614 C315.571193,124.269817 315.329239,124.052425 315.281011,123.634803 C315.303899,123.216364 315.534409,122.998972 315.971726,122.980992 L318.550667,122.980992 L318.550667,115.352652 C318.541675,114.819796 318.622599,114.471641 318.786082,114.309006 C318.943025,114.126756 319.262634,114.039309 319.748995,114.045029 L322.872334,114.045029 L322.872334,113.064313 L316.987771,113.064313 C316.533289,113.046333 316.282343,112.828124 316.234116,112.410502 C316.257821,111.992063 316.497323,111.774671 316.951805,111.756691 L322.872334,111.756691 L322.872334,110.92063 C322.898491,110.424551 323.142898,110.155671 323.609641,110.112356 Z M455.49724,118.113123 C455.956627,119.638955 456.283592,121.346219 456.477319,123.234916 C456.507564,123.749792 456.321193,124.046459 455.914121,124.124916 C455.483344,124.124916 455.224224,123.876468 455.134308,123.380389 C454.908702,121.59385 454.59318,119.947063 454.189378,118.440029 C454.091288,117.979909 454.249049,117.677522 454.660208,117.532049 C455.066463,117.465033 455.344384,117.659542 455.49724,118.113123 Z M394.073739,111.501623 C394.535578,111.5384 394.777532,111.792569 394.802872,112.264947 L394.802872,123.162343 C394.777532,123.634721 394.535578,123.88889 394.073739,123.92485 C393.613535,123.88889 393.372398,123.634721 393.34951,123.162343 L393.34951,112.264947 C393.372398,111.792569 393.613535,111.5384 394.073739,111.501623 Z M415.62649,118.912326 L409.596428,118.912326 C409.506045,119.004093 409.407122,119.103999 409.299638,119.212026 L408.758114,119.752892 C408.624907,119.885237 408.48311,120.025673 408.332706,120.174181 C407.44336,121.047019 407.039558,121.497331 407.124569,121.52757 C407.010948,121.630545 408.217451,122.084944 410.748982,122.889131 C411.266405,123.057079 411.697846,123.197904 412.041926,123.311606 L412.356835,123.416267 C413.828997,122.272097 414.91861,120.770784 415.62649,118.912326 Z M327.41552,121.999458 L320.004028,121.999458 L320.004028,122.980992 L327.41552,122.980992 L327.41552,121.999458 Z M327.41552,119.892552 L320.004028,119.892552 L320.004028,120.801349 L327.41552,120.801349 L327.41552,119.892552 Z M327.41552,117.713727 L320.004028,117.713727 L320.004028,118.694443 L327.41552,118.694443 L327.41552,117.713727 Z M458.293613,115.425143 C458.663901,115.449661 458.86335,115.685033 458.89196,116.133711 C458.86335,116.582388 458.663901,116.81776 458.293613,116.841461 L452.770348,116.841461 C452.360006,116.81776 452.145843,116.578302 452.127043,116.124721 C452.163009,115.67686 452.391068,115.44394 452.807949,115.425143 L458.293613,115.425143 Z M411.921153,110.666951 C412.175369,111.333021 412.369096,111.914096 412.501517,112.410175 L418.386897,112.410175 C419.465066,112.434693 419.998837,112.918513 419.985758,113.86327 C419.962053,114.342187 419.804292,115.040947 419.51411,115.961186 C419.49531,116.015943 419.483049,116.055172 419.477327,116.078872 C419.313844,116.533271 419.01467,116.729414 418.578989,116.668937 C418.141672,116.541443 417.981459,116.248046 418.096715,115.788744 C418.576537,114.365887 418.564275,113.675299 418.060749,113.718614 L405.527342,113.718614 C405.125992,113.718614 404.932265,113.926199 404.945343,114.344638 L404.945343,115.860663 C404.928178,116.212903 404.709928,116.403326 404.289777,116.433565 C403.873714,116.403326 403.655464,116.212903 403.637481,115.860663 L403.637481,113.82731 C403.72331,112.912792 404.253811,112.440414 405.234708,112.410175 L410.97704,112.410175 C410.88549,112.028513 410.753069,111.616612 410.57569,111.176107 C410.431008,110.73315 410.558524,110.418503 410.95824,110.230532 C411.392286,110.104674 411.715982,110.248512 411.921153,110.666951 Z M456.150354,111.029898 C457.391188,112.585968 459.002311,113.760377 460.982087,114.55394 C461.212598,114.650377 461.367906,114.792581 461.446378,114.980551 C461.523215,115.174243 461.515041,115.374473 461.417769,115.579606 C461.316409,115.785556 461.156196,115.92776 460.935495,116.006217 C460.731141,116.078954 460.516161,116.066695 460.290555,115.970258 C458.245386,114.934785 456.801833,113.918108 455.960714,112.918595 C455.535659,112.507511 455.283895,112.300743 455.207058,112.300743 C455.145752,112.300743 454.944668,112.498521 454.605442,112.891625 C453.994016,113.769366 452.718851,114.928246 450.773406,116.3699 C450.306662,116.648587 449.922478,116.609358 449.619217,116.250579 C449.492518,116.069147 449.4541,115.87709 449.50151,115.670322 C449.556276,115.47091 449.689515,115.304188 449.901225,115.170974 C451.638229,114.026805 453.116931,112.683223 454.333243,111.138594 C454.952843,110.266574 455.556911,110.230614 456.150354,111.029898 Z M326.94142,115.352652 L320.476494,115.352652 C320.156067,115.346113 319.997489,115.528363 320.004028,115.897767 L320.004028,116.514801 L327.41552,116.514801 L327.41552,115.824213 C327.422059,115.503845 327.264298,115.346113 326.94142,115.352652 Z M437.505553,112.265111 L430.238744,112.265111 C429.743391,112.240593 429.512063,112.48332 429.548029,112.991658 L429.548029,114.880355 C429.536585,115.498206 429.814506,115.800594 430.384243,115.789152 L437.578302,115.789152 C438.1227,115.789152 438.390812,115.509648 438.376916,114.952274 L438.376916,113.20905 C438.394899,112.549518 438.105534,112.234872 437.505553,112.265111 Z M357.465778,111.038725 C357.655418,111.045263 357.826258,111.126989 357.984019,111.284721 C358.98862,112.276062 359.679335,113.040204 360.054528,113.57306 C360.308743,113.966164 360.264603,114.314318 359.91802,114.617523 C359.755354,114.73194 359.574706,114.771168 359.381796,114.735209 C359.194608,114.698432 359.030308,114.589736 358.891348,114.408303 C358.377195,113.772472 357.723263,113.058183 356.930372,112.265438 C356.62139,111.919735 356.624659,111.57485 356.940181,111.229147 C357.089768,111.091029 357.266329,111.026466 357.465778,111.038725 Z M370.035968,110.43068 C370.218252,110.460919 370.378465,110.563894 370.51906,110.739606 C370.567287,110.800084 370.66129,110.915318 370.798615,111.084491 C371.253098,111.623068 371.571072,112.041507 371.754172,112.337357 C372.001849,112.743537 371.965882,113.088422 371.645456,113.37283 C371.269446,113.609019 370.941663,113.542821 370.662925,113.1726 C370.30081,112.621765 369.888834,112.101168 369.427812,111.610809 C369.138448,111.260203 369.165423,110.91777 369.510371,110.585143 C369.673854,110.45765 369.848781,110.406162 370.035968,110.43068 Z M324.88309,70.9174469 L324.88309,76.3481648 L310.366,76.3477082 L308.664875,82.8469423 C310.280044,82.2764904 312.043869,81.9612143 313.88495,81.9612143 C321.596432,81.9612143 327.878258,87.2391039 327.878258,93.7101986 C327.878258,100.420752 321.596432,105.688834 313.88495,105.688834 C308.38539,105.688834 303.570005,102.883167 301.357265,98.7666097 L306.822494,96.0107962 L306.833938,95.9805574 C307.906385,98.5189788 310.669244,100.420752 313.88495,100.420752 C318.191086,100.420752 321.596432,97.3061593 321.596432,93.7101986 C321.596432,90.1109688 318.191086,87.2391039 313.88495,87.2391039 C311.530798,87.2391039 309.432497,88.193668 308.042076,89.6655601 L303.262,88.0487082 L301.573798,87.7101747 L305.836,71.4257082 L305.83653,70.9174469 L324.88309,70.9174469 Z M350.846034,70.9787416 L343.135313,83.8256073 C343.707029,83.7647367 344.290234,83.7333691 344.882428,83.7333691 C351.956327,83.7333691 357.844159,88.4089353 357.844159,94.3667883 C357.844159,100.111336 351.956327,104.795892 344.882428,104.795892 C337.652402,104.795892 331.762118,100.111336 331.762118,94.3667883 C331.762118,92.8834682 332.12723,91.4796313 332.787229,90.2076442 L332.796097,90.1905942 C332.974697,89.8480735 333.174696,89.5151483 333.39472,89.1928439 L344.327976,70.9787416 L350.846034,70.9787416 Z M377.705027,70.9788234 C386.71211,70.9788234 394.101531,78.4911122 394.101531,87.6665328 C394.101531,96.8411362 386.71211,104.358329 377.705027,104.358329 C368.701213,104.358329 361.313427,96.8411362 361.313427,87.6665328 C361.313427,78.4911122 368.701213,70.9788234 377.705027,70.9788234 Z M415.318325,70.9788234 C424.325408,70.9788234 431.714829,78.4911122 431.714829,87.6665328 C431.714829,96.8411362 424.325408,104.358329 415.318325,104.358329 C406.314512,104.358329 398.926725,96.8411362 398.926725,87.6665328 C398.926725,78.4911122 406.314512,70.9788234 415.318325,70.9788234 Z M448.377974,70.5415055 C455.608,70.5415055 461.498284,75.6224345 461.498284,81.8532537 C461.498284,82.9807981 461.318908,84.0660327 460.984337,85.0893873 L461.056227,85.1290105 L460.850758,85.4726038 C460.385334,86.728938 459.683309,87.8852183 458.791577,88.9034952 L449.51516,104.35841 L442.99792,104.319182 L449.600784,93.3376961 C449.198098,93.3699914 448.790214,93.3864804 448.377974,93.3864804 C441.304075,93.3864804 435.416243,88.3145413 435.416243,81.8532537 C435.416243,75.6224345 441.304075,70.5415055 448.377974,70.5415055 Z M344.882428,88.4089353 C340.845221,88.4089353 337.652402,91.1745559 337.652402,94.3667883 C337.652402,97.5614725 340.845221,100.111336 344.882428,100.111336 C348.749613,100.111336 351.956327,97.5614725 351.956327,94.3667883 C351.956327,91.1745559 348.749613,88.4089353 344.882428,88.4089353 Z M377.705027,76.2926726 C371.576875,76.2926726 366.538336,81.4348964 366.538336,87.6665328 C366.538336,93.8989865 371.576875,99.0403931 377.705027,99.0403931 C383.833178,99.0403931 388.691886,93.8989865 388.691886,87.6665328 C388.691886,81.4348964 383.833178,76.2926726 377.705027,76.2926726 Z M415.318325,76.2926726 C409.190173,76.2926726 404.151634,81.4348964 404.151634,87.6665328 C404.151634,93.8989865 409.190173,99.0403931 415.318325,99.0403931 C421.446477,99.0403931 426.305185,93.8989865 426.305185,87.6665328 C426.305185,81.4348964 421.446477,76.2926726 415.318325,76.2926726 Z M277.533739,78.1924023 C271.706395,78.1924023 266.873845,82.265645 266.873845,87.3702747 C266.873845,92.4700008 271.706395,96.8873116 277.533739,96.8873116 C283.618567,96.8873116 288.429865,92.4700008 288.429865,87.3702747 C288.429865,82.265645 283.618567,78.1924023 277.533739,78.1924023 Z M448.377974,75.6224345 C444.510789,75.6224345 441.304075,78.3880552 441.304075,81.8532537 C441.304075,85.3151832 444.510789,88.3145413 448.377974,88.3145413 C450.834437,88.3145413 452.978291,87.2041232 454.280525,85.554728 L455.126698,84.1450515 C455.437944,83.4265448 455.608,82.652218 455.608,81.8532537 C455.608,78.3880552 452.415181,75.6224345 448.377974,75.6224345 Z" id="形状结合"></path>
            </g>
        </g>
    </g>
</svg>