<?xml version="1.0" encoding="UTF-8"?>
<svg width="24px" height="24px" viewBox="0 0 24 24" version="1.1" xmlns="http://www.w3.org/2000/svg" xmlns:xlink="http://www.w3.org/1999/xlink">
    <!-- Generator: Sketch 57 (83077) - https://sketch.com -->
    <title>形状 copy 2备份</title>
    <desc>Created with Sketch.</desc>
    <g id="工作日志" stroke="none" stroke-width="1" fill="none" fill-rule="evenodd">
        <g id="画板" transform="translate(-199.000000, -214.000000)" fill="#BCBCBC" fill-rule="nonzero">
            <g id="编组">
                <path d="M200.891453,236.090854 L221.108547,236.090854 L221.108547,223.354899 L200.891453,223.354899 L200.891453,236.090854 Z M203.957389,218.267028 L200.891453,218.267028 L200.891453,221.445751 L221.108547,221.445751 L221.108547,218.267028 L218.038821,218.267028 L218.038821,218.658304 C218.038922,218.911721 217.939279,219.15477 217.761867,219.333855 C217.584454,219.512939 217.343843,219.613349 217.093095,219.612943 C216.571158,219.612943 216.147495,219.185283 216.147495,218.658304 L216.147495,218.267028 L205.848716,218.267028 L205.848716,218.658304 C205.848716,219.185283 205.425053,219.612943 204.903116,219.612943 C204.381053,219.612943 203.957389,219.185283 203.957389,218.658304 L203.957389,218.267028 L203.957389,218.267028 Z M222.054274,216.357752 C222.305022,216.357345 222.545633,216.457755 222.723045,216.63684 C222.900458,216.815924 223,217.058974 223,217.31239 L223,237.045364 C223,237.298781 222.900458,237.54183 222.723045,237.720915 C222.545633,237.899999 222.305022,238.000409 222.054274,238.000004 L199.945726,238.000004 C199.423663,238.000004 199,237.572343 199,237.045364 L199,217.31239 C199,216.785411 199.423663,216.357752 199.945726,216.357752 L203.957389,216.357752 L203.957389,214.954646 C203.957288,214.701229 204.056931,214.45818 204.234344,214.279095 C204.411757,214.100011 204.652367,213.999601 204.903116,214.000004 C205.153842,213.999635 205.394421,214.10006 205.571806,214.279141 C205.749191,214.458222 205.848817,214.701252 205.848716,214.954646 L205.848716,216.357752 L216.147495,216.357752 L216.147495,214.954646 C216.147394,214.701252 216.247019,214.458222 216.424405,214.279141 C216.60179,214.10006 216.842368,213.999635 217.093095,214.000004 C217.343936,213.999294 217.584723,214.099606 217.762201,214.278757 C217.93968,214.457908 218.039225,214.701136 218.038821,214.954646 L218.038821,216.357752 L222.0544,216.357752 L222.054274,216.357752 Z M205.774947,226.049026 C206.297011,226.049026 206.720674,226.476686 206.720674,227.003664 C206.720674,227.530515 206.297011,227.958175 205.774947,227.958175 L204.258147,227.958175 C203.736084,227.958175 203.312421,227.530515 203.312421,227.003664 C203.312421,226.476686 203.736084,226.049026 204.258147,226.049026 L205.774947,226.049026 Z M211.757642,226.049026 C212.279705,226.049026 212.703368,226.476686 212.703368,227.003664 C212.703368,227.530515 212.279705,227.958175 211.757642,227.958175 L210.240842,227.958175 C209.718779,227.958175 209.295116,227.530515 209.295116,227.003664 C209.295116,226.476686 209.718779,226.049026 210.240842,226.049026 L211.757642,226.049026 Z M217.740337,226.049026 C218.2624,226.049026 218.686063,226.476686 218.686063,227.003664 C218.686063,227.530515 218.2624,227.958175 217.740337,227.958175 L216.223537,227.958175 C215.701474,227.958175 215.27781,227.530515 215.27781,227.003664 C215.27781,226.476686 215.701474,226.049026 216.223537,226.049026 L217.740337,226.049026 Z M205.774947,230.808047 C206.297011,230.808047 206.720674,231.235706 206.720674,231.762557 C206.720674,232.289536 206.297011,232.717195 205.774947,232.717195 L204.258147,232.717195 C203.736084,232.717195 203.312421,232.289536 203.312421,231.762557 C203.312421,231.235706 203.736084,230.808047 204.258147,230.808047 L205.774947,230.808047 L205.774947,230.808047 Z M211.757642,230.808047 C212.279705,230.808047 212.703368,231.235706 212.703368,231.762557 C212.703368,232.289536 212.279705,232.717195 211.757642,232.717195 L210.240842,232.717195 C209.718779,232.717195 209.295116,232.289536 209.295116,231.762557 C209.295116,231.235706 209.718779,230.808047 210.240842,230.808047 L211.757642,230.808047 Z M217.740337,230.808047 C218.2624,230.808047 218.686063,231.235706 218.686063,231.762557 C218.686063,232.289536 218.2624,232.717195 217.740337,232.717195 L216.223537,232.717195 C215.701474,232.717195 215.27781,232.289536 215.27781,231.762557 C215.27781,231.235706 215.701474,230.808047 216.223537,230.808047 L217.740337,230.808047 Z" id="形状-copy-2备份"></path>
            </g>
        </g>
    </g>
</svg>