<?xml version="1.0" encoding="UTF-8"?>
<svg width="69px" height="69px" viewBox="0 0 69 69" version="1.1" xmlns="http://www.w3.org/2000/svg" xmlns:xlink="http://www.w3.org/1999/xlink">
    <title>拍照2</title>
    <g id="页面-1" stroke="none" stroke-width="1" fill="none" fill-rule="evenodd">
        <g id="编组" transform="translate(0.307890, 0.820000)">
            <ellipse id="椭圆形" fill="#C41E21" cx="34.0298072" cy="34.0740741" rx="34.0298072" ry="34.0740741"></ellipse>
            <path d="M38.7716907,16.8964815 C39.4914211,16.8964815 40.1652113,17.2338148 40.6812733,17.9207482 L40.8267507,18.1676148 L42.4882561,21.4964815 L49.1985938,21.4964815 C50.2444999,21.4964815 51.1433973,22.2002815 51.4282268,23.2966148 L51.4772297,23.5220148 L51.4956058,23.7964815 L51.4956058,31.4631481 C51.4956058,32.3099848 50.8100009,32.9964815 49.9642645,32.9964815 C49.118528,32.9964815 48.4329231,32.3099848 48.4329231,31.4631481 C48.4329231,31.4394557 48.4334598,31.4158887 48.4345216,31.3924588 L48.4375171,24.5631482 L41.5418872,24.5631482 C41.0299926,24.5632249 40.5519126,24.3071884 40.2678112,23.8808148 L40.172868,23.7152148 L38.3046316,19.9631482 L27.9435762,19.9554815 L26.0646204,23.7152148 C25.8056671,24.2341065 25.2764472,24.562258 24.6971326,24.5631482 L17.8060966,24.5570148 L17.7999713,44.4964815 L42.237414,44.4994815 L42.3075578,44.4964815 C43.1063089,44.4964815 43.7622266,45.1088196 43.8326411,45.8902502 L43.8388992,46.0298148 C43.8388992,46.8766514 43.1532943,47.5631481 42.3075578,47.5631481 L17.040426,47.5631481 C15.9256095,47.5631481 14.9777092,46.7627481 14.7617901,45.5391481 L14.743414,45.2631481 L14.743414,23.7964815 C14.743414,22.6802148 15.5427742,21.7310815 16.7647845,21.5148815 L17.040426,21.4964815 L23.747701,21.4964815 L25.412269,18.1691482 C25.6986298,17.5956815 26.2085665,17.1724815 26.9099208,16.9792815 L27.1824995,16.9179482 L27.467329,16.8964815 L38.7716907,16.8964815 Z M49.9642645,35.2964815 C50.8100009,35.2964815 51.4956058,35.9820863 51.4956058,36.8278228 L51.4948992,39.8964815 L54.5562964,39.8964815 C55.403133,39.8964815 56.0896298,40.5829782 56.0896298,41.4298148 C56.0896298,42.2766514 55.403133,42.9631481 54.5562964,42.9631481 L51.4948992,42.9624815 L51.4956058,46.0318068 C51.4956058,46.8775433 50.8100009,47.5631481 49.9642645,47.5631481 C49.118528,47.5631481 48.4329231,46.8775433 48.4329231,46.0318068 L48.4328992,42.9624815 L45.3722325,42.9631481 C44.5253959,42.9631481 43.8388992,42.2766514 43.8388992,41.4298148 C43.8388992,40.5829782 44.5253959,39.8964815 45.3722325,39.8964815 L48.4328992,39.8964815 L48.4329231,36.8278228 C48.4329231,35.9820863 49.118528,35.2964815 49.9642645,35.2964815 Z M33.1195099,24.5631482 C36.4020833,24.5631482 39.4353062,26.3166582 41.0765929,29.1631481 C42.7178796,32.009638 42.7178796,35.5166583 41.0765929,38.3631482 C39.4353062,41.2096381 36.4020833,42.9631482 33.1195099,42.9631482 C28.0450911,42.9631482 23.9314619,38.8441679 23.9314619,33.7631482 C23.9314619,28.6821285 28.0450911,24.5631482 33.1195099,24.5631482 Z M33.1195099,27.6298148 C30.9310159,27.6296471 28.9086925,28.7986171 27.8143972,30.6963459 C26.7201019,32.5940748 26.7201019,34.9322215 27.8143972,36.8299503 C28.9086925,38.7276792 30.9310159,39.8966492 33.1195099,39.8964815 C36.5022726,39.8962222 39.2444063,37.1503113 39.2444063,33.7631481 C39.2444063,30.375985 36.5022726,27.6300741 33.1195099,27.6298148 Z M44.6045698,26.0964815 C45.8731745,26.0964815 46.9015818,27.1262265 46.9015818,28.3964815 C46.9015818,29.6667364 45.8731745,30.6964815 44.6045698,30.6964815 C43.3359651,30.6964815 42.3075578,29.6667364 42.3075578,28.3964815 C42.3075578,27.1262265 43.3359651,26.0964815 44.6045698,26.0964815 Z" id="形状结合" fill="#FFFFFF" fill-rule="nonzero"></path>
        </g>
    </g>
</svg>
