<?xml version="1.0" standalone="no"?>
<!DOCTYPE svg PUBLIC "-//W3C//DTD SVG 1.1//EN" "http://www.w3.org/Graphics/SVG/1.1/DTD/svg11.dtd">
<svg t="1647785395886" class="icon" viewBox="0 0 1024 1024" version="1.1" xmlns="http://www.w3.org/2000/svg" p-id="2590" xmlns:xlink="http://www.w3.org/1999/xlink" width="200" height="200">
  <defs>
    <style type="text/css"></style>
  </defs>
  <path d="M500.342154 0.682667C224.492308 0.682667 0.813949 224.334769 0.813949 500.184615c0 275.876103 223.652103 499.528205 499.528205 499.528206 275.876103 0 499.528205-223.652103 499.528205-499.528206C999.844103 224.334769 776.218256 0.682667 500.342154 0.682667z m214.226051 648.979692a45.791179 45.791179 0 0 1-64.774564 64.748308l-149.451487-149.451488-149.451487 149.451488a45.791179 45.791179 0 1 1-64.748308-64.748308l149.451487-149.451487-149.451487-149.451487a45.791179 45.791179 0 1 1 64.748308-64.774564l149.451487 149.451487 149.451487-149.451487a45.791179 45.791179 0 0 1 64.774564 64.774564l-149.451487 149.451487 149.451487 149.451487z" p-id="2591"></path>
</svg>
