<?xml version="1.0" encoding="UTF-8"?>
<svg width="22px" height="24px" viewBox="0 0 22 24" version="1.1" xmlns="http://www.w3.org/2000/svg" xmlns:xlink="http://www.w3.org/1999/xlink">
    <title>copy</title>
    <g id="第二版-投保流程-10.18" stroke="none" stroke-width="1" fill="none" fill-rule="evenodd">
        <g id="收银台" transform="translate(-617.000000, -445.000000)" fill="#979797" fill-rule="nonzero">
            <g id="编组" transform="translate(111.000000, 437.000000)">
                <g id="copy" transform="translate(506.000000, 8.429873)">
                    <path d="M16.0145378,5.14492393 C17.1201109,5.14492393 18.016355,6.04116803 18.016355,7.14674115 L18.016355,21.1594617 C18.016355,22.2650348 17.1201109,23.1612789 16.0145378,23.1612789 L2.00181722,23.1612789 C0.896244097,23.1612789 0,22.2650348 0,21.1594617 L0,7.14674115 C0,6.04116803 0.896244097,5.14492393 2.00181722,5.14492393 L16.0145378,5.14492393 Z M16.0145378,7.14674115 L2.00181722,7.14674115 L2.00181722,21.1594617 L16.0145378,21.1594617 L16.0145378,7.14674115 Z M18.9972742,1.10134124e-13 C20.5964067,1.10134124e-13 21.9035733,1.25005475 21.9949027,2.82629288 L22,3.00272583 L22,15.1154362 C22,16.7145687 20.7499453,18.0217353 19.1737071,18.1130647 L18.9972742,18.118162 L18.9972742,16.1163448 C19.510576,16.1163448 19.9336313,15.7299538 19.9914489,15.2321633 L19.9981828,15.1154362 L19.9981828,3.00272583 C19.9981828,2.48942402 19.6117918,2.06636866 19.1140013,2.00855106 L18.9972742,2.00181722 L6.88456383,2.00181722 C6.37126202,2.00181722 5.94820665,2.38820817 5.89038906,2.88599874 L5.88365522,3.00272583 L5.88365522,4.35517546 L3.881838,4.35517546 L3.881838,3.00272583 C3.881838,1.40359328 5.13189274,0.0964266552 6.70813087,0.00509732068 L6.88456383,1.10134124e-13 L18.9972742,1.10134124e-13 Z" id="形状结合"></path>
                </g>
            </g>
        </g>
    </g>
</svg>