<?xml version="1.0" encoding="UTF-8"?>
<svg width="34px" height="34px" viewBox="0 0 34 34" version="1.1" xmlns="http://www.w3.org/2000/svg"
  xmlns:xlink="http://www.w3.org/1999/xlink">
  <title>shanchu备份 3</title>
  <g id="产品详情+保费试算+计划书" stroke="none" stroke-width="1" fill="currentColor" fill-rule="evenodd">
    <g id="2023-04-13-小明-弹窗-保费试算-主要增加被保险人信息这一块内容备份" transform="translate(-687.000000, -1835.000000)" fill="currentColor"
      fill-rule="nonzero" stroke="currentColor">
      <g id="shanchu备份-3" transform="translate(688.000000, 1836.000000)">
        <path
          d="M26.5454545,10.0606061 C27.1515152,10.0606061 27.7575758,10.6666667 27.7575758,11.2727273 L27.7575758,27.8787879 C28,29.9393939 26.4242424,31.6363636 24.3636364,31.6363636 L7.27272727,31.6363636 C5.33333333,31.6363636 3.63636364,29.9393939 3.63636364,27.7575758 L3.63636364,11.2727273 C3.63636364,10.5454545 4.24242424,10.0606061 4.84848485,10.0606061 C5.45454545,10.0606061 6.06060606,10.6666667 6.06060606,11.2727273 L6.06060606,27.8787879 C6.06060606,28.6060606 6.54545455,29.2121212 7.15151515,29.2121212 L24.2424242,29.2121212 C24.8484848,29.2121212 25.3333333,28.6060606 25.3333333,27.8787879 L25.3333333,11.2727273 C25.3333333,10.5454545 25.9393939,10.0606061 26.5454545,10.0606061 Z M11.6363636,10.9090909 C12.3636364,10.9090909 12.969697,11.5151515 12.969697,12.2424242 L12.969697,23.1515152 C12.969697,23.8787879 12.3636364,24.4848485 11.6363636,24.4848485 C10.9090909,24.4848485 10.3030303,23.8787879 10.3030303,23.1515152 L10.3030303,12.2424242 C10.3030303,11.5151515 10.9090909,10.9090909 11.6363636,10.9090909 Z M20.1212121,10.9090909 C20.8484848,10.9090909 21.4545455,11.5151515 21.4545455,12.2424242 L21.4545455,23.1515152 C21.4545455,23.8787879 20.8484848,24.4848485 20.1212121,24.4848485 C19.3939394,24.4848485 18.7878788,23.8787879 18.7878788,23.1515152 L18.7878788,12.2424242 C18.7878788,11.5151515 19.3939394,10.9090909 20.1212121,10.9090909 Z M30.4242424,7.51515152 L1.33333333,7.51515152 C0.606060606,7.51515152 0,6.90909091 0,6.18181818 C0,5.45454545 0.606060606,4.84848485 1.33333333,4.84848485 L30.4242424,4.84848485 C31.1515152,4.84848485 31.7575758,5.45454545 31.7575758,6.18181818 C31.7575758,6.90909091 31.1515152,7.51515152 30.4242424,7.51515152 Z M20.7272727,2.66666667 L11.030303,2.66666667 C10.3030303,2.66666667 9.6969697,2.06060606 9.6969697,1.33333333 C9.6969697,0.606060606 10.3030303,0 11.030303,0 L20.7272727,0 C21.4545455,0 22.0606061,0.606060606 22.0606061,1.33333333 C22.0606061,2.06060606 21.4545455,2.66666667 20.7272727,2.66666667 Z"
          id="形状结合"></path>
      </g>
    </g>
  </g>
</svg>
