<?xml version="1.0" standalone="no"?>
<!DOCTYPE svg PUBLIC "-//W3C//DTD SVG 1.1//EN" "http://www.w3.org/Graphics/SVG/1.1/DTD/svg11.dtd">
<svg t="1647784810916" class="icon" viewBox="0 0 1024 1024" version="1.1" xmlns="http://www.w3.org/2000/svg" p-id="2193" xmlns:xlink="http://www.w3.org/1999/xlink" width="200" height="200">
  <defs>
    <style type="text/css"></style>
  </defs>
  <path d="M419.384832 0.004974l189.994963 2.720901a110.503692 110.503692 0 0 1 80.778579 36.863821 120.919184 120.919184 0 0 1 31.21722 83.470223l-0.994738 32.621556h190.814159a39.584722 39.584722 0 1 1 0 79.169444h-36.337195v657.37555a118.871194 118.871194 0 0 1-118.783423 118.754166H267.804311a118.871194 118.871194 0 0 1-118.783423-118.783423V234.850919H112.683693a39.584722 39.584722 0 1 1 0-79.169444h190.229019l1.17028-39.145867a120.509586 120.509586 0 0 1 33.55778-81.919602A110.91329 110.91329 0 0 1 419.384832 0.004974zM795.717633 234.850919H228.190332v657.404807c0 21.825723 17.758999 39.555465 39.584722 39.555465h488.299343c21.85498 0 39.613979-17.729742 39.613979-39.555465V234.850919zM342.058579 399.421548c21.85498 0 39.584722 17.729742 39.584722 39.584722v323.055802a39.584722 39.584722 0 1 1-79.169444 0V439.00627c0-21.85498 17.729742-39.584722 39.584722-39.584722z m169.866147 0c21.85498 0 39.584722 17.729742 39.584722 39.584722v323.055802a39.584722 39.584722 0 1 1-79.169444 0V439.00627c0-21.85498 17.729742-39.584722 39.584722-39.584722z m169.866146 0c21.85498 0 39.584722 17.729742 39.584722 39.584722v323.055802a39.584722 39.584722 0 1 1-79.169444 0V439.00627c0-21.85498 17.729742-39.584722 39.584722-39.584722zM418.273066 79.203675c-9.332983-0.58514-17.086088 3.51084-23.639656 10.298464a41.954539 41.954539 0 0 0-11.410231 28.759632l-1.141023 37.419704h259.099999l1.023995-34.376976a41.603455 41.603455 0 0 0-10.620291-28.437805c-6.290255-6.963166-14.599243-10.854347-23.288573-10.971375z" p-id="2194"></path>
</svg>
