<?xml version="1.0" standalone="no"?><!DOCTYPE svg PUBLIC "-//W3C//DTD SVG 1.1//EN" "http://www.w3.org/Graphics/SVG/1.1/DTD/svg11.dtd"><svg t="1650877852239" class="icon" viewBox="0 0 1322 1024" version="1.1" xmlns="http://www.w3.org/2000/svg" p-id="1922" xmlns:xlink="http://www.w3.org/1999/xlink" width="61.96875" height="48"><defs><style type="text/css">@font-face { font-family: feedback-iconfont; src: url("//at.alicdn.com/t/font_1031158_u69w8yhxdu.woff2?t=1630033759944") format("woff2"), url("//at.alicdn.com/t/font_1031158_u69w8yhxdu.woff?t=1630033759944") format("woff"), url("//at.alicdn.com/t/font_1031158_u69w8yhxdu.ttf?t=1630033759944") format("truetype"); }
</style></defs><path d="M660.138667 0c326.229333 0 603.690667 205.909333 659.370666 490.154667 1.066667 5.546667 1.066667 11.136 0 16.64-20.138667 102.826667-71.04 199.381333-147.2 279.466666a45.44 45.44 0 0 1-63.146666 2.218667 43.52 43.52 0 0 1-2.346667-62.421333c59.136-62.208 100.224-135.765333 119.722667-214.058667l3.072-13.568-2.133334-9.856c-53.802667-224.981333-274.858667-388.693333-538.666666-399.872l-14.421334-0.426667-14.250666-0.170666c-276.309333 0-511.573333 167.424-567.296 400.469333l-2.261334 9.898667 2.261334 9.941333c53.76 224.981333 274.816 388.736 538.624 399.872l14.421333 0.426667 14.250667 0.170666c113.194667 0 222.762667-28.330667 316.842666-81.92a45.354667 45.354667 0 0 1 61.141334 15.872c12.586667 21.12 5.290667 48.213333-16.213334 60.458667-107.733333 61.312-232.832 93.696-361.770666 93.696-326.229333 0-603.648-205.866667-659.370667-490.24a44.202667 44.202667 0 0 1 0-16.597333C56.533333 205.909333 333.952 0 660.181333 0z m1.578666 222.933333l9.984 0.170667c152.874667 5.333333 274.474667 130.346667 274.474667 282.922667 0 156.373333-127.488 283.178667-284.672 283.178666-157.184 0-284.672-126.805333-284.672-283.178666 0-153.045333 122.112-277.717333 274.688-282.922667l10.197333-0.170667z m-0.213333 112.469334a170.666667 170.666667 0 0 0-16.042667 340.565333l8.448 0.597333 7.424 0.170667 7.594667-0.170667 7.338667-0.469333a170.709333 170.709333 0 0 0-14.762667-340.693333z" p-id="1923" fill="#B7935E"></path></svg>