<?xml version="1.0" encoding="UTF-8"?>
<svg width="30px" height="30px" viewBox="0 0 30 30" version="1.1" xmlns="http://www.w3.org/2000/svg" xmlns:xlink="http://www.w3.org/1999/xlink">
    <title>女的</title>
    <g id="终稿" stroke="none" stroke-width="1" fill="none" fill-rule="evenodd">
        <g id="女的">
            <circle id="椭圆形" fill="#FF694F" cx="15" cy="15" r="15"></circle>
            <g id="女" transform="translate(5.000000, 5.000000)" fill="#FFFFFF" fill-rule="nonzero">
                <path d="M17.7119199,2.22937845 C16.2852348,0.802638122 14.3882735,0.0168646409 12.3705663,0.0168646409 C10.3528591,0.0168646409 8.45592541,0.802610497 7.02921271,2.2293232 C5.60244475,3.65606354 4.81675414,5.55299724 4.81675414,7.57073204 C4.81672652,9.21523481 5.33882597,10.7794337 6.30437845,12.074268 L5.00506906,13.3735497 L1.90316298,10.2716436 C1.47164365,9.84012431 0.772030387,9.84012431 0.34051105,10.2716436 C-0.0910082873,10.7031354 -0.0910082873,11.4027762 0.34051105,11.8342956 L3.44241713,14.9362017 L2.23912983,16.139489 C1.80763812,16.5709807 1.80763812,17.2706215 2.23912983,17.7021133 C2.6706768,18.1336602 3.37029006,18.1336326 3.80180939,17.7021133 L5.00506906,16.4988536 L8.10700276,19.6007597 C8.53849448,20.032279 9.23810773,20.032279 9.66962707,19.6007597 C10.101174,19.1692403 10.101174,18.4696271 9.66962707,18.0381077 L6.56772099,14.9362293 L7.86703039,13.6369475 C9.16189227,14.6024724 10.7260635,15.1245994 12.3705663,15.1245994 C14.3882735,15.1245994 16.2851796,14.3388536 17.7119199,12.9121133 C19.1386602,11.4853729 19.9244061,9.58843923 19.9244061,7.57073204 C19.9244061,5.55302486 19.1386326,3.65606354 17.7119199,2.22937845 Z M16.149268,11.3494337 C15.1399586,12.3587431 13.7979696,12.9146271 12.3705663,12.9146271 C10.943163,12.9146271 9.60120166,12.3587431 8.59186464,11.3494337 C7.58252762,10.3401243 7.02667127,8.99813536 7.02667127,7.57073204 C7.02667127,6.14327348 7.58252762,4.80131215 8.59186464,3.79200276 C9.60117403,2.78266575 10.943163,2.22680939 12.3705663,2.22680939 C13.7979696,2.22680939 15.1399586,2.78269337 16.149268,3.79203039 C17.1585773,4.80133978 17.7144613,6.1433011 17.7144613,7.57070442 C17.7144613,8.99813536 17.1586326,10.3400967 16.149268,11.3494337 Z" id="形状"></path>
            </g>
        </g>
    </g>
</svg>