<?xml version="1.0" standalone="no"?><!DOCTYPE svg PUBLIC "-//W3C//DTD SVG 1.1//EN" "http://www.w3.org/Graphics/SVG/1.1/DTD/svg11.dtd"><svg t="1651995084255" class="icon" viewBox="0 0 1024 1024" version="1.1" xmlns="http://www.w3.org/2000/svg" p-id="3093" xmlns:xlink="http://www.w3.org/1999/xlink" width="200" height="200"><defs><style type="text/css">@font-face { font-family: feedback-iconfont; src: url("//at.alicdn.com/t/font_1031158_u69w8yhxdu.woff2?t=1630033759944") format("woff2"), url("//at.alicdn.com/t/font_1031158_u69w8yhxdu.woff?t=1630033759944") format("woff"), url("//at.alicdn.com/t/font_1031158_u69w8yhxdu.ttf?t=1630033759944") format("truetype"); }
</style></defs><path d="M881.529544 0c93.050435 0 150.171826 99.995826 103.958261 178.398609l-4.006956 6.277565-295.936 440.186435a29.028174 29.028174 0 0 0-4.674783 11.887304l-0.311652 4.274087v234.941217h-89.043478v-234.941217c0-20.524522 5.342609-40.603826 15.493565-58.368l4.630261-7.479652 295.980521-440.186435c12.332522-18.387478 0.445217-42.696348-21.548521-45.634783L881.529544 89.043478H142.468675c-23.28487 0-37.398261 23.151304-28.226783 42.206609l2.137044 3.739826 295.980521 440.186435c11.486609 17.051826 18.253913 36.730435 19.767653 57.076869l0.356173 8.770783V1024h-89.043478v-382.976a28.805565 28.805565 0 0 0-2.849391-12.377043l-2.137044-3.784348L42.472849 184.676174C-9.350456 107.52 43.942066 5.520696 135.033544 0.222609L142.468675 0h739.060869z"  p-id="3094"></path></svg>
