<?xml version="1.0" encoding="UTF-8"?>
<svg width="44px" height="44px" viewBox="0 0 44 44" version="1.1" xmlns="http://www.w3.org/2000/svg" xmlns:xlink="http://www.w3.org/1999/xlink">
    <title>icon-zhaopiantuku</title>
    <g id="短险+长险+计划书" stroke="none" stroke-width="1" fill="none" fill-rule="evenodd">
        <g id="拍照上传的组件" transform="translate(-613.000000, -1220.000000)">
            <g id="icon-zhaopiantuku" transform="translate(613.000000, 1220.000000)">
                <g id="编组" transform="translate(3.000000, 7.000000)">
                    <rect id="矩形" stroke="#333333" stroke-width="2" x="6.84637153" y="6.87779676" width="31" height="23" rx="5"></rect>
                    <circle id="椭圆形" fill="#333333" cx="17.8463715" cy="14.8777968" r="3"></circle>
                    <path d="M6.97323428,26.3251695 L13.0552835,21.3083083 C13.7646399,20.7231859 14.7815666,20.6971471 15.5199385,21.2451998 L17.7727116,22.9173091 C18.512873,23.4666901 19.5326488,23.4390542 20.2419693,22.8503924 L26.2703114,17.8474992 C27.0069675,17.2361516 28.0735363,17.2325325 28.8143244,17.8388667 L37.7629904,25.1633396 L37.7629904,25.1633396 L36.7507279,29.2108118 L32.1239183,30.1697475 L10.2589853,30.1697475 L7.61220921,28.740337 L6.97323428,26.3251695 Z" id="路径-119" fill="#333333"></path>
                    <path d="M28.7311183,5.87779676 L28.7311183,4 C28.7311183,1.790861 26.9402573,-4.05812251e-16 24.7311183,0 L4,0 C1.790861,4.05812251e-16 -1.60280913e-15,1.790861 0,4 L0,18.1579787 C-1.69156808e-15,20.3671177 1.790861,22.1579787 4,22.1579787 L5.84637153,22.1579787 L5.84637153,22.1579787" id="路径-2" stroke="#333333" stroke-width="2"></path>
                </g>
            </g>
        </g>
    </g>
</svg>