<?xml version="1.0" encoding="UTF-8"?>
<svg width="44px" height="44px" viewBox="0 0 44 44" version="1.1" xmlns="http://www.w3.org/2000/svg" xmlns:xlink="http://www.w3.org/1999/xlink">
    <title>icon-paizhao</title>
    <g id="短险+长险+计划书" stroke="none" stroke-width="1" fill="none" fill-rule="evenodd">
        <g id="拍照上传的组件" transform="translate(-613.000000, -1305.000000)" stroke="#333333" stroke-width="2">
            <g id="icon-paizhao" transform="translate(613.000000, 1305.000000)">
                <g id="编组-3" transform="translate(3.000000, 7.000000)">
                    <path d="M22.2911708,0 C23.0868202,0 23.849882,0.316070521 24.4124911,0.878679656 L26.354,2.821 L33,2.82155779 C35.7614237,2.82155779 38,5.06013404 38,7.82155779 L38,23.8215578 C38,26.5829815 35.7614237,28.8215578 33,28.8215578 L5,28.8215578 C2.23857625,28.8215578 -1.43817996e-15,26.5829815 0,23.8215578 L0,7.82155779 C-3.38176876e-16,5.06013404 2.23857625,2.82155779 5,2.82155779 L12.094,2.821 L14.0363906,0.878679656 C14.5989997,0.316070521 15.3620615,0 16.157711,0 L22.2911708,0 Z" id="形状结合"></path>
                    <circle id="椭圆形" cx="19" cy="15.8215578" r="7"></circle>
                    <circle id="椭圆形备份" fill="#333333" cx="31" cy="9.82155779" r="1"></circle>
                </g>
            </g>
        </g>
    </g>
</svg>