<?xml version="1.0" encoding="UTF-8"?>
<svg width="331px" height="207px" viewBox="0 0 331 207" version="1.1" xmlns="http://www.w3.org/2000/svg" xmlns:xlink="http://www.w3.org/1999/xlink">
    <title>上传人像反面备份 2</title>
    <g id="页面-1" stroke="none" stroke-width="1" fill="none" fill-rule="evenodd">
        <g id="身份证背面" transform="translate(0.230274, 0.000000)">
            <g id="身份证正面备份">
                <path d="M8.2764,0 L322.493326,0 C327.064256,-3.33180737e-14 330.769726,3.7054705 330.769726,8.2764 L330.769726,198.7236 C330.769726,203.29453 327.064256,207 322.493326,207 L8.2764,207 C3.7054705,207 2.33613426e-15,203.29453 0,198.7236 L0,8.2764 C-5.59777419e-16,3.7054705 3.7054705,2.61602297e-15 8.2764,0 Z" id="矩形" fill-opacity="0.1" fill="#C41E21"></path>
                <path d="M16.5429593,12.42 L315.627203,12.42 C318.484034,12.42 320.799953,14.7359191 320.799953,17.59275 L320.799953,191.602806 C320.799953,194.459636 318.484034,196.775556 315.627203,196.775556 L16.5429593,196.775556 C13.6861284,196.775556 11.3702093,194.459636 11.3702093,191.602806 L11.3702093,17.59275 C11.3702093,14.7359191 13.6861284,12.42 16.5429593,12.42 Z" id="矩形" fill="#FFFFFF"></path>
            </g>
            <rect id="矩形备份-10" fill="#F9E8E8" x="181.038574" y="83.1407407" width="123.868498" height="8.17777778"></rect>
            <rect id="矩形备份-11" fill="#F9E8E8" x="220.513151" y="55.8814815" width="84.3939219" height="8.17777778"></rect>
            <rect id="矩形备份-9" fill="#F9E8E8" x="32.6686149" y="163.555556" width="272.238458" height="8.17777778"></rect>
            <g id="国徽" transform="translate(33.076973, 36.225000)" fill-rule="nonzero">
                <path d="M11.3702093,69.345 L11.3702093,82.8930525 C11.3702093,82.8930525 20.003302,90.6348199 25.3589859,88.6993716 C27.6171795,87.8477778 25.3589859,73.2158709 25.3589859,73.2158709 L11.3702093,69.345 Z M71.3222222,69.345 L71.3222222,82.6414527 C71.3222222,82.6414527 63.3286117,90.3832201 58.2726187,88.4477719 C56.1543137,87.5961781 58.2726187,73.2351656 58.2726187,73.2351656 L71.3222222,69.345 Z" id="形状" fill="#F9E8E8"></path>
                <path d="M23.7740741,71.415 L23.7740741,83.1426553 L23.7740741,83.1426543 C28.9434858,87.0392555 35.3234804,89.1074108 41.8630431,89.0064729 L41.8630439,89.0064729 C48.7362829,88.9061927 55.269675,86.0823148 59.9520129,81.1880596 L59.9520129,71.415 L23.7740741,71.415 Z" id="路径" fill="#F9E8E8"></path>
                <path d="M41.8630453,0 L41.8630435,0 C64.9833555,0 83.726087,18.5354197 83.726087,41.4 C83.726087,64.2645803 64.9833555,82.8 41.8630435,82.8 C18.7427315,82.8 0,64.2645803 0,41.4 L0,41.4000044 C0,18.5354242 18.7427315,0 41.8630435,0 C41.863044,0 41.8630447,0 41.8630453,0 L41.8630453,0 Z" id="路径" fill="#F9E8E8"></path>
                <path d="M41.8630449,10.35 L41.8630435,10.35 C59.2746279,10.35 73.389533,24.4832661 73.389533,41.9175 C73.389533,59.3517339 59.2746279,73.485 41.8630435,73.485 C24.4514591,73.485 10.3365539,59.3517339 10.3365539,41.9175 L10.3365539,41.9175034 C10.3365539,24.4832695 24.4514591,10.35 41.8630435,10.35 C41.8630439,10.35 41.8630444,10.35 41.8630449,10.35 L41.8630449,10.35 Z" id="路径" fill-opacity="0.4" fill="#C41E21"></path>
                <polygon id="路径" fill="#F9E8E8" points="41.8727402 23.805 44.3566196 28.1175004 49.6154589 28.941667 45.8896441 32.4299975 46.6658566 37.26 41.8727462 35.0749997 37.0796358 37.2216665 37.8558482 32.391664 34.110628 28.9225003 39.3888728 28.0983337"></polygon>
                <polygon id="路径" fill="#F9E8E8" points="23.7740759 31.05 25.0971509 33.7203003 27.9086957 34.2378003 25.8413858 36.3077985 26.2548478 39.2678998 23.7740741 38.0052045 21.2106076 39.33 21.7067624 36.3698987 19.6394525 34.2999005 22.4509972 33.7824005"></polygon>
                <path d="M35.0150769,39.8475009 L36.2968055,42.3509071 L39.0204885,42.8360633 L37.0177827,44.7766864 L37.4183239,47.5517811 L35.0150752,46.3680043 L32.5317179,47.61 L33.0123676,44.8349053 L31.0096618,42.8942822 L33.7333449,42.4091261 L35.0150769,39.8475009 Z M59.047564,32.085 L57.7658355,34.5884062 L55.0421524,35.0541561 L57.0448582,36.9947792 L56.5842356,39.8474991 L59.0475657,38.6055035 L61.530923,39.8474991 L61.0502733,37.0724045 L63.0529791,35.1317814 L60.329296,34.6466252 L59.047564,32.085 Z M47.0313646,39.8475009 L45.7496361,42.3509071 L43.0259531,42.816657 L45.0286588,44.7572801 L44.5680362,47.61 L47.0313664,46.3680043 L49.5147237,47.61 L49.0340739,44.8349053 L51.0367797,42.8942822 L48.3130967,42.4091261 L47.0313646,39.8475009 Z" id="形状" fill="#F9E8E8"></path>
                <polygon id="路径" fill="#F9E8E8" points="29.8468282 50.715 53.8792941 50.715 57.8847021 61.065 25.8413849 61.065"></polygon>
                <path d="M11.3702093,58.995 L73.389533,58.995 L73.389533,62.9279983 L11.3702093,62.9279983 L11.3702093,58.995 Z M41.3795994,66.8610052 C45.8009782,66.8610052 49.3821004,69.496117 49.3821004,72.7605026 C49.3821004,76.0248969 45.800987,78.66 41.3795994,78.66 C36.9582205,78.66 33.3770983,76.0248882 33.3770983,72.7605026 C33.3770983,69.4961083 36.9582117,66.8610052 41.3795994,66.8610052 Z" id="形状" fill="#F9E8E8"></path>
            </g>
        </g>
    </g>
</svg>