<?xml version="1.0" encoding="UTF-8"?>
<svg width="331px" height="207px" viewBox="0 0 331 207" version="1.1" xmlns="http://www.w3.org/2000/svg" xmlns:xlink="http://www.w3.org/1999/xlink">
    <title>上传人像正面备份 2</title>
    <g id="页面-1" stroke="none" stroke-width="1" fill="none" fill-rule="evenodd">
        <g id="身份证正面">
            <path d="M8.2764,0 L322.493326,0 C327.064256,-8.39666128e-16 330.769726,3.7054705 330.769726,8.2764 L330.769726,198.7236 C330.769726,203.29453 327.064256,207 322.493326,207 L8.2764,207 C3.7054705,207 4.1124911e-15,203.29453 0,198.7236 L0,8.2764 C-5.59777419e-16,3.7054705 3.7054705,2.61602297e-15 8.2764,0 Z" id="矩形" fill-opacity="0.1" fill="#C41E21"></path>
            <path d="M16.0622883,12.2666667 L315.146532,12.2666667 C318.003363,12.2666667 320.319282,14.5825857 320.319282,17.4394167 L320.319282,191.449472 C320.319282,194.306303 318.003363,196.622222 315.146532,196.622222 L16.0622883,196.622222 C13.2054574,196.622222 10.8895383,194.306303 10.8895383,191.449472 L10.8895383,17.4394167 C10.8895383,14.5825857 13.2054574,12.2666667 16.0622883,12.2666667 Z" id="矩形" fill="#FFFFFF"></path>
            <rect id="矩形" fill="#F9E8E8" opacity="0.496279762" x="236.847458" y="32.7111111" width="68.0596145" height="73.6" rx="2.0691"></rect>
            <path d="M280.942452,53.4908909 C280.921295,54.2040649 280.503646,57.499505 280.614934,58.502703 C280.705911,59.3377244 280.917063,59.4028261 281.266588,60.0901272 C281.850535,61.2802744 281.663503,62.931128 281.433732,64.1363036 C281.309749,64.7973094 281.046973,65.7354114 280.654715,66.2762364 C280.218871,66.8671406 279.334913,66.8759019 278.95577,67.5698752 C278.40229,68.5684843 278.713728,69.9610256 278.371823,71.0339086 C277.960522,72.2578566 276.948347,72.3371477 276.872181,73.9316608 C277.371499,74.0067755 277.86574,74.0685365 278.371401,74.142399 C278.870718,75.1731365 279.772873,77.2533956 280.708457,77.8806005 C281.490014,78.0838274 282.270727,78.2899749 283.050594,78.4994609 C285.798532,79.5877889 288.829978,80.8935279 291.573662,82.0198348 C294.071938,83.0434777 297.066997,83.4119595 297.974661,85.9583415 C297.974661,87.6901528 298.145191,91.7789028 298.090182,94.0444444 L243.661234,94.0444444 C243.615533,91.7784862 243.785216,87.6763917 243.785216,85.9583415 C244.685259,83.4115371 247.675236,83.044311 250.175654,82.0198348 C252.923592,80.893117 255.963077,79.5890446 258.699602,78.4994609 C259.481582,78.2891399 260.265257,78.0788189 261.047237,77.8806005 C261.980281,77.2513066 262.889635,75.1781421 263.395296,74.142399 L264.505221,73.8815845 C264.258947,72.518255 263.388107,72.4193524 263.025043,71.4453663 C262.883288,69.9973235 262.737301,68.5463583 262.598507,67.0999879 C262.598507,67.1700947 261.571525,66.9151226 261.442461,66.835 C259.995289,65.9544884 259.964823,62.3694352 259.824334,60.8804737 C259.765093,60.198184 260.742144,59.6377417 260.462867,58.3875041 C258.875207,51.0784559 261.151753,47.6557231 264.743454,46.5177441 C267.237077,45.5349967 271.894254,43.7184721 276.242956,46.3107616 L277.308027,47.2830811 L279.058598,47.5772798 C279.933249,48.0676113 280.486305,49.693423 280.486305,49.693423 C280.937806,51.4940859 280.989854,51.6455676 280.942461,53.4908816 L280.942452,53.4908909 Z" id="路径" fill-opacity="0.4" fill="#C41E21" fill-rule="nonzero"></path>
            <rect id="矩形备份-5" fill="#F9E8E8" x="61.253653" y="98.1333333" width="123.868498" height="8.17777778"></rect>
            <rect id="矩形备份-6" fill="#F9E8E8" x="61.253653" y="76.3259259" width="123.868498" height="8.17777778"></rect>
            <rect id="矩形备份-7" fill="#F9E8E8" x="61.253653" y="54.5185185" width="123.868498" height="8.17777778"></rect>
            <rect id="矩形备份-8" fill="#F9E8E8" x="61.253653" y="32.7111111" width="123.868498" height="8.17777778"></rect>
            <rect id="矩形" fill="#F9E8E8" x="32.6686149" y="163.555556" width="272.238458" height="8.17777778"></rect>
            <rect id="矩形备份" fill="#F9E8E8" x="32.6686149" y="98.1333333" width="19.056692" height="8.17777778"></rect>
            <rect id="矩形备份-2" fill="#F9E8E8" x="32.6686149" y="76.3259259" width="19.056692" height="8.17777778"></rect>
            <rect id="矩形备份-3" fill="#F9E8E8" x="32.6686149" y="54.5185185" width="19.056692" height="8.17777778"></rect>
            <rect id="矩形备份-4" fill="#F9E8E8" x="32.6686149" y="32.7111111" width="19.056692" height="8.17777778"></rect>
        </g>
    </g>
</svg>