<?xml version="1.0" encoding="UTF-8"?>
<svg width="54px" height="40px" viewBox="0 0 54 40" version="1.1" xmlns="http://www.w3.org/2000/svg" xmlns:xlink="http://www.w3.org/1999/xlink">
    <title>tianjiazhaopian</title>
    <g id="投保流程" stroke="none" stroke-width="1" fill="none" fill-rule="evenodd">
        <g id="信息采集交互" transform="translate(-200.000000, -1637.000000)">
            <g id="编组-21" transform="translate(117.000000, 1487.000000)">
                <g id="tianjiazhaopian" transform="translate(83.000000, 150.000000)">
                    <path d="M3,40 C1.54400001,40 0.306,38.956 0.024,37.36 L-1.38555833e-13,37 L-1.38555833e-13,9 C-1.38555833e-13,7.54400001 1.044,6.306 2.64,6.024 L3,6 L11.76,6 L13.934,1.66000003 C14.308,0.912000046 14.974,0.360000047 15.89,0.108 L16.246,0.0280000312 L16.618,0 L31.382,0 C32.322,0 33.202,0.440000015 33.876,1.33600003 L34.066,1.65800001 L36.236,6 L45,6 C46.3659999,6 47.54,6.91799999 47.912,8.34800001 L47.976,8.64200001 L48,9 L47.999,18.975 L48,19 C48,20.0543618 47.1841222,20.9181651 46.1492623,20.9945143 L46,21 C44.8954305,21 44,20.1045695 44,19 C44,18.9695407 44.0006809,18.9392404 44.0020283,18.9091135 L44.006,10 L35,10 C34.3314429,10.0001001 33.7070491,9.66613946 33.336,9.11000001 L33.212,8.89400001 L30.772,4.00000003 L17.24,3.99 L14.786,8.89400001 C14.4477955,9.57081524 13.7566107,9.99883897 13,10 L3.99999998,9.99200001 L3.99200001,36 L35.881,36.004 L36,36 C37.0543618,36 37.9181651,36.8158778 37.9945143,37.8507377 L38,38 C38,39.1045695 37.1045695,40 36,40 L36,40 L3,40 Z M24,10 C28.2871871,10 32.2487114,12.287187 34.392305,16 C36.5358985,19.7128129 36.5358985,24.2871871 34.392305,28 C32.2487114,31.712813 28.2871871,34 24,34 C17.372583,34 12,28.627417 12,22 C12,15.372583 17.372583,10 24,10 Z M24,14 C21.1417294,13.9997812 18.5004849,15.5245247 17.0712864,17.9998232 C15.642088,20.4751217 15.642088,23.5248783 17.0712864,26.0001768 C18.5004849,28.4754752 21.1417294,30.0002188 24,30 C28.4180388,29.9996618 31.9993876,26.4180389 31.9993876,22 C31.9993876,17.5819611 28.4180388,14.0003382 24,14 Z M39,12 C40.6568542,12 42,13.3431457 42,15 C42,16.6568542 40.6568542,18 39,18 C37.3431457,18 36,16.6568542 36,15 C36,13.3431457 37.3431457,12 39,12 Z" id="形状结合" fill="#393D46" fill-rule="nonzero"></path>
                    <path d="M46,24 C47.1045695,24 48,24.8954305 48,26 L48,30 L52,30 C53.1045695,30 54,30.8954305 54,32 C54,33.1045695 53.1045695,34 52,34 L48,34 L48,38 C48,39.1045695 47.1045695,40 46,40 C44.8954305,40 44,39.1045695 44,38 L44,34 L40,34 C38.8954305,34 38,33.1045695 38,32 C38,30.8954305 38.8954305,30 40,30 L44,30 L44,26 C44,24.8954305 44.8954305,24 46,24 Z" id="形状结合" fill="#0D6EFE"></path>
                </g>
            </g>
        </g>
    </g>
</svg>