<?xml version="1.0" encoding="UTF-8"?>
<svg width="30px" height="30px" viewBox="0 0 30 30" version="1.1" xmlns="http://www.w3.org/2000/svg" xmlns:xlink="http://www.w3.org/1999/xlink">
    <title>男的</title>
    <g id="终稿" stroke="none" stroke-width="1" fill="none" fill-rule="evenodd">
        <g id="男的">
            <g id="女备份" fill="#4FC3FF">
                <circle id="椭圆形" cx="15" cy="15" r="15"></circle>
            </g>
            <g id="编组" transform="translate(5.000000, 6.000000)" fill="#FFFFFF" fill-rule="nonzero" stroke="#FFFFFF" stroke-width="0.3">
                <path d="M18.9999631,1.2544002 C19.0019144,1.04148337 18.9263161,0.832110409 18.7893278,0.67114852 C18.6426666,0.499073741 18.4321005,0.390329307 18.2091103,0.371559899 C18.2060364,0.371209887 18.2028982,0.370925502 18.1998244,0.370597366 L13.2032429,0.0023188389 C12.7283944,-0.0325948842 12.3151724,0.330870974 12.2807157,0.814347286 C12.2462805,1.2979111 12.6035508,1.71825395 13.0787002,1.75329893 L16.1890642,1.98260071 L12.492765,5.72998512 C11.1663662,4.51200807 9.40946327,3.7705071 7.48229762,3.7705071 C3.34988405,3.7705071 0,7.17973591 0,11.3852426 C0,15.5907493 3.34990555,19 7.48229762,19 C11.6145822,19 14.9644663,15.5907493 14.9644663,11.3852426 C14.9644663,9.77448618 14.4731095,8.28072135 13.6346067,7.05042825 L17.1161054,3.52066397 L16.919855,6.36840748 C16.8864731,6.8519713 17.2447751,7.27148287 17.719946,7.30543406 C17.7404738,7.30681223 17.7608942,7.30759976 17.7812286,7.30759976 C18.230068,7.30759976 18.6087688,6.95389049 18.6406676,6.49119616 L18.9980023,1.30755831 C18.9991845,1.2898827 18.9997004,1.27205395 18.9999631,1.2544002 C18.9999631,1.24794685 18.9999631,1.25739718 18.9999631,1.2544002 L18.9999631,1.2544002 Z M12.7877854,13.6653975 C12.4978378,14.3628625 12.0824663,14.9896251 11.5531922,15.5283378 C11.0239181,16.0669847 10.4081046,16.4896902 9.72269003,16.7847943 C9.01401772,17.0897425 8.26024867,17.244426 7.48219014,17.244426 C6.7041961,17.244426 5.95049153,17.0897643 5.24179773,16.7847943 C4.55636163,16.4897121 3.9405482,16.0669847 3.41125259,15.5283378 C2.8818925,14.9896251 2.46654247,14.3628625 2.1766809,13.6653975 C1.87693158,12.9441753 1.72500414,12.1769266 1.72500414,11.3852426 C1.72500414,10.5935149 1.87693158,9.82639738 2.1766809,9.10515336 C2.46654247,8.4076008 2.8818925,7.78086009 3.41125259,7.24212559 C3.9405482,6.70345672 4.55636163,6.28075129 5.24179773,5.98577845 C5.95049153,5.68072089 6.7041961,5.5260811 7.48219014,5.5260811 C8.26024867,5.5260811 9.01401772,5.68069902 9.72269003,5.98577845 C10.4081046,6.28075129 11.0239181,6.7034786 11.5531922,7.24212559 C12.0824663,7.78086009 12.4978163,8.4076008 12.7877854,9.10515336 C13.0875347,9.82641925 13.2394836,10.5935149 13.2394836,11.3852426 C13.2394836,12.1769266 13.0875347,12.9441972 12.7877854,13.6653975 L12.7877854,13.6653975 Z" id="形状"></path>
            </g>
        </g>
    </g>
</svg>