<?xml version="1.0" standalone="no"?>
<!DOCTYPE svg PUBLIC "-//W3C//DTD SVG 1.1//EN" "http://www.w3.org/Graphics/SVG/1.1/DTD/svg11.dtd">
<svg t="1647785050305" class="icon" viewBox="0 0 1024 1024" version="1.1" xmlns="http://www.w3.org/2000/svg" p-id="2324" xmlns:xlink="http://www.w3.org/1999/xlink" width="200" height="200">
  <defs>
    <style type="text/css"></style>
  </defs>
  <path d="M187.323733 448.170667a39.8336 39.8336 0 0 1 45.4656 33.28c20.821333 134.519467 139.400533 236.032 275.797334 236.032 136.3968 0 254.8736-101.376 275.797333-235.9296a39.936 39.936 0 0 1 45.4656-33.245867c21.777067 3.3792 36.625067 23.6544 33.245867 45.4656a356.215467 356.215467 0 0 1-314.641067 301.056v121.9584h119.569067c22.050133 0 39.867733 17.8176 39.867733 39.867733 0 22.050133-17.8176 39.867733-39.867733 39.867734H349.184a39.8336 39.8336 0 0 1-39.867733-39.867734c0-22.050133 17.8176-39.867733 39.867733-39.867733h119.569067v-121.924267a356.2496 356.2496 0 0 1-314.641067-301.226666 39.765333 39.765333 0 0 1 33.245867-45.4656zM508.586667 0l7.441066 0.136533c106.222933 3.959467 191.863467 92.0576 191.863467 199.168v239.172267c0 109.602133-89.7024 199.304533-199.304533 199.304533l-7.441067-0.136533c-106.222933-3.959467-191.863467-92.0576-191.863467-199.168V199.304533C309.282133 89.7024 398.984533 0 508.586667 0z" p-id="2325"></path>
</svg>
