<?xml version="1.0" standalone="no"?><!DOCTYPE svg PUBLIC "-//W3C//DTD SVG 1.1//EN" "http://www.w3.org/Graphics/SVG/1.1/DTD/svg11.dtd"><svg t="1669623946160" class="icon" viewBox="0 0 1025 1024" version="1.1" xmlns="http://www.w3.org/2000/svg" p-id="886" xmlns:xlink="http://www.w3.org/1999/xlink" width="200.1953125" height="200"><path d="M512.678634 3.877907c277.270317 0 502.188896 224.918579 502.188896 502.188896v502.188896h-502.188896c-277.270317 0-502.188896-224.918579-502.188897-502.188896S235.330758 3.877907 512.678634 3.877907z m15.375899 279.965462q-47.058396 0-84.111793 10.043778a135.338938 135.338938 0 0 0-62.143452 35.463455Q356.767401 354.828448 343.504961 398.105885t-13.184882 109.899871q0 65.924411 12.874649 109.221238t37.654473 68.735893A135.435886 135.435886 0 0 0 442.081345 721.697796q36.413542 10.35401 82.870863 10.35401l54.600924 84.751648h112.362342l-75.9488-96.055745a142.72635 142.72635 0 0 0 47.388018-24.159358 131.693706 131.693706 0 0 0 34.222525-41.435431q13.785958-25.419677 21.018254-61.83322t7.232295-85.313944q0-66.544876-12.874649-109.841702t-38.003484-68.813452a135.338938 135.338938 0 0 0-62.143453-35.463455q-36.93706-10.024388-84.751647-10.043778z m0 77.848974q30.131334 0 49.288192 7.755813a61.135197 61.135197 0 0 1 29.821101 25.439067q10.664243 17.566917 14.736045 45.507233a473.511778 473.511778 0 0 1 4.091192 67.475574 472.60047 472.60047 0 0 1-4.091192 67.863364q-4.071802 27.610695-14.736045 44.595925a60.417784 60.417784 0 0 1-29.821101 24.48898q-19.137469 7.523139-49.288192 7.523139t-48.95857-7.523139a60.475952 60.475952 0 0 1-29.491479-24.48898q-10.664243-16.927062-14.755435-44.595925a472.60047 472.60047 0 0 1-4.091191-67.863364 473.511778 473.511778 0 0 1 4.091191-67.475574q4.071802-27.940317 14.755435-45.507233a61.232144 61.232144 0 0 1 29.491479-25.439067q18.846626-7.755813 48.95857-7.755813z" p-id="887"></path></svg>