<?xml version="1.0" standalone="no"?><!DOCTYPE svg PUBLIC "-//W3C//DTD SVG 1.1//EN" "http://www.w3.org/Graphics/SVG/1.1/DTD/svg11.dtd"><svg t="1647849584896" class="icon" viewBox="0 0 1024 1024" version="1.1" xmlns="http://www.w3.org/2000/svg" p-id="5400" xmlns:xlink="http://www.w3.org/1999/xlink" width="200" height="200"><defs><style type="text/css"></style></defs><path d="M65.247634 413.293714a58.221714 58.221714 0 0 0 75.702857-37.778285 373.211429 373.211429 0 0 1 184.429715-216.246858 368.091429 368.091429 0 0 1 280.502857-18.212571 402.468571 402.468571 0 0 1 173.202286 124.598857l-34.377143-7.68a58.88 58.88 0 0 0-70.107429 46.153143 63.670857 63.670857 0 0 0 47.689143 73.508571l168.301714 39.168c30.244571 7.314286 60.964571-10.203429 70.107429-39.862857l42.057143-146.285714a62.939429 62.939429 0 0 0-39.241143-78.372571 58.916571 58.916571 0 0 0-75.739429 37.778285l-2.816 18.176c-61.293714-83.017143-145.627429-146.285714-242.614857-181.942857a485.412571 485.412571 0 0 0-372.333714 23.771429A490.166857 490.166857 0 0 0 25.96992 337.078857 62.976 62.976 0 0 0 65.247634 413.257143z m898.962286 195.291429a58.953143 58.953143 0 0 0-76.434286 37.778286 373.906286 373.906286 0 0 1-184.429714 216.246857 366.006857 366.006857 0 0 1-280.502857 18.907428 398.262857 398.262857 0 0 1-173.165714-124.598857l34.377142 7.68a58.221714 58.221714 0 0 0 70.107429-46.153143 63.670857 63.670857 0 0 0-47.689143-73.508571l-168.301714-39.168a58.221714 58.221714 0 0 0-70.144 39.862857L21.069349 791.259429a63.634286 63.634286 0 0 0 39.277714 78.372571 58.221714 58.221714 0 0 0 75.702857-37.778286l4.937143-16.091428a530.724571 530.724571 0 0 0 242.614857 181.942857 486.838857 486.838857 0 0 0 373.028571-23.771429 495.067429 495.067429 0 0 0 246.125715-286.939428 63.634286 63.634286 0 0 0-38.546286-78.409143z" fill="$primary-color" p-id="5401"></path></svg>
