<?xml version="1.0" standalone="no"?><!DOCTYPE svg PUBLIC "-//W3C//DTD SVG 1.1//EN" "http://www.w3.org/Graphics/SVG/1.1/DTD/svg11.dtd"><svg t="1648782010040" class="icon" viewBox="0 0 1024 1024" version="1.1" xmlns="http://www.w3.org/2000/svg" p-id="2160" xmlns:xlink="http://www.w3.org/1999/xlink" width="200" height="200"><defs><style type="text/css"></style></defs><path d="M142.245647 448.512c0-184.862118 146.853647-334.727529 328.011294-334.727529 181.187765 0 328.041412 149.865412 328.041412 334.727529 0 184.832-146.853647 334.697412-328.041412 334.697412-181.157647 0-328.011294-149.865412-328.011294-334.697412m809.532235 473.931294l-183.506823-187.181176a420.954353 420.954353 0 0 0 112.037647-286.750118C880.308706 217.419294 696.741647 30.117647 470.256941 30.117647 243.802353 30.117647 60.235294 217.449412 60.235294 448.512s183.567059 418.364235 410.021647 418.364235a401.950118 401.950118 0 0 0 235.971765-76.589176l187.51247 191.367529a40.508235 40.508235 0 0 0 58.036706 0 42.526118 42.526118 0 0 0 0-59.211294"  p-id="2161"></path></svg>
