<?xml version="1.0" encoding="UTF-8"?>
<svg width="32px" height="34px" viewBox="0 0 32 34" version="1.1" xmlns="http://www.w3.org/2000/svg" xmlns:xlink="http://www.w3.org/1999/xlink">
    <title>形状</title>
    <g id="目标管理" stroke="none" stroke-width="1" fill="none" fill-rule="evenodd">
        <g id="画板备份-5" transform="translate(-689.000000, -1166.000000)" fill="#BCBCBC" fill-rule="nonzero">
            <path d="M703.614395,1166.5 C711.412049,1166.5 717.72879,1172.94536 717.72879,1180.89137 C717.730342,1184.29819 716.541418,1187.5853 714.389187,1190.1697 L714.194,1190.397 L719.958838,1196.278 C720.640175,1196.97499 720.678,1198.07492 720.072045,1198.81701 L719.958429,1198.9441 C719.270617,1199.64412 718.177026,1199.68301 717.443717,1199.06035 L717.318205,1198.9436 L711.388,1192.892 L711.083554,1193.09354 C708.962027,1194.4516 706.519858,1195.20722 704.011041,1195.27777 L703.614395,1195.2832 C695.816741,1195.2832 689.5,1188.83785 689.5,1180.8916 C689.5,1172.94536 695.816741,1166.5 703.614395,1166.5 Z M703.614395,1170.27832 C697.971646,1170.27832 693.375784,1174.87337 693.226616,1180.60413 L693.222879,1180.8916 L693.226616,1181.17907 C693.375784,1186.90983 697.971646,1191.50488 703.614395,1191.50488 C709.35119,1191.50488 714.005911,1186.75539 714.005911,1180.8916 C714.005911,1175.02782 709.35119,1170.27832 703.614395,1170.27832 Z" id="形状"></path>
        </g>
    </g>
</svg>