<?xml version="1.0" standalone="no"?><!DOCTYPE svg PUBLIC "-//W3C//DTD SVG 1.1//EN" "http://www.w3.org/Graphics/SVG/1.1/DTD/svg11.dtd"><svg t="1649923147206" class="icon" viewBox="0 0 1024 1024" version="1.1" xmlns="http://www.w3.org/2000/svg" p-id="3193" xmlns:xlink="http://www.w3.org/1999/xlink" width="200" height="200"><defs><style type="text/css">@font-face { font-family: feedback-iconfont; src: url("//at.alicdn.com/t/font_1031158_u69w8yhxdu.woff2?t=1630033759944") format("woff2"), url("//at.alicdn.com/t/font_1031158_u69w8yhxdu.woff?t=1630033759944") format("woff"), url("//at.alicdn.com/t/font_1031158_u69w8yhxdu.ttf?t=1630033759944") format("truetype"); }
</style></defs><path d="M414.805333 1.066667a53.888 53.888 0 0 1 21.205334 105.685333 409.002667 409.002667 0 0 0-328.234667 400.725333c0 225.706667 183.210667 408.746667 409.258667 408.746667 194.176 0 360.533333-136.106667 400.298666-323.413333a53.888 53.888 0 0 1 105.472 22.442666C972.458667 852.053333 762.368 1024 517.034667 1024 231.509333 1024 0 792.746667 0 507.477333A516.864 516.864 0 0 1 414.805333 1.024zM916.181333 0A107.776 107.776 0 0 1 1024 107.776v296.448a53.888 53.888 0 1 1-107.776 0V170.496L484.906667 615.296a53.888 53.888 0 0 1-72.96 4.138667l-3.242667-2.986667a53.888 53.888 0 0 1-1.194667-76.202667L826.88 107.776h-207.104a53.888 53.888 0 0 1-53.76-50.005333l-0.128-3.84c0-29.781333 24.149333-53.930667 53.888-53.930667h296.405333z"  p-id="3194"></path></svg>
