<?xml version="1.0" encoding="UTF-8"?>
<svg width="27px" height="24px" viewBox="0 0 27 24" version="1.1" xmlns="http://www.w3.org/2000/svg" xmlns:xlink="http://www.w3.org/1999/xlink">
    <title>编组</title>
    <g id="产品详情+保费试算+计划书" stroke="none" stroke-width="1" fill="none" fill-rule="evenodd">
        <g id="计划书-家庭保障切换" transform="translate(-531.000000, -1726.000000)" fill="#0D6EFE" fill-rule="nonzero">
            <g id="编组" transform="translate(531.000000, 1726.000000)">
                <path d="M25.3003253,9.32622944 C25.8920054,9.32622944 26.4256418,8.97122409 26.6523462,8.42645886 C26.8790505,7.88229893 26.7535426,7.25521362 26.3353856,6.83816557 L19.6348442,0.165699425 C19.4130021,-0.0552331415 19.0538004,-0.0552331415 18.8319583,0.165699425 L17.5650275,1.42743623 C17.3431855,1.6483688 17.3431855,2.00640061 17.5650275,2.22703053 L21.7672628,6.41173545 L0.560986865,6.41173545 C0.251319684,6.41173545 0,6.66172216 0,6.97042246 L0,8.76784507 C0,9.07624273 0.251015791,9.32653208 0.560986865,9.32653208 L25.3003253,9.32653208 L25.3003253,9.32622944 Z M26.4323275,14.5877536 L1.69997861,14.5877536 C1.10829854,14.5877536 0.574662059,14.942759 0.347957725,15.4875242 C0.121253391,16.0316841 0.246761286,16.6587695 0.664918343,17.0758175 L7.36545972,23.7485863 C7.58730177,23.9695189 7.94650354,23.9695189 8.16834558,23.7485863 L9.43527637,22.4868495 C9.65711842,22.2659169 9.65711842,21.9078851 9.43527637,21.6872552 L5.23304107,17.5022476 L26.4323275,17.5022476 C26.7459453,17.5022476 27,17.2489318 27,16.9369024 L27,15.1534015 C27,14.8410695 26.7459453,14.5877536 26.4323275,14.5877536 Z" id="形状"></path>
            </g>
        </g>
    </g>
</svg>