<?xml version="1.0" standalone="no"?><!DOCTYPE svg PUBLIC "-//W3C//DTD SVG 1.1//EN" "http://www.w3.org/Graphics/SVG/1.1/DTD/svg11.dtd"><svg t="1647784536724" class="icon" viewBox="0 0 1024 1024" version="1.1" xmlns="http://www.w3.org/2000/svg" p-id="847" xmlns:xlink="http://www.w3.org/1999/xlink" width="200" height="200"><defs><style type="text/css"></style></defs><path d="M110.431373 505.665855C110.431373 540.577607 129.041468 572.837396 159.251416 590.29327101 189.461384 607.749148 226.681575 607.749148 256.891523 590.293271 287.10149 572.837396 305.711586 540.577607 305.711586 505.665855 305.711586 470.754105 287.10149 438.494316 256.891523 421.038441 226.681575 403.582564 189.461384 403.582564 159.251416 421.03844099 129.041468 438.494316 110.431373 470.754105 110.431373 505.665855L110.431373 505.665855ZM442.433857 808.711054C442.433857 808.711054 430.730943 820.901573 403.330068 820.901573 373.3454 820.901573 349.049374 796.585835 349.049374 766.576829 349.049374 733.547385 375.082446 718.749337 387.241261 714.968277 455.548125 670.400275 500.883315 593.563345 500.883315 505.883176 500.883315 418.029257 455.396111 341.061933 386.850394 296.559128 373.084823 292.147943 349.049374 280.935366 349.049374 245.059235 349.049374 215.050228 373.3454 190.734493 403.330068 190.734493 430.730943 190.73449299 442.433857 202.92501 442.433857 202.92501 542.766341 266.463194 609.596717 378.198313 609.596717 505.818084 609.596717 633.437855 542.766341 745.194498 442.433857 808.711054L442.433857 808.711054ZM675.623775 1009.864696C675.623775 1009.864696 658.058601 1016.470606 631.309051 1016.470606 595.331815 1016.470606 566.17219 987.26558 566.17219 951.28089301 566.17219 925.81346299 617.717178 895.804456 635.45609 886.525821 726.734487 794.304181 783.295006 667.618888 783.295006 527.54791801 783.295006 373.678574 714.944713 236.150043 607.338637 142.581122 583.259758 133.019969 566.17219 109.57340899 566.17219001 82.085111 566.17219 46.100424 595.331815 16.89539799 631.309051 16.895398 660.68572401 16.895398 678.663489 25.86989 678.663489 25.86989 821.87764 141.364336 913.568627 318.267334 913.568627 516.683053 913.568627 716.467577 820.553266 894.435444 675.623775 1009.864696L675.623775 1009.864696Z" p-id="848"></path></svg>