<?xml version="1.0" standalone="no"?><!DOCTYPE svg PUBLIC "-//W3C//DTD SVG 1.1//EN" "http://www.w3.org/Graphics/SVG/1.1/DTD/svg11.dtd"><svg t="1650869373541" class="icon" viewBox="0 0 1234 1024" version="1.1" xmlns="http://www.w3.org/2000/svg" p-id="2184" xmlns:xlink="http://www.w3.org/1999/xlink" width="57.84375" height="48"><defs><style type="text/css">@font-face { font-family: feedback-iconfont; src: url("//at.alicdn.com/t/font_1031158_u69w8yhxdu.woff2?t=1630033759944") format("woff2"), url("//at.alicdn.com/t/font_1031158_u69w8yhxdu.woff?t=1630033759944") format("woff"), url("//at.alicdn.com/t/font_1031158_u69w8yhxdu.ttf?t=1630033759944") format("truetype"); }
</style></defs><path d="M863.262118 349.424941c189.530353 0 358.159059 137.095529 358.159058 305.694118 0 94.780235-63.006118 179.501176-147.727058 243.049412l31.774117 105.321411-115.651764-63.518117c-42.104471 10.330353-84.449882 20.901647-126.554353 20.901647-200.884706 0-358.701176-136.854588-358.701177-305.724236 0-168.357647 157.816471-305.724235 358.701177-305.724235zM435.501176 12.167529c211.757176 0 397.312 128.662588 434.386824 302.290824-13.763765-1.325176-27.798588-2.379294-41.562353-2.379294-204.348235 0-366.08 152.756706-366.351059 340.419765 0 31.232 4.758588 61.680941 13.251765 90.262588-13.251765 1.325176-26.744471 1.867294-39.996235 1.867294-53.458824 0-96.617412-10.842353-150.588236-21.443765l-150.64847 75.685647 42.887529-129.686588C69.150118 593.739294 4.818824 496.609882 4.818824 378.247529 4.818824 173.417412 198.866824 12.197647 435.501176 12.197647zM746.797176 518.324706c-21.172706 0-42.104471 21.172706-42.10447 42.074353 0 21.202824 21.202824 42.104471 42.10447 42.10447 31.774118 0 52.946824-20.901647 52.946824-42.10447 0-21.172706-21.172706-42.074353-52.946824-42.074353z m232.146824 0c-20.901647 0-41.833412 21.172706-41.833412 42.074353 0 21.202824 20.931765 42.104471 41.833412 42.10447 31.232 0 52.946824-20.901647 52.675765-42.10447 0-21.172706-20.901647-42.074353-52.705883-42.074353zM596.720941 195.343059c-32.045176 0-64.331294 21.443765-64.873412 54.000941 0 32.316235 32.286118 53.729882 64.873412 53.729882 32.286118 0 53.729882-21.413647 53.729883-53.729882 0-32.527059-21.443765-54.000941-53.76-54.000941z m-301.507765 0c-32.557176 0-64.873412 21.443765-64.873411 54.000941 0 32.316235 32.316235 53.729882 64.873411 53.729882 32.527059 0 54.000941-21.955765 54.000942-53.729882 0-32.527059-21.443765-54.000941-54.000942-54.000941z" fill="#FFFFFF" p-id="2185"></path></svg>