<?xml version="1.0" encoding="UTF-8"?>
<svg width="33px" height="32px" viewBox="0 0 33 32" version="1.1" xmlns="http://www.w3.org/2000/svg" xmlns:xlink="http://www.w3.org/1999/xlink">
    <title>微信登录</title>
    <g id="第二版-投保流程-10.18" stroke="none" stroke-width="1" fill="none" fill-rule="evenodd">
        <g id="第二版投保流程" transform="translate(-1921.000000, -5372.000000)" fill="#00C800" fill-rule="nonzero">
            <g id="微信登录" transform="translate(1921.600468, 5372.000000)">
                <path d="M10.875,11.015625 C10.359375,11.015625 9.94374999,11.434375 9.94374999,11.946875 C9.94374999,12.459375 10.359375,12.88125 10.875,12.88125 C11.390625,12.88125 11.80625,12.4625 11.80625,11.95 C11.80625,11.4375 11.390625,11.015625 10.875,11.015625 L10.875,11.015625 Z M18.06875,15.98125 C17.640625,15.98125 17.290625,16.328125 17.290625,16.759375 C17.290625,17.1875 17.6375,17.5375 18.06875,17.5375 C18.496875,17.5375 18.846875,17.1875 18.846875,16.759375 C18.846875,16.33125 18.496875,15.98125 18.06875,15.98125 L18.06875,15.98125 Z M15.665625,12.88125 C16.18125,12.88125 16.596875,12.4625 16.596875,11.95 C16.596875,11.4375 16.178125,11.01875 15.665625,11.01875 C15.15,11.01875 14.734375,11.4375 14.734375,11.95 C14.734375,12.4625 15.15,12.88125 15.665625,12.88125 Z M21.84375,15.975 C21.415625,15.975 21.065625,16.321875 21.065625,16.753125 C21.065625,17.18125 21.4125,17.53125 21.84375,17.53125 C22.271875,17.53125 22.621875,17.184375 22.621875,16.753125 C22.61875,16.325 22.271875,15.975 21.84375,15.975 Z" id="形状"></path>
                <path d="M16,0 C7.16562499,0 0,7.16250002 0,16 C0,24.8375 7.16249999,32 16,32 C24.8375,32 32,24.8375 32,16 C32,7.16250002 24.8375,0 16,0 Z M13.178125,19.84375 C12.321875,19.84375 11.634375,19.66875 10.775,19.5 L8.37812498,20.703125 L9.06249998,18.640625 C7.34374998,17.440625 6.31874998,15.89375 6.31874998,14.009375 C6.31874998,10.746875 9.40624999,8.17500001 13.178125,8.17500001 C16.55,8.17500001 19.50625,10.228125 20.1,12.990625 C19.88125,12.965625 19.6625,12.95 19.440625,12.95 C16.184375,12.95 13.609375,15.38125 13.609375,18.378125 C13.609375,18.878125 13.6875,19.35625 13.821875,19.815625 C13.609375,19.834375 13.39375,19.84375 13.178125,19.84375 L13.178125,19.84375 Z M23.296875,22.246875 L23.8125,23.959375 L21.93125,22.93125 C21.246875,23.103125 20.55625,23.275 19.871875,23.275 C16.609375,23.275 14.0375,21.04375 14.0375,18.296875 C14.0375,15.55625 16.60625,13.31875 19.871875,13.31875 C22.953125,13.31875 25.6968821,15.553125 25.6968821,18.296875 C25.7,19.84375 24.671875,21.2125 23.296875,22.246875 L23.296875,22.246875 Z" id="形状"></path>
            </g>
        </g>
    </g>
</svg>