<?xml version="1.0" encoding="UTF-8"?>
<svg width="42px" height="42px" viewBox="0 0 42 42" version="1.1" xmlns="http://www.w3.org/2000/svg" xmlns:xlink="http://www.w3.org/1999/xlink">
    <title>x</title>
    <g id="页面-1" stroke="none" stroke-width="1" fill="none" fill-rule="evenodd">
        <g id="上传后" transform="translate(-169.000000, -151.000000)">
            <g id="x" transform="translate(173.000000, 155.000000)">
                <path d="M17,-2 C22.2465769,-2 26.9965738,0.12670801 30.4349269,3.56506111 C33.8732985,7.00343273 36,11.7534527 36,17 C36,22.2465473 33.8732985,26.9965673 30.4349269,30.4349389 C26.9965738,33.873292 22.2465769,36 17,36 C11.7534231,36 7.00342624,33.873292 3.56507313,30.4349389 C0.126701518,26.9965673 -2,22.2465473 -2,17 C-2,11.7534527 0.126701513,7.00343273 3.56507313,3.56506112 C7.00342623,0.126708013 11.7534231,-2 17,-2 Z" id="形状备份-11" stroke="#FFFFFF" stroke-width="4" fill="currentColor"></path>
                <path d="M23.6090909,10.3915333 C22.9425254,9.72882205 21.8635468,9.73034412 21.1988636,10.3949242 L17,14.5916667 L12.8022727,10.3949242 L12.6806818,10.2838667 C11.9793738,9.70655478 10.9471624,9.77994565 10.3350637,10.4506416 C9.7229649,11.1213375 9.74654007,12.1531412 10.3886364,12.7953333 L14.5909091,17 L10.3863637,21.2046667 L10.2761364,21.3259333 C9.69599453,22.0267992 9.77118745,23.0587897 10.446831,23.6686438 C11.1224745,24.278498 12.1595727,24.2504915 12.8011364,23.6050667 L16.9988636,19.4072 L21.1977273,23.6050667 L21.3181818,23.7161333 C22.0189839,24.299086 23.0558158,24.2281616 23.67025,23.5552403 C24.2846841,22.882319 24.258726,21.8461459 23.6113636,21.2046667 L19.4068182,17 L23.6113636,12.7953333 L23.7227273,12.6740667 C24.2797598,11.9975276 24.2305812,11.0097119 23.6090909,10.3915333 Z" id="路径备份-13" fill="#FFFFFF" fill-rule="nonzero"></path>
            </g>
        </g>
    </g>
</svg>
