<?xml version="1.0" encoding="UTF-8"?>
<svg width="36px" height="36px" viewBox="0 0 36 36" version="1.1" xmlns="http://www.w3.org/2000/svg" xmlns:xlink="http://www.w3.org/1999/xlink">
    <title>编组 3</title>
    <g id="页面-1" stroke="none" stroke-width="1" fill="none" fill-rule="evenodd">
        <g id="产品库-卡片方案" transform="translate(-121.000000, -520.000000)" fill-rule="nonzero">
            <g id="编组-3" transform="translate(121.000000, 520.000000)">
                <g id="编组" transform="translate(3.000000, 0.000000)">
                    <path d="M5,0 L25,0 C27.7614237,0 30,2.19787486 30,4.90909091 L30,31.9090909 C30,34.1684376 28.1345198,36 25.8333333,36 L4.16666667,36 C1.86548021,36 0,34.1684376 0,31.9090909 L0,4.90909091 C0,2.19787486 2.23857625,0 5,0 Z" id="路径" fill="#EA3E41"></path>
                    <path d="M27.4999999,28.6363636 L27.4999999,31.9090909 L27.4958333,32.0318182 C27.4304193,32.8857358 26.7055206,33.5457255 25.8333333,33.5454546 L4.16666667,33.5454546 L4.04166667,33.5413636 C3.1719358,33.477139 2.49972399,32.7654203 2.49999992,31.9090909 L2.49999992,30.2727273 L2.50416667,30.15 C2.56958067,29.2960824 3.29447936,28.6360926 4.16666667,28.6363636 L27.4999999,28.6363636 Z M21.25,4.90909091 C21.9403559,4.90909091 22.5,5.45855963 22.5,6.13636364 C22.5,6.81416765 21.9403559,7.36363636 21.25,7.36363636 L8.75,7.36363636 C8.05964406,7.36363636 7.5,6.81416765 7.5,6.13636364 C7.5,5.45855963 8.05964406,4.90909091 8.75,4.90909091 L21.25,4.90909091 Z" id="形状" fill="#FFFFFF"></path>
                </g>
            </g>
        </g>
    </g>
</svg>