<?xml version="1.0" encoding="UTF-8"?>
<svg width="36px" height="36px" viewBox="0 0 36 36" version="1.1" xmlns="http://www.w3.org/2000/svg" xmlns:xlink="http://www.w3.org/1999/xlink">
    <title>编组 5</title>
    <g id="页面-1" stroke="none" stroke-width="1" fill="none" fill-rule="evenodd">
        <g id="产品库-卡片方案" transform="translate(-279.000000, -520.000000)" fill-rule="nonzero">
            <g id="编组-5" transform="translate(279.000000, 520.000000)">
                <g id="编组" transform="translate(1.000000, 0.000000)">
                    <path d="M16.5137129,30.9224337 C15.6840685,29.427126 15.6840685,27.5874412 16.5137129,26.0921335 L19.2559758,21.1701219 C20.0904728,19.6775554 21.6278984,18.7575499 23.2923679,18.7547185 L27.5864123,18.7547185 C27.8165685,18.7547185 28.037298,18.6599627 28.2000429,18.4912964 C28.3627879,18.3226301 28.4542171,18.0938694 28.4542171,17.8553392 L28.4542171,4.94937295 C28.4542171,2.21590975 26.3161014,0 23.6786021,0 L4.77561499,0 C2.13811566,0 0,2.21590975 0,4.94937295 L0,31.025799 C0,32.3384543 0.503143706,33.5973467 1.39874525,34.5255342 C2.29434679,35.4537216 3.50904314,35.9751719 4.77561499,35.9751719 L17.9036672,35.9751719 C18.1979266,35.9751719 18.4698328,35.8124772 18.6168896,35.5483253 C18.7639464,35.2841734 18.7637938,34.9587634 18.6164893,34.6947598 L16.5137129,30.9224337 Z" id="路径" fill="#FF7021"></path>
                    <path d="M33.6708235,27.2524595 L30.9285606,22.3304479 C30.4888185,21.5410795 29.6759343,21.0550371 28.7964499,21.0556089 L23.3138796,21.0556089 C22.4347446,21.0553994 21.6223143,21.5413932 21.1827468,22.3304479 L18.4404838,27.2524595 C18.0009303,28.041489 18.0009303,29.0136136 18.4404838,29.8026431 L21.1827468,34.7246547 C21.6221161,35.513981 22.4346167,36.0002101 23.3138796,35.9999999 L28.7964499,35.9999999 C29.6757129,36.0002101 30.4882135,35.513981 30.9275828,34.7246547 L33.6698457,29.8026431 C34.1097018,29.0137946 34.1100746,28.0416701 33.6708235,27.2524595 L33.6708235,27.2524595 Z M26.0556537,31.749356 C24.3390303,31.749356 22.9473817,30.307224 22.9472018,28.5281423 C22.9470218,26.7490606 24.3383787,25.3066265 26.055002,25.3062533 C27.7716254,25.3058803 29.1635658,26.7477096 29.1641058,28.5267913 C29.1642355,29.3813342 28.8368116,30.2009306 28.2538638,30.8052787 C27.6709159,31.4096269 26.8801961,31.7492216 26.0556537,31.749356 L26.0556537,31.749356 Z" id="形状" fill="#FF7021"></path>
                    <path d="M6.17094721,8.10049399 L22.3429161,8.10049399 C23.0854554,8.10049399 23.6874024,7.47664553 23.6874024,6.70708945 C23.6874024,5.93753337 23.0854554,5.3136849 22.3429161,5.3136849 L6.17094721,5.3136849 C5.42840799,5.3136849 4.82646101,5.93753337 4.82646101,6.70708945 C4.82646101,7.47664553 5.42840799,8.10049399 6.17094721,8.10049399 Z M22.3429161,11.1355824 L6.17094721,11.1355824 C5.42840799,11.1355824 4.82646101,11.7594309 4.82646101,12.528987 C4.82646101,13.2985431 5.42840799,13.9223915 6.17094721,13.9223915 L22.3429161,13.9223915 C23.0854554,13.9223915 23.6874024,13.2985431 23.6874024,12.528987 C23.6874024,11.7594309 23.0854554,11.1355824 22.3429161,11.1355824 L22.3429161,11.1355824 Z M12.9070675,17.0248701 L6.17094721,17.0248701 C5.42840799,17.0248701 4.82646101,17.6487186 4.82646101,18.4182746 C4.82646101,19.1878307 5.42840799,19.8116792 6.17094721,19.8116792 L12.9070675,19.8116792 C13.6496068,19.8116792 14.2515537,19.1878307 14.2515537,18.4182746 C14.2515537,17.6487186 13.6496068,17.0248701 12.9070675,17.0248701 Z" id="形状" fill="#FFFFFF"></path>
                    <path d="M24.1557725,23.9706117 C24.1962746,23.9706117 24.2291081,23.9365836 24.2291081,23.8946079 C24.2291081,23.8526321 24.1962746,23.818604 24.1557725,23.818604 C24.1152703,23.818604 24.0824368,23.8526321 24.0824368,23.8946079 C24.0824368,23.9365836 24.1152703,23.9706117 24.1557725,23.9706117 L24.1557725,23.9706117 Z" id="路径" fill="#69ADFF"></path>
                </g>
            </g>
        </g>
    </g>
</svg>