<?xml version="1.0" encoding="UTF-8"?>
<svg width="36px" height="36px" viewBox="0 0 36 36" version="1.1" xmlns="http://www.w3.org/2000/svg" xmlns:xlink="http://www.w3.org/1999/xlink">
    <title>qita</title>
    <g id="页面-1" stroke="none" stroke-width="1" fill="none" fill-rule="evenodd">
        <g id="产品库-卡片方案" transform="translate(-436.000000, -645.000000)" fill="#39CFF2" fill-rule="nonzero">
            <g id="编组" transform="translate(436.000000, 645.000000)">
                <path d="M18,0 C8.05885706,0 0,8.05889833 0,18 C0,27.9411017 8.05889833,36 18,36 C27.9411017,36 36,27.9411429 36,18 C36,8.05885706 27.9411017,0 18,0 Z M9.85821794,20.2266039 C8.62848702,20.2266039 7.63161403,19.229731 7.63161403,18 C7.63161403,16.770269 8.62848698,15.7733961 9.85821794,15.7733961 C11.0879489,15.7733961 12.0848218,16.770269 12.0848218,18 C12.0848218,19.229731 11.0879489,20.2266039 9.85821794,20.2266039 Z M18,20.2266039 C16.7702691,20.2266039 15.7733961,19.229731 15.7733961,18 C15.7733961,16.770269 16.770269,15.7733961 18,15.7733961 C19.2297309,15.7733961 20.2266039,16.770269 20.2266039,18 C20.2266039,19.229731 19.2297309,20.2266039 18,20.2266039 Z M26.1417821,20.2266039 C24.9120511,20.2266039 23.9151782,19.229731 23.9151782,18 C23.9151782,16.770269 24.9120511,15.7733961 26.1417821,15.7733961 C27.371513,15.7733961 28.368386,16.770269 28.368386,18 C28.368386,19.229731 27.371513,20.2266039 26.1417821,20.2266039 Z" id="形状"></path>
            </g>
        </g>
    </g>
</svg>