<?xml version="1.0" encoding="UTF-8"?>
<svg width="36px" height="36px" viewBox="0 0 36 36" version="1.1" xmlns="http://www.w3.org/2000/svg" xmlns:xlink="http://www.w3.org/1999/xlink">
    <title>编组 6</title>
    <g id="页面-1" stroke="none" stroke-width="1" fill="none" fill-rule="evenodd">
        <g id="产品库-卡片方案" transform="translate(-436.000000, -520.000000)" fill-rule="nonzero">
            <g id="编组-6" transform="translate(436.000000, 520.000000)">
                <g id="编组" transform="translate(3.000000, 0.000000)">
                    <path d="M19.3542675,5.74168297 L10.3447055,5.74168297 C9.82764727,5.74168297 9.41329241,5.3260274 9.41329241,4.81526419 L9.41329241,0.926418787 C9.41329241,0.415655577 9.83118876,0 10.3447055,0 L19.350726,0 C19.8677842,0 20.2856806,0.415655577 20.2856806,0.926418787 L20.2856806,4.81174168 C20.2856806,5.3260274 19.8677842,5.74168297 19.3542675,5.74168297 Z" id="路径" fill="#02AFFF"></path>
                    <path d="M27.6980286,3.45205479 L22.5026561,3.45205479 C22.3291229,3.45205479 22.1910046,3.59295499 22.1910046,3.76203523 L22.1910046,6.41448141 C22.1910046,6.92876712 21.7731083,7.3409002 21.2595915,7.3409002 L8.74394995,7.3409002 C8.22689175,7.3409002 7.81253689,6.92524462 7.81253689,6.41448141 L7.81253689,3.76203523 C7.81253689,3.58943249 7.67087711,3.45205479 7.50088537,3.45205479 L2.30197143,3.45205479 C1.0305749,3.45205479 0,4.47710372 0,5.74168297 L0,33.7103718 C0,34.9749511 1.0305749,36 2.30197143,36 L27.6980286,36 C28.9694251,36 30,34.9749511 30,33.7103718 L30,5.74168297 C30,4.47710372 28.9694251,3.45205479 27.6980286,3.45205479 Z M11.6798489,29.3776908 C11.6798489,30.0011742 11.1734152,30.5048924 10.5465707,30.5048924 L3.92397592,30.5048924 C3.29713139,30.5048924 2.79069767,30.0011742 2.79069767,29.3776908 C2.79069767,28.7542074 3.29713139,28.2504892 3.92397592,28.2504892 L10.5465707,28.2504892 C11.1734152,28.2504892 11.6798489,28.7542074 11.6798489,29.3776908 Z M11.6798489,23.8227006 C11.6798489,24.446184 11.1734152,24.9499022 10.5465707,24.9499022 L3.92397592,24.9499022 C3.29713139,24.9499022 2.79069767,24.446184 2.79069767,23.8227006 C2.79069767,23.1992172 3.29713139,22.695499 3.92397592,22.695499 L10.5465707,22.695499 C11.1734152,22.695499 11.6798489,23.2027397 11.6798489,23.8227006 Z M15.0088537,18.2712329 C15.0088537,18.8947162 14.50242,19.3984344 13.8755755,19.3984344 L3.92397592,19.3984344 C3.29713139,19.3984344 2.79069767,18.8947162 2.79069767,18.2712329 C2.79069767,17.6477495 3.29713139,17.1440313 3.92397592,17.1440313 L13.8755755,17.1440313 C14.50242,17.1440313 15.0088537,17.6477495 15.0088537,18.2712329 Z" id="形状" fill="#02AFFF"></path>
                    <path d="M25.4208476,20.4657534 C25.3323102,20.4657534 25.2473144,20.511546 25.2012749,20.5890411 L22.7718097,24.7033268 C22.6797308,24.8407045 22.4459922,25.2810176 22.0528863,25.9925636 C21.9466415,26.1863014 21.8510211,26.3589041 21.7695668,26.5068493 C21.6526974,26.7217221 21.3304214,26.665362 21.2950065,26.4223092 C21.2348011,26.0172211 21.1568882,25.4958904 21.0541849,24.8618395 L20.3706764,20.6947162 C20.3494275,20.5714286 20.2431826,20.4833659 20.1192303,20.4833659 L17.9589187,20.4833659 C17.7995514,20.4833659 17.6791406,20.6277886 17.711014,20.7863014 L19.6234211,30.3041096 C19.6482115,30.4238748 19.7509149,30.5084149 19.8713257,30.5084149 L21.8616456,30.5084149 C21.950183,30.5084149 22.0316374,30.4626223 22.0776768,30.3886497 L27.9742651,20.846184 C28.0769685,20.6771037 27.9565577,20.4622309 27.758234,20.4622309 L25.4208476,20.4622309 L25.4208476,20.4657534 Z" id="路径" fill="#FFFFFF"></path>
                </g>
            </g>
        </g>
    </g>
</svg>