<?xml version="1.0" encoding="UTF-8"?>
<svg width="36px" height="36px" viewBox="0 0 36 36" version="1.1" xmlns="http://www.w3.org/2000/svg" xmlns:xlink="http://www.w3.org/1999/xlink">
    <title>zidingyi</title>
    <g id="页面-1" stroke="none" stroke-width="1" fill="none" fill-rule="evenodd">
        <g id="产品库-卡片方案" transform="translate(-593.000000, -645.000000)" fill="#D13A3D" fill-rule="nonzero">
            <g id="zidingyi" transform="translate(593.000000, 645.000000)">
                <g id="编组" transform="translate(2.000000, 1.000000)">
                    <path d="M16.0738462,1.03827547e-15 C19.0867692,1.03827547e-15 21.4498462,1.03827547e-15 23.3255385,0.20213859 C25.2381538,0.406712584 26.7864615,0.832908406 28.1107692,1.78515164 C28.9107692,2.35990715 29.6147692,3.05643289 30.1981538,3.84793942 C31.1581538,5.15818715 31.5889231,6.6924921 31.7981538,8.58480155 C32,10.4381445 32,12.7736976 32,15.7570684 L32,19.1520225 C32,22.1329579 32,24.4709464 31.7981538,26.3242894 C31.5889231,28.2165988 31.1581538,29.7509038 30.1981538,31.0587161 C29.616223,31.8512462 28.9118038,32.5481867 28.1107692,33.1239393 C26.7864615,34.0761825 25.2381538,34.5023783 23.3255385,34.7069523 C21.4498462,34.9090909 19.0892308,34.9090909 16.0738462,34.9090909 L15.9261538,34.9090909 C12.9107692,34.9090909 10.5501538,34.9090909 8.67446154,34.7069523 C6.76184615,34.5023783 5.21353846,34.0761825 3.88923077,33.1239393 C3.08822288,32.5481558 2.38380817,31.8512198 1.80184615,31.0587161 C0.841846154,29.7509038 0.411076923,28.2165988 0.201846154,26.3242894 C6.99611309e-16,24.4709464 6.99611309e-16,22.1353933 6.99611309e-16,19.1520225 L6.99611309e-16,15.7570684 C6.99611309e-16,12.776133 6.99611309e-16,10.4381445 0.201846154,8.58480155 C0.411076923,6.6924921 0.841846154,5.15818715 1.80184615,3.84793942 C2.38523077,3.05643289 3.08923077,2.35990715 3.88923077,1.78271624 C5.21353846,0.832908406 6.76184615,0.406712584 8.67446154,0.199703185 C10.5501538,0.0024354047 12.9107692,0.0024354047 15.9261538,0.0024354047 L16.0738462,0.0024354047 L16.0738462,1.03827547e-15 Z M6.15384615,13.3947258 C6.15384615,14.2933902 6.88738462,15.0191408 7.79569231,15.0191408 L20.9230769,15.0191408 C21.5243699,15.0421887 22.0902306,14.7379487 22.3978038,14.2262409 C22.705377,13.7145331 22.705377,13.0773539 22.3978038,12.5656461 C22.0902306,12.0539383 21.5243699,11.7496984 20.9230769,11.7727463 L7.79569231,11.7727463 C6.88988614,11.7727453 6.15520418,12.4985375 6.15384615,13.3947258 Z M6.15384615,21.5143651 C6.15384615,22.410594 6.88738462,23.1363446 7.79569231,23.1363446 L12.7187692,23.1363446 C13.6001448,23.1025609 14.2970548,22.3858197 14.2970548,21.5131474 C14.2970548,20.640475 13.6001448,19.9237338 12.7187692,19.8899502 L7.79569231,19.8899502 C6.88892572,19.8899502 6.15384615,20.6172255 6.15384615,21.5143651 Z" id="形状"></path>
                </g>
            </g>
        </g>
    </g>
</svg>