<?xml version="1.0" encoding="UTF-8"?>
<svg width="36px" height="36px" viewBox="0 0 36 36" version="1.1" xmlns="http://www.w3.org/2000/svg" xmlns:xlink="http://www.w3.org/1999/xlink">
    <title>zerentiaokuan</title>
    <g id="页面-1" stroke="none" stroke-width="1" fill="none" fill-rule="evenodd">
        <g id="产品库-卡片方案" transform="translate(-279.000000, -645.000000)" fill="#9D66E5" fill-rule="nonzero">
            <g id="zerentiaokuan" transform="translate(279.000000, 645.000000)">
                <g id="编组" transform="translate(5.000000, 1.000000)">
                    <path d="M24.12,2.42857143 C24.768,3.03269367 25.284,3.53411514 25.668,3.93283582 C26.052,4.3315565 26.346,4.66986496 26.55,4.94776119 C26.754,5.22565743 26.88,5.4612651 26.928,5.65458422 C26.976,5.84790334 27,6.01705757 27,6.16204691 L27,6.74200426 L21.672,6.74200426 C21.432,6.74200426 21.222,6.65138593 21.042,6.47014925 C20.862,6.28891258 20.712,6.07746979 20.592,5.8358209 C20.472,5.594172 20.382,5.34648188 20.322,5.09275053 C20.262,4.83901919 20.232,4.63965885 20.232,4.49466951 L20.232,3.55271368e-15 L20.34,3.55271368e-15 C20.532,3.55271368e-15 20.73,0.0302061123 20.934,0.0906183369 C21.138,0.151030561 21.372,0.265813788 21.636,0.434968017 C21.9,0.604122246 22.23,0.845771144 22.626,1.15991471 C23.022,1.47405828 23.52,1.89694385 24.12,2.42857143 Z M17.964,4.53091684 C17.964,5.01421464 18.036,5.51563611 18.18,6.03518124 C18.324,6.55472637 18.552,7.03802416 18.864,7.48507463 C19.176,7.93212509 19.572,8.30063966 20.052,8.59061834 C20.532,8.88059701 21.096,9.02558635 21.744,9.02558635 L27,9.02558635 L27,29.4690832 C27,30.169865 26.862,30.7981521 26.586,31.3539446 C26.31,31.909737 25.944,32.3809524 25.488,32.7675906 C25.032,33.1542289 24.528,33.45629 23.976,33.673774 C23.424,33.891258 22.884,34 22.356,34 L4.644,34 C4.188,34 3.69,33.8670931 3.15,33.6012793 C2.61,33.3354655 2.106,32.9850746 1.638,32.5501066 C1.17,32.1151386 0.78,31.6197584 0.468,31.0639659 C0.156,30.5081734 0,29.9282161 0,29.3240938 L0,4.67590618 C0,4.1684435 0.114,3.64285714 0.342,3.09914712 C0.57,2.5554371 0.882,2.05401564 1.278,1.59488273 C1.674,1.13574982 2.124,0.755152807 2.628,0.453091684 C3.132,0.151030561 3.66,0 4.212,0 L17.964,0 L17.964,4.53091684 Z M20.232,27.1492537 C20.856,27.1492537 21.384,26.9257285 21.816,26.478678 C22.248,26.0316276 22.464,25.4939588 22.464,24.8656716 C22.464,24.2373845 22.248,23.7057569 21.816,23.2707889 C21.384,22.8358209 20.856,22.6183369 20.232,22.6183369 L6.732,22.6183369 C6.108,22.6183369 5.58,22.8358209 5.148,23.2707889 C4.716,23.7057569 4.5,24.2373845 4.5,24.8656716 C4.5,25.4939588 4.716,26.0316276 5.148,26.478678 C5.58,26.9257285 6.108,27.1492537 6.732,27.1492537 L20.232,27.1492537 Z M22.464,15.8400853 C22.464,15.2117982 22.248,14.6741294 21.816,14.2270789 C21.384,13.7800284 20.856,13.5565032 20.232,13.5565032 L6.732,13.5565032 C6.108,13.5565032 5.58,13.7800284 5.148,14.2270789 C4.716,14.6741294 4.5,15.2117982 4.5,15.8400853 C4.5,16.4683724 4.716,17 5.148,17.434968 C5.58,17.869936 6.108,18.08742 6.732,18.08742 L20.232,18.08742 C20.856,18.08742 21.384,17.869936 21.816,17.434968 C22.248,17 22.464,16.4683724 22.464,15.8400853 Z" id="形状"></path>
                </g>
            </g>
        </g>
    </g>
</svg>