<?xml version="1.0" encoding="UTF-8"?>
<svg width="36px" height="36px" viewBox="0 0 36 36" version="1.1" xmlns="http://www.w3.org/2000/svg" xmlns:xlink="http://www.w3.org/1999/xlink">
    <title>feilvbiao</title>
    <g id="页面-1" stroke="none" stroke-width="1" fill="none" fill-rule="evenodd">
        <g id="产品库-卡片方案" transform="translate(-593.000000, -520.000000)" fill="#3DDEA3" fill-rule="nonzero">
            <g id="feilvbiao" transform="translate(593.000000, 520.000000)">
                <path d="M18,36 C8.05837497,36 0,27.941625 0,18 C0,8.05837503 8.05837497,0 18,0 C27.941625,0 36,8.05837503 36,18 C36,27.941625 27.941625,36 18,36 Z M25.954875,10.045125 C25.5155627,9.60594531 24.8034374,9.60594531 24.364125,10.045125 L10.045125,24.364125 C9.61878107,24.8055512 9.62487829,25.5072205 10.0588289,25.9411711 C10.4927795,26.3751217 11.1944488,26.3812189 11.635875,25.954875 L25.954875,11.635875 C26.3940547,11.1965626 26.3940547,10.4844373 25.954875,10.045125 Z M23.625,27 C25.4889611,27 27,25.4889611 27,23.625 C27,21.761039 25.4889611,20.25 23.625,20.25 C21.761039,20.25 20.25,21.761039 20.25,23.625 C20.25,25.4889611 21.761039,27 23.625,27 Z M23.625,24.75 C23.0036797,24.75 22.5,24.2463203 22.5,23.625 C22.5,23.0036796 23.0036797,22.5 23.625,22.5 C24.2463204,22.5 24.75,23.0036796 24.75,23.625 C24.75,24.2463203 24.2463204,24.75 23.625,24.75 Z M12.375,15.75 C14.238961,15.75 15.75,14.238961 15.75,12.375 C15.75,10.5110389 14.238961,8.99999997 12.375,8.99999997 C10.5110389,8.99999997 8.99999997,10.5110389 8.99999997,12.375 C8.99999997,14.238961 10.5110389,15.75 12.375,15.75 Z M12.375,13.5 C11.7536796,13.5 11.25,12.9963204 11.25,12.375 C11.25,11.7536797 11.7536796,11.25 12.375,11.25 C12.9963203,11.25 13.4999999,11.7536797 13.4999999,12.375 C13.4999999,12.9963203 12.9963203,13.5 12.375,13.5 L12.375,13.5 Z" id="形状"></path>
            </g>
        </g>
    </g>
</svg>