<?xml version="1.0" encoding="UTF-8"?>
<svg width="36px" height="36px" viewBox="0 0 36 36" version="1.1" xmlns="http://www.w3.org/2000/svg" xmlns:xlink="http://www.w3.org/1999/xlink">
    <title>fengxiangaozhiwenjuan</title>
    <g id="页面-1" stroke="none" stroke-width="1" fill="none" fill-rule="evenodd">
        <g id="产品库-卡片方案" transform="translate(-121.000000, -645.000000)" fill="#FF7021" fill-rule="nonzero">
            <g id="fengxiangaozhiwenjuan" transform="translate(121.000000, 645.000000)">
                <g id="编组" transform="translate(1.000000, 0.000000)">
                    <path d="M25.2976005,13.0292969 L29.672658,20.5625 C30.0234881,21.1674805 30.9555955,20.9213867 30.9555955,20.2207031 L30.9555955,2.734375 C30.9555955,1.22363281 29.7242507,0 28.203987,0 L2.75160849,0 C1.2313448,0 0,1.22363281 0,2.734375 L0,32.265625 C0,33.7763672 1.2313448,35 2.75160849,35 L7.37087124,35 C8.35457127,35 9.26260208,34.4804688 9.75445209,33.6328125 L21.723949,13.0292969 C22.518476,11.6621094 24.5030736,11.6621094 25.2976005,13.0292969 Z M3.40511551,5.75927734 C3.40511551,4.92871094 4.0826991,4.25537109 4.91850017,4.25537109 L25.9683051,4.25537109 C26.8041062,4.25537109 27.4816898,4.92871094 27.4816898,5.75927734 C27.4816898,6.58984375 26.8041062,7.26318359 25.9683051,7.26318359 L4.91850017,7.26318359 C4.0826991,7.26318359 3.40511551,6.58984375 3.40511551,5.75927734 Z M11.659941,20.456543 C11.659941,21.2871094 10.9823574,21.9604492 10.1465563,21.9604492 L4.91850017,21.9604492 C4.0826991,21.9604492 3.40511551,21.2871094 3.40511551,20.456543 C3.40511551,19.6259766 4.0826991,18.9526367 4.91850017,18.9526367 L10.1465563,18.9526367 C10.9823574,18.9526367 11.659941,19.6259766 11.659941,20.456543 Z M17.163158,13.1079102 C17.163158,13.9384766 16.4855744,14.6118164 15.6497733,14.6118164 L4.91850017,14.6118164 C4.0826991,14.6118164 3.40511551,13.9384766 3.40511551,13.1079102 C3.40511551,12.2773438 4.0826991,11.6040039 4.91850017,11.6040039 L15.6497733,11.6040039 C16.4855744,11.6040039 17.163158,12.2773438 17.163158,13.1079102 Z" id="形状"></path>
                    <path d="M33.8138288,32.921875 L24.7025652,17.2402344 C24.1728806,16.3276367 22.848669,16.3276367 22.3189844,17.2402344 L13.2077207,32.921875 C12.6780361,33.8344727 13.3384222,34.9726562 14.3977914,34.9726562 L32.6203186,34.9726562 C33.6796879,34.9726562 34.3435135,33.8310547 33.8138288,32.921875 Z M22.3086658,22.637207 C22.3086658,21.9775391 22.848669,21.440918 23.5124945,21.440918 C24.1763201,21.440918 24.7163233,21.9775391 24.7163233,22.637207 L24.7163233,26.7387695 C24.7163233,27.3984375 24.1763201,27.9350586 23.5124945,27.9350586 C22.848669,27.9350586 22.3086658,27.3984375 22.3086658,26.7387695 L22.3086658,22.637207 Z M23.502176,31.6503906 C22.7626812,31.6503906 22.1607669,31.0522461 22.1607669,30.3173828 C22.1607669,29.5825195 22.7626812,28.984375 23.502176,28.984375 C24.2416708,28.984375 24.8435851,29.5825195 24.8435851,30.3173828 C24.8435851,31.0522461 24.2416708,31.6503906 23.502176,31.6503906 Z" id="形状"></path>
                </g>
            </g>
        </g>
    </g>
</svg>